<mxfile host="app.diagrams.net" modified="2023-12-17T15:05:15.424Z" agent="Mozilla/5.0 (Windows NT 10.0; Win64; x64) AppleWebKit/537.36 (KHTML, like Gecko) Chrome/118.0.0.0 Safari/537.36 OPR/104.0.0.0" etag="NOzATS5yTMSLlDEIn8EX" version="22.1.11" type="device">
  <diagram name="Страница — 1" id="src1FTtseUFzk39TQ4-U">
    <mxGraphModel dx="2049" dy="2162" grid="1" gridSize="10" guides="1" tooltips="1" connect="1" arrows="1" fold="1" page="1" pageScale="1" pageWidth="827" pageHeight="1169" math="0" shadow="0">
      <root>
        <UserObject label="" Designer="&lt;font style=&quot;font-size: 14px;&quot;&gt;Смородина М.В.&lt;/font&gt;" Checker="&lt;font style=&quot;font-size: 14px;&quot;&gt;Трамов И.Б.&lt;/font&gt;" ProductName="&lt;font style=&quot;font-size: 24px;&quot;&gt;Схема электрическая функциональная&lt;/font&gt;" BlueprintName="&lt;font style=&quot;font-size: 28px;&quot;&gt;Модуль хэширования данных&lt;/font&gt;" Scale="&lt;font style=&quot;font-size: 18px;&quot;&gt;1:1&lt;/font&gt;" Manufacturer="МГТУ им Н.Э. Баумана&lt;br style=&quot;border-color: var(--border-color);&quot;&gt;Группа ИУ6-74Б" id="0">
          <mxCell />
        </UserObject>
        <mxCell id="1" parent="0" />
        <mxCell id="0Ov8n9n56HKdVS319JqA-368" value="" style="rounded=0;whiteSpace=wrap;html=1;fillColor=none;strokeWidth=1;strokeColor=#000000;fontStyle=2" vertex="1" parent="1">
          <mxGeometry x="-461.8099999999997" y="-343.96000000000026" width="1618.58" height="1162" as="geometry" />
        </mxCell>
        <mxCell id="0Ov8n9n56HKdVS319JqA-369" value="" style="rounded=0;whiteSpace=wrap;html=1;strokeWidth=1;fillColor=none;strokeColor=#000000;fontStyle=2" vertex="1" parent="1">
          <mxGeometry x="-372.2799999999993" y="-314.96000000000004" width="1513" height="1115" as="geometry" />
        </mxCell>
        <mxCell id="0Ov8n9n56HKdVS319JqA-371" value="" style="rounded=0;whiteSpace=wrap;html=1;fillColor=none;fontSize=16;fontFamily=Gost Type B;fontSource=https%3A%2F%2Ffonts.googleapis.com%2Fcss%3Ffamily%3DGost%2BType%2BB;" vertex="1" parent="1">
          <mxGeometry x="-239.39" y="506.66" width="310" height="108.75" as="geometry" />
        </mxCell>
        <mxCell id="0Ov8n9n56HKdVS319JqA-372" value="" style="rounded=0;whiteSpace=wrap;html=1;strokeWidth=1;fillColor=none;fontFamily=Gost Type B;strokeColor=#000000;fontStyle=2;fontSource=https%3A%2F%2Ffonts.googleapis.com%2Fcss%3Ffamily%3DGost%2BType%2BB;fontSize=16;" vertex="1" parent="1">
          <mxGeometry x="412.3800000000022" y="583.3970000000002" width="728.3449999999999" height="216.535" as="geometry" />
        </mxCell>
        <mxCell id="0Ov8n9n56HKdVS319JqA-373" value="" style="rounded=0;whiteSpace=wrap;html=1;strokeWidth=1;fillColor=none;fontFamily=Gost Type B;fontSize=16;strokeColor=#000000;fontStyle=2;fontSource=https%3A%2F%2Ffonts.googleapis.com%2Fcss%3Ffamily%3DGost%2BType%2BB;" vertex="1" parent="1">
          <mxGeometry x="412.3900000000022" y="583.3970000000002" width="27.558999999999997" height="19.685" as="geometry" />
        </mxCell>
        <mxCell id="0Ov8n9n56HKdVS319JqA-374" value="" style="rounded=0;whiteSpace=wrap;html=1;strokeWidth=1;fillColor=none;fontFamily=Gost Type B;fontSize=16;strokeColor=#000000;fontStyle=2;fontSource=https%3A%2F%2Ffonts.googleapis.com%2Fcss%3Ffamily%3DGost%2BType%2BB;" vertex="1" parent="1">
          <mxGeometry x="412.3870000000023" y="603.0840000000002" width="27.558999999999997" height="19.685" as="geometry" />
        </mxCell>
        <mxCell id="0Ov8n9n56HKdVS319JqA-375" value="" style="rounded=0;whiteSpace=wrap;html=1;strokeWidth=1;fillColor=none;fontFamily=Gost Type B;fontSize=16;strokeColor=#000000;fontStyle=2;fontSource=https%3A%2F%2Ffonts.googleapis.com%2Fcss%3Ffamily%3DGost%2BType%2BB;" vertex="1" parent="1">
          <mxGeometry x="412.39700000000227" y="622.7640000000001" width="27.558999999999997" height="19.685" as="geometry" />
        </mxCell>
        <mxCell id="0Ov8n9n56HKdVS319JqA-376" value="" style="rounded=0;whiteSpace=wrap;html=1;strokeWidth=1;fillColor=none;fontFamily=Gost Type B;fontSize=16;strokeColor=#000000;fontStyle=2;fontSource=https%3A%2F%2Ffonts.googleapis.com%2Fcss%3Ffamily%3DGost%2BType%2BB;" vertex="1" parent="1">
          <mxGeometry x="412.3940000000022" y="642.4510000000002" width="27.558999999999997" height="19.685" as="geometry" />
        </mxCell>
        <mxCell id="0Ov8n9n56HKdVS319JqA-377" value="Изм" style="rounded=0;whiteSpace=wrap;html=1;strokeWidth=1;fillColor=none;fontFamily=Gost Type B;fontStyle=2;fontSize=16;strokeColor=#000000;fontSource=https%3A%2F%2Ffonts.googleapis.com%2Fcss%3Ffamily%3DGost%2BType%2BB;" vertex="1" parent="1">
          <mxGeometry x="412.3910000000023" y="662.1380000000001" width="27.558999999999997" height="19.685" as="geometry" />
        </mxCell>
        <mxCell id="0Ov8n9n56HKdVS319JqA-378" value="" style="rounded=0;whiteSpace=wrap;html=1;strokeWidth=1;fillColor=none;fontFamily=Gost Type B;fontSize=16;strokeColor=#000000;fontStyle=2;fontSource=https%3A%2F%2Ffonts.googleapis.com%2Fcss%3Ffamily%3DGost%2BType%2BB;" vertex="1" parent="1">
          <mxGeometry x="439.9570000000023" y="583.3940000000001" width="39.37" height="19.685" as="geometry" />
        </mxCell>
        <mxCell id="0Ov8n9n56HKdVS319JqA-379" value="" style="rounded=0;whiteSpace=wrap;html=1;strokeWidth=1;fillColor=none;fontFamily=Gost Type B;fontSize=16;strokeColor=#000000;fontStyle=2;fontSource=https%3A%2F%2Ffonts.googleapis.com%2Fcss%3Ffamily%3DGost%2BType%2BB;" vertex="1" parent="1">
          <mxGeometry x="439.9540000000024" y="603.0810000000001" width="39.37" height="19.685" as="geometry" />
        </mxCell>
        <mxCell id="0Ov8n9n56HKdVS319JqA-380" value="" style="rounded=0;whiteSpace=wrap;html=1;strokeWidth=1;fillColor=none;fontFamily=Gost Type B;fontSize=16;strokeColor=#000000;fontStyle=2;fontSource=https%3A%2F%2Ffonts.googleapis.com%2Fcss%3Ffamily%3DGost%2BType%2BB;" vertex="1" parent="1">
          <mxGeometry x="439.9640000000024" y="622.7610000000001" width="39.37" height="19.685" as="geometry" />
        </mxCell>
        <mxCell id="0Ov8n9n56HKdVS319JqA-381" value="" style="rounded=0;whiteSpace=wrap;html=1;strokeWidth=1;fillColor=none;fontFamily=Gost Type B;fontSize=16;strokeColor=#000000;fontStyle=2;fontSource=https%3A%2F%2Ffonts.googleapis.com%2Fcss%3Ffamily%3DGost%2BType%2BB;" vertex="1" parent="1">
          <mxGeometry x="439.96100000000234" y="642.4480000000002" width="39.37" height="19.685" as="geometry" />
        </mxCell>
        <mxCell id="0Ov8n9n56HKdVS319JqA-382" value="Лист" style="rounded=0;whiteSpace=wrap;html=1;strokeWidth=1;fillColor=none;fontFamily=Gost Type B;fontStyle=2;fontSize=16;strokeColor=#000000;fontSource=https%3A%2F%2Ffonts.googleapis.com%2Fcss%3Ffamily%3DGost%2BType%2BB;" vertex="1" parent="1">
          <mxGeometry x="439.9580000000024" y="662.1350000000001" width="39.37" height="19.685" as="geometry" />
        </mxCell>
        <mxCell id="0Ov8n9n56HKdVS319JqA-383" value="" style="rounded=0;whiteSpace=wrap;html=1;strokeWidth=1;fillColor=none;fontFamily=Gost Type B;fontSize=16;strokeColor=#000000;fontStyle=2;fontSource=https%3A%2F%2Ffonts.googleapis.com%2Fcss%3Ffamily%3DGost%2BType%2BB;" vertex="1" parent="1">
          <mxGeometry x="479.3340000000024" y="583.4010000000002" width="90.551" height="19.685" as="geometry" />
        </mxCell>
        <mxCell id="0Ov8n9n56HKdVS319JqA-384" value="" style="rounded=0;whiteSpace=wrap;html=1;strokeWidth=1;fillColor=none;fontFamily=Gost Type B;fontSize=16;strokeColor=#000000;fontStyle=2;fontSource=https%3A%2F%2Ffonts.googleapis.com%2Fcss%3Ffamily%3DGost%2BType%2BB;" vertex="1" parent="1">
          <mxGeometry x="479.33100000000246" y="603.0880000000002" width="90.551" height="19.685" as="geometry" />
        </mxCell>
        <mxCell id="0Ov8n9n56HKdVS319JqA-385" value="" style="rounded=0;whiteSpace=wrap;html=1;strokeWidth=1;fillColor=none;fontFamily=Gost Type B;fontSize=16;strokeColor=#000000;fontStyle=2;fontSource=https%3A%2F%2Ffonts.googleapis.com%2Fcss%3Ffamily%3DGost%2BType%2BB;" vertex="1" parent="1">
          <mxGeometry x="479.34100000000245" y="622.7680000000001" width="90.551" height="19.685" as="geometry" />
        </mxCell>
        <mxCell id="0Ov8n9n56HKdVS319JqA-386" value="" style="rounded=0;whiteSpace=wrap;html=1;strokeWidth=1;fillColor=none;fontFamily=Gost Type B;fontSize=16;strokeColor=#000000;fontStyle=2;fontSource=https%3A%2F%2Ffonts.googleapis.com%2Fcss%3Ffamily%3DGost%2BType%2BB;" vertex="1" parent="1">
          <mxGeometry x="479.3380000000023" y="642.4550000000003" width="90.551" height="19.685" as="geometry" />
        </mxCell>
        <mxCell id="0Ov8n9n56HKdVS319JqA-387" value="№ докум." style="rounded=0;whiteSpace=wrap;html=1;strokeWidth=1;fillColor=none;fontFamily=Gost Type B;fontStyle=2;fontSize=16;strokeColor=#000000;fontSource=https%3A%2F%2Ffonts.googleapis.com%2Fcss%3Ffamily%3DGost%2BType%2BB;" vertex="1" parent="1">
          <mxGeometry x="479.33500000000237" y="662.1420000000002" width="90.551" height="19.685" as="geometry" />
        </mxCell>
        <mxCell id="0Ov8n9n56HKdVS319JqA-388" value="" style="rounded=0;whiteSpace=wrap;html=1;strokeWidth=1;fillColor=none;fontFamily=Gost Type B;fontSize=16;strokeColor=#000000;fontStyle=2;fontSource=https%3A%2F%2Ffonts.googleapis.com%2Fcss%3Ffamily%3DGost%2BType%2BB;" vertex="1" parent="1">
          <mxGeometry x="569.8910000000013" y="583.3980000000001" width="59.055" height="19.685" as="geometry" />
        </mxCell>
        <mxCell id="0Ov8n9n56HKdVS319JqA-389" value="" style="rounded=0;whiteSpace=wrap;html=1;strokeWidth=1;fillColor=none;fontFamily=Gost Type B;fontSize=16;strokeColor=#000000;fontStyle=2;fontSource=https%3A%2F%2Ffonts.googleapis.com%2Fcss%3Ffamily%3DGost%2BType%2BB;" vertex="1" parent="1">
          <mxGeometry x="569.8880000000014" y="603.0850000000002" width="59.055" height="19.685" as="geometry" />
        </mxCell>
        <mxCell id="0Ov8n9n56HKdVS319JqA-390" value="" style="rounded=0;whiteSpace=wrap;html=1;strokeWidth=1;fillColor=none;fontFamily=Gost Type B;fontSize=16;strokeColor=#000000;fontStyle=2;fontSource=https%3A%2F%2Ffonts.googleapis.com%2Fcss%3Ffamily%3DGost%2BType%2BB;" vertex="1" parent="1">
          <mxGeometry x="569.8980000000014" y="622.7650000000001" width="59.055" height="19.685" as="geometry" />
        </mxCell>
        <mxCell id="0Ov8n9n56HKdVS319JqA-391" value="" style="rounded=0;whiteSpace=wrap;html=1;strokeWidth=1;fillColor=none;fontFamily=Gost Type B;fontSize=16;strokeColor=#000000;fontStyle=2;fontSource=https%3A%2F%2Ffonts.googleapis.com%2Fcss%3Ffamily%3DGost%2BType%2BB;" vertex="1" parent="1">
          <mxGeometry x="569.8950000000015" y="642.4520000000002" width="59.055" height="19.685" as="geometry" />
        </mxCell>
        <mxCell id="0Ov8n9n56HKdVS319JqA-392" value="Подп." style="rounded=0;whiteSpace=wrap;html=1;strokeWidth=1;fillColor=none;fontFamily=Gost Type B;fontStyle=2;fontSize=16;strokeColor=#000000;fontSource=https%3A%2F%2Ffonts.googleapis.com%2Fcss%3Ffamily%3DGost%2BType%2BB;" vertex="1" parent="1">
          <mxGeometry x="569.8920000000015" y="662.1390000000001" width="59.055" height="19.685" as="geometry" />
        </mxCell>
        <mxCell id="0Ov8n9n56HKdVS319JqA-393" value="" style="rounded=0;whiteSpace=wrap;html=1;strokeWidth=1;fillColor=none;fontFamily=Gost Type B;fontSize=16;strokeColor=#000000;fontStyle=2;fontSource=https%3A%2F%2Ffonts.googleapis.com%2Fcss%3Ffamily%3DGost%2BType%2BB;" vertex="1" parent="1">
          <mxGeometry x="569.8980000000014" y="681.815" width="59.055" height="19.685" as="geometry" />
        </mxCell>
        <mxCell id="0Ov8n9n56HKdVS319JqA-394" value="" style="rounded=0;whiteSpace=wrap;html=1;strokeWidth=1;fillColor=none;fontFamily=Gost Type B;fontSize=16;strokeColor=#000000;fontStyle=2;fontSource=https%3A%2F%2Ffonts.googleapis.com%2Fcss%3Ffamily%3DGost%2BType%2BB;" vertex="1" parent="1">
          <mxGeometry x="569.8950000000015" y="701.5020000000002" width="59.055" height="19.685" as="geometry" />
        </mxCell>
        <mxCell id="0Ov8n9n56HKdVS319JqA-395" value="" style="rounded=0;whiteSpace=wrap;html=1;strokeWidth=1;fillColor=none;fontFamily=Gost Type B;fontSize=16;strokeColor=#000000;fontStyle=2;fontSource=https%3A%2F%2Ffonts.googleapis.com%2Fcss%3Ffamily%3DGost%2BType%2BB;" vertex="1" parent="1">
          <mxGeometry x="569.9050000000015" y="721.182" width="59.055" height="19.685" as="geometry" />
        </mxCell>
        <mxCell id="0Ov8n9n56HKdVS319JqA-396" value="" style="rounded=0;whiteSpace=wrap;html=1;strokeWidth=1;fillColor=none;fontFamily=Gost Type B;fontSize=16;strokeColor=#000000;fontStyle=2;fontSource=https%3A%2F%2Ffonts.googleapis.com%2Fcss%3Ffamily%3DGost%2BType%2BB;" vertex="1" parent="1">
          <mxGeometry x="569.9020000000015" y="740.8690000000001" width="59.055" height="19.685" as="geometry" />
        </mxCell>
        <mxCell id="0Ov8n9n56HKdVS319JqA-397" value="" style="rounded=0;whiteSpace=wrap;html=1;strokeWidth=1;fillColor=none;fontFamily=Gost Type B;fontSize=16;strokeColor=#000000;fontStyle=2;fontSource=https%3A%2F%2Ffonts.googleapis.com%2Fcss%3Ffamily%3DGost%2BType%2BB;" vertex="1" parent="1">
          <mxGeometry x="569.8990000000014" y="760.556" width="59.055" height="19.685" as="geometry" />
        </mxCell>
        <mxCell id="0Ov8n9n56HKdVS319JqA-398" value="" style="rounded=0;whiteSpace=wrap;html=1;strokeWidth=1;fillColor=none;fontFamily=Gost Type B;fontSize=16;strokeColor=#000000;fontStyle=2;fontSource=https%3A%2F%2Ffonts.googleapis.com%2Fcss%3Ffamily%3DGost%2BType%2BB;" vertex="1" parent="1">
          <mxGeometry x="628.9649999999998" y="583.4019999999999" width="39.37" height="19.685" as="geometry" />
        </mxCell>
        <mxCell id="0Ov8n9n56HKdVS319JqA-399" value="" style="rounded=0;whiteSpace=wrap;html=1;strokeWidth=1;fillColor=none;fontFamily=Gost Type B;fontSize=16;strokeColor=#000000;fontStyle=2;fontSource=https%3A%2F%2Ffonts.googleapis.com%2Fcss%3Ffamily%3DGost%2BType%2BB;" vertex="1" parent="1">
          <mxGeometry x="628.9619999999996" y="603.089" width="39.37" height="19.685" as="geometry" />
        </mxCell>
        <mxCell id="0Ov8n9n56HKdVS319JqA-400" value="" style="rounded=0;whiteSpace=wrap;html=1;strokeWidth=1;fillColor=none;fontFamily=Gost Type B;fontSize=16;strokeColor=#000000;fontStyle=2;fontSource=https%3A%2F%2Ffonts.googleapis.com%2Fcss%3Ffamily%3DGost%2BType%2BB;" vertex="1" parent="1">
          <mxGeometry x="628.9719999999996" y="622.7689999999999" width="39.37" height="19.685" as="geometry" />
        </mxCell>
        <mxCell id="0Ov8n9n56HKdVS319JqA-401" value="" style="rounded=0;whiteSpace=wrap;html=1;strokeWidth=1;fillColor=none;fontFamily=Gost Type B;fontSize=16;strokeColor=#000000;fontStyle=2;fontSource=https%3A%2F%2Ffonts.googleapis.com%2Fcss%3Ffamily%3DGost%2BType%2BB;" vertex="1" parent="1">
          <mxGeometry x="628.9689999999997" y="642.456" width="39.37" height="19.685" as="geometry" />
        </mxCell>
        <mxCell id="0Ov8n9n56HKdVS319JqA-402" value="Дата" style="rounded=0;whiteSpace=wrap;html=1;strokeWidth=1;fillColor=none;fontFamily=Gost Type B;fontStyle=2;fontSize=16;strokeColor=#000000;fontSource=https%3A%2F%2Ffonts.googleapis.com%2Fcss%3Ffamily%3DGost%2BType%2BB;" vertex="1" parent="1">
          <mxGeometry x="628.9659999999998" y="662.1429999999999" width="39.37" height="19.685" as="geometry" />
        </mxCell>
        <mxCell id="0Ov8n9n56HKdVS319JqA-403" value="" style="rounded=0;whiteSpace=wrap;html=1;strokeWidth=1;fillColor=none;fontFamily=Gost Type B;fontSize=16;strokeColor=#000000;fontStyle=2;fontSource=https%3A%2F%2Ffonts.googleapis.com%2Fcss%3Ffamily%3DGost%2BType%2BB;" vertex="1" parent="1">
          <mxGeometry x="628.9789999999997" y="721.1759999999999" width="39.37" height="19.685" as="geometry" />
        </mxCell>
        <mxCell id="0Ov8n9n56HKdVS319JqA-404" value="" style="rounded=0;whiteSpace=wrap;html=1;strokeWidth=1;fillColor=none;fontFamily=Gost Type B;fontSize=16;strokeColor=#000000;fontStyle=2;fontSource=https%3A%2F%2Ffonts.googleapis.com%2Fcss%3Ffamily%3DGost%2BType%2BB;" vertex="1" parent="1">
          <mxGeometry x="628.9759999999998" y="740.863" width="39.37" height="19.685" as="geometry" />
        </mxCell>
        <mxCell id="0Ov8n9n56HKdVS319JqA-405" value="" style="rounded=0;whiteSpace=wrap;html=1;strokeWidth=1;fillColor=none;fontFamily=Gost Type B;fontSize=16;strokeColor=#000000;fontStyle=2;fontSource=https%3A%2F%2Ffonts.googleapis.com%2Fcss%3Ffamily%3DGost%2BType%2BB;" vertex="1" parent="1">
          <mxGeometry x="628.9729999999998" y="760.55" width="39.37" height="19.685" as="geometry" />
        </mxCell>
        <mxCell id="0Ov8n9n56HKdVS319JqA-406" value="" style="rounded=0;whiteSpace=wrap;html=1;strokeWidth=1;fillColor=none;fontFamily=Gost Type B;fontSize=16;strokeColor=#000000;fontStyle=2;fontSource=https%3A%2F%2Ffonts.googleapis.com%2Fcss%3Ffamily%3DGost%2BType%2BB;" vertex="1" parent="1">
          <mxGeometry x="569.9260000000014" y="780.2529999999999" width="59.055" height="19.685" as="geometry" />
        </mxCell>
        <mxCell id="0Ov8n9n56HKdVS319JqA-407" value="Разраб." style="rounded=0;whiteSpace=wrap;html=1;strokeWidth=1;fillColor=none;fontFamily=Gost Type B;fontStyle=2;fontSize=16;strokeColor=#000000;fontSource=https%3A%2F%2Ffonts.googleapis.com%2Fcss%3Ffamily%3DGost%2BType%2BB;" vertex="1" parent="1">
          <mxGeometry x="412.4150000000023" y="681.8120000000001" width="66.929" height="19.685" as="geometry" />
        </mxCell>
        <mxCell id="0Ov8n9n56HKdVS319JqA-408" value="Проверил" style="rounded=0;whiteSpace=wrap;html=1;strokeWidth=1;fillColor=none;fontFamily=Gost Type B;fontStyle=2;fontSize=16;strokeColor=#000000;fontSource=https%3A%2F%2Ffonts.googleapis.com%2Fcss%3Ffamily%3DGost%2BType%2BB;" vertex="1" parent="1">
          <mxGeometry x="412.3820000000023" y="701.499" width="66.929" height="19.685" as="geometry" />
        </mxCell>
        <mxCell id="0Ov8n9n56HKdVS319JqA-409" value="Т. контр." style="rounded=0;whiteSpace=wrap;html=1;strokeWidth=1;fillColor=none;fontFamily=Gost Type B;fontStyle=2;fontSize=16;strokeColor=#000000;fontSource=https%3A%2F%2Ffonts.googleapis.com%2Fcss%3Ffamily%3DGost%2BType%2BB;" vertex="1" parent="1">
          <mxGeometry x="412.37900000000224" y="721.1859999999999" width="66.929" height="19.685" as="geometry" />
        </mxCell>
        <mxCell id="0Ov8n9n56HKdVS319JqA-410" value="" style="rounded=0;whiteSpace=wrap;html=1;strokeWidth=1;fillColor=none;fontFamily=Gost Type B;fontStyle=2;fontSize=16;strokeColor=#000000;fontSource=https%3A%2F%2Ffonts.googleapis.com%2Fcss%3Ffamily%3DGost%2BType%2BB;" vertex="1" parent="1">
          <mxGeometry x="412.41600000000227" y="740.8729999999998" width="66.929" height="19.685" as="geometry" />
        </mxCell>
        <mxCell id="0Ov8n9n56HKdVS319JqA-411" value="Н. контр." style="rounded=0;whiteSpace=wrap;html=1;strokeWidth=1;fillColor=none;fontFamily=Gost Type B;fontStyle=2;fontSize=16;strokeColor=#000000;fontSource=https%3A%2F%2Ffonts.googleapis.com%2Fcss%3Ffamily%3DGost%2BType%2BB;" vertex="1" parent="1">
          <mxGeometry x="412.4130000000022" y="760.5699999999997" width="66.929" height="19.685" as="geometry" />
        </mxCell>
        <mxCell id="0Ov8n9n56HKdVS319JqA-412" value="Утв." style="rounded=0;whiteSpace=wrap;html=1;strokeWidth=1;fillColor=none;fontFamily=Gost Type B;fontStyle=2;fontSize=16;strokeColor=#000000;fontSource=https%3A%2F%2Ffonts.googleapis.com%2Fcss%3Ffamily%3DGost%2BType%2BB;" vertex="1" parent="1">
          <mxGeometry x="412.4200000000023" y="780.2569999999996" width="66.929" height="19.685" as="geometry" />
        </mxCell>
        <object placeholders="1" placeholder="Designer" label="&lt;font style=&quot;font-size: 14px;&quot;&gt;Смородина М.В.&lt;/font&gt;" id="0Ov8n9n56HKdVS319JqA-413">
          <mxCell style="rounded=0;whiteSpace=wrap;html=1;strokeWidth=1;fillColor=none;fontFamily=Gost Type B;fontSize=16;strokeColor=#000000;fontStyle=2;align=left;fontSource=https%3A%2F%2Ffonts.googleapis.com%2Fcss%3Ffamily%3DGost%2BType%2BB;" vertex="1" parent="1">
            <mxGeometry x="479.37" y="681.83" width="90.63" height="19.68" as="geometry" />
          </mxCell>
        </object>
        <mxCell id="0Ov8n9n56HKdVS319JqA-414" value="" style="rounded=0;whiteSpace=wrap;html=1;strokeWidth=1;fillColor=none;fontFamily=Gost Type B;fontSize=16;strokeColor=#000000;fontStyle=2;fontSource=https%3A%2F%2Ffonts.googleapis.com%2Fcss%3Ffamily%3DGost%2BType%2BB;" vertex="1" parent="1">
          <mxGeometry x="479.3290000000025" y="740.886" width="90.551" height="19.685" as="geometry" />
        </mxCell>
        <mxCell id="0Ov8n9n56HKdVS319JqA-415" value="" style="rounded=0;whiteSpace=wrap;html=1;strokeWidth=1;fillColor=none;fontFamily=Gost Type B;fontSize=16;strokeColor=#000000;fontStyle=2;fontSource=https%3A%2F%2Ffonts.googleapis.com%2Fcss%3Ffamily%3DGost%2BType%2BB;" vertex="1" parent="1">
          <mxGeometry x="479.2920000000025" y="721.1990000000001" width="90.551" height="19.685" as="geometry" />
        </mxCell>
        <object placeholders="1" placeholder="Checker" label="&lt;font style=&quot;font-size: 14px;&quot;&gt;Трамов И.Б.&lt;/font&gt;" id="0Ov8n9n56HKdVS319JqA-416">
          <mxCell style="rounded=0;whiteSpace=wrap;html=1;strokeWidth=1;fillColor=none;fontFamily=Gost Type B;fontSize=16;strokeColor=#000000;fontStyle=2;align=left;fontSource=https%3A%2F%2Ffonts.googleapis.com%2Fcss%3Ffamily%3DGost%2BType%2BB;" vertex="1" parent="1">
            <mxGeometry x="479.2950000000024" y="701.5120000000002" width="90.551" height="19.685" as="geometry" />
          </mxCell>
        </object>
        <mxCell id="0Ov8n9n56HKdVS319JqA-417" value="" style="rounded=0;whiteSpace=wrap;html=1;strokeWidth=1;fillColor=none;fontFamily=Gost Type B;fontSize=16;strokeColor=#000000;fontStyle=2;fontSource=https%3A%2F%2Ffonts.googleapis.com%2Fcss%3Ffamily%3DGost%2BType%2BB;" vertex="1" parent="1">
          <mxGeometry x="479.3690000000025" y="760.546" width="90.551" height="19.685" as="geometry" />
        </mxCell>
        <object placeholders="1" placeholder="BlueprintName" label="&lt;font style=&quot;font-size: 28px;&quot;&gt;Модуль хэширования данных&lt;/font&gt;" id="0Ov8n9n56HKdVS319JqA-418">
          <mxCell style="rounded=0;whiteSpace=wrap;html=1;strokeWidth=1;fillColor=none;fontFamily=Gost Type B;fontSize=16;strokeColor=#000000;fontStyle=2;fontSource=https%3A%2F%2Ffonts.googleapis.com%2Fcss%3Ffamily%3DGost%2BType%2BB;" vertex="1" parent="1">
            <mxGeometry x="668.3479999999985" y="583.4050000000002" width="472.44" height="59.055" as="geometry" />
          </mxCell>
        </object>
        <object placeholders="1" placeholder="ProductName" label="&lt;font style=&quot;font-size: 24px;&quot;&gt;Схема электрическая функциональная&lt;/font&gt;" id="0Ov8n9n56HKdVS319JqA-419">
          <mxCell style="rounded=0;whiteSpace=wrap;html=1;strokeWidth=1;fillColor=none;fontFamily=Gost Type B;fontSize=16;strokeColor=#000000;fontStyle=2;fontSource=https%3A%2F%2Ffonts.googleapis.com%2Fcss%3Ffamily%3DGost%2BType%2BB;" vertex="1" parent="1">
            <mxGeometry x="668.3449999999985" y="642.4320000000002" width="275.59" height="98.425" as="geometry" />
          </mxCell>
        </object>
        <object placeholders="1" placeholder="Manufacturer" label="МГТУ им Н.Э. Баумана&lt;br style=&quot;border-color: var(--border-color);&quot;&gt;Группа ИУ6-74Б" id="0Ov8n9n56HKdVS319JqA-420">
          <mxCell style="rounded=0;whiteSpace=wrap;html=1;strokeWidth=1;fillColor=none;fontFamily=Gost Type B;fontSize=16;strokeColor=#000000;fontStyle=2;fontSource=https%3A%2F%2Ffonts.googleapis.com%2Fcss%3Ffamily%3DGost%2BType%2BB;" vertex="1" parent="1">
            <mxGeometry x="943.9389999999906" y="740.886" width="196.85" height="59.055" as="geometry" />
          </mxCell>
        </object>
        <object label="Лист 1" placeholders="1" id="0Ov8n9n56HKdVS319JqA-421">
          <mxCell style="rounded=0;whiteSpace=wrap;html=1;strokeWidth=1;fillColor=none;fontFamily=Gost Type B;fontStyle=2;fontSize=16;strokeColor=#000000;fontSource=https%3A%2F%2Ffonts.googleapis.com%2Fcss%3Ffamily%3DGost%2BType%2BB;" vertex="1" parent="1">
            <mxGeometry x="943.9359999999907" y="721.1629999999998" width="78.74" height="19.685" as="geometry" />
          </mxCell>
        </object>
        <mxCell id="0Ov8n9n56HKdVS319JqA-422" value="Листов 1" style="rounded=0;whiteSpace=wrap;html=1;strokeWidth=1;fillColor=none;fontFamily=Gost Type B;fontStyle=2;fontSize=16;strokeColor=#000000;fontSource=https%3A%2F%2Ffonts.googleapis.com%2Fcss%3Ffamily%3DGost%2BType%2BB;" vertex="1" parent="1">
          <mxGeometry x="1022.6129999999883" y="721.1999999999996" width="118.11" height="19.685" as="geometry" />
        </mxCell>
        <mxCell id="0Ov8n9n56HKdVS319JqA-423" value="Масштаб" style="rounded=0;whiteSpace=wrap;html=1;strokeWidth=1;fillColor=none;fontFamily=Gost Type B;fontStyle=2;fontSize=16;strokeColor=#000000;fontSource=https%3A%2F%2Ffonts.googleapis.com%2Fcss%3Ffamily%3DGost%2BType%2BB;" vertex="1" parent="1">
          <mxGeometry x="1069.919999999987" y="642.4369999999994" width="70.866" height="19.685" as="geometry" />
        </mxCell>
        <mxCell id="0Ov8n9n56HKdVS319JqA-424" value="Масса" style="rounded=0;whiteSpace=wrap;html=1;strokeWidth=1;fillColor=none;fontFamily=Gost Type B;fontStyle=2;fontSize=16;strokeColor=#000000;fontSource=https%3A%2F%2Ffonts.googleapis.com%2Fcss%3Ffamily%3DGost%2BType%2BB;" vertex="1" parent="1">
          <mxGeometry x="1002.986999999989" y="642.4639999999995" width="66.929" height="19.685" as="geometry" />
        </mxCell>
        <mxCell id="0Ov8n9n56HKdVS319JqA-425" value="Лит." style="rounded=0;whiteSpace=wrap;html=1;strokeWidth=1;fillColor=none;fontFamily=Gost Type B;fontStyle=2;fontSize=16;strokeColor=#000000;fontSource=https%3A%2F%2Ffonts.googleapis.com%2Fcss%3Ffamily%3DGost%2BType%2BB;" vertex="1" parent="1">
          <mxGeometry x="943.9339999999908" y="642.4309999999995" width="59.055" height="19.685" as="geometry" />
        </mxCell>
        <mxCell id="0Ov8n9n56HKdVS319JqA-426" value="" style="rounded=0;whiteSpace=wrap;html=1;strokeWidth=1;fillColor=none;fontFamily=Gost Type B;strokeColor=#000000;fontStyle=2;fontSource=https%3A%2F%2Ffonts.googleapis.com%2Fcss%3Ffamily%3DGost%2BType%2BB;fontSize=16;" vertex="1" parent="1">
          <mxGeometry x="943.9009999999906" y="662.1479999999995" width="59.055" height="59.055" as="geometry" />
        </mxCell>
        <mxCell id="0Ov8n9n56HKdVS319JqA-427" value="" style="rounded=0;whiteSpace=wrap;html=1;strokeWidth=1;fillColor=none;fontFamily=Gost Type B;strokeColor=#000000;fontStyle=2;fontSource=https%3A%2F%2Ffonts.googleapis.com%2Fcss%3Ffamily%3DGost%2BType%2BB;fontSize=16;" vertex="1" parent="1">
          <mxGeometry x="1002.9939999999891" y="662.1109999999995" width="66.929" height="59.055" as="geometry" />
        </mxCell>
        <object placeholders="1" placeholder="Scale" label="&lt;font style=&quot;font-size: 18px;&quot;&gt;1:1&lt;/font&gt;" id="0Ov8n9n56HKdVS319JqA-428">
          <mxCell style="rounded=0;whiteSpace=wrap;html=1;strokeWidth=1;fillColor=none;fontFamily=Gost Type B;fontSize=16;strokeColor=#000000;fontStyle=2;fontSource=https%3A%2F%2Ffonts.googleapis.com%2Fcss%3Ffamily%3DGost%2BType%2BB;" vertex="1" parent="1">
            <mxGeometry x="1069.8569999999872" y="662.1139999999995" width="70.866" height="59.055" as="geometry" />
          </mxCell>
        </object>
        <mxCell id="0Ov8n9n56HKdVS319JqA-429" value="" style="rounded=0;whiteSpace=wrap;html=1;strokeWidth=1;fillColor=none;fontFamily=Gost Type B;strokeColor=#000000;fontStyle=2;fontSource=https%3A%2F%2Ffonts.googleapis.com%2Fcss%3Ffamily%3DGost%2BType%2BB;fontSize=16;" vertex="1" parent="1">
          <mxGeometry x="943.9379999999907" y="662.1049999999994" width="19.685" height="59.055" as="geometry" />
        </mxCell>
        <mxCell id="0Ov8n9n56HKdVS319JqA-430" value="" style="rounded=0;whiteSpace=wrap;html=1;strokeWidth=1;fillColor=none;fontFamily=Gost Type B;strokeColor=#000000;fontStyle=2;fontSource=https%3A%2F%2Ffonts.googleapis.com%2Fcss%3Ffamily%3DGost%2BType%2BB;fontSize=16;" vertex="1" parent="1">
          <mxGeometry x="963.5849999999901" y="662.1519999999995" width="19.685" height="59.055" as="geometry" />
        </mxCell>
        <mxCell id="0Ov8n9n56HKdVS319JqA-431" value="" style="rounded=0;whiteSpace=wrap;html=1;strokeWidth=1;fillColor=none;fontFamily=Gost Type B;strokeColor=#000000;fontStyle=2;fontSource=https%3A%2F%2Ffonts.googleapis.com%2Fcss%3Ffamily%3DGost%2BType%2BB;fontSize=16;" vertex="1" parent="1">
          <mxGeometry x="983.3119999999896" y="662.1489999999994" width="19.685" height="59.055" as="geometry" />
        </mxCell>
        <mxCell id="0Ov8n9n56HKdVS319JqA-432" value="Копировал" style="text;html=1;strokeColor=none;fillColor=none;align=center;verticalAlign=middle;whiteSpace=wrap;rounded=0;fontFamily=Gost Type B;fontSize=16;fontStyle=2;fontSource=https%3A%2F%2Ffonts.googleapis.com%2Fcss%3Ffamily%3DGost%2BType%2BB;" vertex="1" parent="1">
          <mxGeometry x="668.3129999999986" y="798.0400000000002" width="144.64" height="20" as="geometry" />
        </mxCell>
        <mxCell id="0Ov8n9n56HKdVS319JqA-433" value="Формат А3" style="text;html=1;strokeColor=none;fillColor=none;align=center;verticalAlign=middle;whiteSpace=wrap;rounded=0;fontFamily=Gost Type B;fontSize=16;fontStyle=2;fontSource=https%3A%2F%2Ffonts.googleapis.com%2Fcss%3Ffamily%3DGost%2BType%2BB;" vertex="1" parent="1">
          <mxGeometry x="942.88" y="798.0400000000001" width="197.9" height="20" as="geometry" />
        </mxCell>
        <object placeholder="BlueprintName" placeholders="1" id="0Ov8n9n56HKdVS319JqA-434">
          <mxCell style="rounded=0;whiteSpace=wrap;html=1;strokeWidth=1;fillColor=none;strokeColor=#000000;fontFamily=Gost Type B;fontSize=16;rotation=-180;fontStyle=2;fontSource=https%3A%2F%2Ffonts.googleapis.com%2Fcss%3Ffamily%3DGost%2BType%2BB;" vertex="1" parent="1">
            <mxGeometry x="-372.0700000000001" y="-314.96" width="275.59" height="55.117999999999995" as="geometry" />
          </mxCell>
        </object>
        <mxCell id="0Ov8n9n56HKdVS319JqA-435" value="" style="rounded=0;whiteSpace=wrap;html=1;fillColor=none;rotation=-90;fontStyle=2;fontFamily=Gost Type B;fontSource=https%3A%2F%2Ffonts.googleapis.com%2Fcss%3Ffamily%3DGost%2BType%2BB;fontSize=16;" vertex="1" parent="1">
          <mxGeometry x="-472.50000000000017" y="-269.65000000000003" width="145.43" height="55" as="geometry" />
        </mxCell>
        <mxCell id="0Ov8n9n56HKdVS319JqA-436" value="Перв. примен." style="rounded=0;whiteSpace=wrap;html=1;fillColor=none;rotation=-90;fontStyle=2;fontFamily=Gost Type B;fontSource=https%3A%2F%2Ffonts.googleapis.com%2Fcss%3Ffamily%3DGost%2BType%2BB;fontSize=16;" vertex="1" parent="1">
          <mxGeometry x="-490.13000000000005" y="-252.02999999999997" width="145.43" height="20" as="geometry" />
        </mxCell>
        <mxCell id="0Ov8n9n56HKdVS319JqA-437" value="" style="rounded=0;whiteSpace=wrap;html=1;fillColor=none;rotation=-90;fontStyle=2;fontFamily=Gost Type B;fontSource=https%3A%2F%2Ffonts.googleapis.com%2Fcss%3Ffamily%3DGost%2BType%2BB;fontSize=16;" vertex="1" parent="1">
          <mxGeometry x="-462.16" y="-134.32999999999998" width="124.74" height="55" as="geometry" />
        </mxCell>
        <mxCell id="0Ov8n9n56HKdVS319JqA-438" value="Справ. №" style="rounded=0;whiteSpace=wrap;html=1;fillColor=none;rotation=-90;fontStyle=2;fontFamily=Gost Type B;fontSource=https%3A%2F%2Ffonts.googleapis.com%2Fcss%3Ffamily%3DGost%2BType%2BB;fontSize=16;" vertex="1" parent="1">
          <mxGeometry x="-479.86000000000007" y="-116.63999999999999" width="124.88" height="20" as="geometry" />
        </mxCell>
        <mxCell id="0Ov8n9n56HKdVS319JqA-439" value="" style="rounded=0;whiteSpace=wrap;html=1;fillColor=none;rotation=-90;fontStyle=2;fontFamily=Gost Type B;fontSource=https%3A%2F%2Ffonts.googleapis.com%2Fcss%3Ffamily%3DGost%2BType%2BB;fontSize=16;" vertex="1" parent="1">
          <mxGeometry x="-444.17000000000013" y="727.2600000000001" width="90" height="55" as="geometry" />
        </mxCell>
        <mxCell id="0Ov8n9n56HKdVS319JqA-440" value="&lt;font style=&quot;font-size: 12px;&quot;&gt;Инв. № подл.&lt;/font&gt;" style="rounded=0;whiteSpace=wrap;html=1;fillColor=none;rotation=-90;fontStyle=2;fontFamily=Gost Type B;fontSource=https%3A%2F%2Ffonts.googleapis.com%2Fcss%3Ffamily%3DGost%2BType%2BB;fontSize=16;" vertex="1" parent="1">
          <mxGeometry x="-461.81" y="744.7599999999999" width="90" height="20" as="geometry" />
        </mxCell>
        <mxCell id="0Ov8n9n56HKdVS319JqA-441" value="" style="rounded=0;whiteSpace=wrap;html=1;fillColor=none;rotation=-90;fontStyle=2;fontFamily=Gost Type B;fontSource=https%3A%2F%2Ffonts.googleapis.com%2Fcss%3Ffamily%3DGost%2BType%2BB;fontSize=16;" vertex="1" parent="1">
          <mxGeometry x="-443.9800000000001" y="636.9300000000001" width="90" height="55" as="geometry" />
        </mxCell>
        <mxCell id="0Ov8n9n56HKdVS319JqA-442" value="&lt;font style=&quot;font-size: 12px;&quot;&gt;Подп. и дата&lt;/font&gt;" style="rounded=0;whiteSpace=wrap;html=1;fillColor=none;rotation=-90;fontStyle=2;fontFamily=Gost Type B;fontSource=https%3A%2F%2Ffonts.googleapis.com%2Fcss%3Ffamily%3DGost%2BType%2BB;fontSize=16;" vertex="1" parent="1">
          <mxGeometry x="-461.81" y="654.43" width="90" height="20" as="geometry" />
        </mxCell>
        <mxCell id="0Ov8n9n56HKdVS319JqA-443" value="" style="rounded=0;whiteSpace=wrap;html=1;fillColor=none;rotation=-90;fontStyle=2;fontFamily=Gost Type B;fontSource=https%3A%2F%2Ffonts.googleapis.com%2Fcss%3Ffamily%3DGost%2BType%2BB;fontSize=16;" vertex="1" parent="1">
          <mxGeometry x="-443.983" y="546.3770000000002" width="90" height="55" as="geometry" />
        </mxCell>
        <mxCell id="0Ov8n9n56HKdVS319JqA-444" value="&lt;font style=&quot;font-size: 12px;&quot;&gt;Взам. инв. №&lt;/font&gt;" style="rounded=0;whiteSpace=wrap;html=1;fillColor=none;rotation=-90;fontStyle=2;fontFamily=Gost Type B;fontSource=https%3A%2F%2Ffonts.googleapis.com%2Fcss%3Ffamily%3DGost%2BType%2BB;fontSize=16;" vertex="1" parent="1">
          <mxGeometry x="-461.81300000000016" y="563.877" width="90" height="20" as="geometry" />
        </mxCell>
        <mxCell id="0Ov8n9n56HKdVS319JqA-445" value="" style="rounded=0;whiteSpace=wrap;html=1;fillColor=none;rotation=-90;fontStyle=2;fontFamily=Gost Type B;fontSource=https%3A%2F%2Ffonts.googleapis.com%2Fcss%3Ffamily%3DGost%2BType%2BB;fontSize=16;" vertex="1" parent="1">
          <mxGeometry x="-443.98600000000016" y="456.8340000000001" width="90" height="55" as="geometry" />
        </mxCell>
        <mxCell id="0Ov8n9n56HKdVS319JqA-446" value="&lt;font style=&quot;font-size: 12px;&quot;&gt;Инв. № дубл.&lt;/font&gt;" style="rounded=0;whiteSpace=wrap;html=1;fillColor=none;rotation=-90;fontStyle=2;fontFamily=Gost Type B;fontSource=https%3A%2F%2Ffonts.googleapis.com%2Fcss%3Ffamily%3DGost%2BType%2BB;fontSize=16;" vertex="1" parent="1">
          <mxGeometry x="-461.8160000000001" y="474.3339999999999" width="90" height="20" as="geometry" />
        </mxCell>
        <mxCell id="0Ov8n9n56HKdVS319JqA-447" value="" style="rounded=0;whiteSpace=wrap;html=1;fillColor=none;rotation=-90;fontStyle=2;fontFamily=Gost Type B;fontSource=https%3A%2F%2Ffonts.googleapis.com%2Fcss%3Ffamily%3DGost%2BType%2BB;fontSize=16;" vertex="1" parent="1">
          <mxGeometry x="-443.9890000000001" y="366.2810000000001" width="90" height="55" as="geometry" />
        </mxCell>
        <mxCell id="0Ov8n9n56HKdVS319JqA-448" value="&lt;font style=&quot;font-size: 12px;&quot;&gt;Подп. и дата&lt;/font&gt;" style="rounded=0;whiteSpace=wrap;html=1;fillColor=none;rotation=-90;fontStyle=2;fontFamily=Gost Type B;fontSource=https%3A%2F%2Ffonts.googleapis.com%2Fcss%3Ffamily%3DGost%2BType%2BB;fontSize=16;" vertex="1" parent="1">
          <mxGeometry x="-461.819" y="383.7809999999999" width="90" height="20" as="geometry" />
        </mxCell>
        <mxCell id="0Ov8n9n56HKdVS319JqA-449" value="" style="rounded=0;whiteSpace=wrap;html=1;strokeWidth=1;fillColor=none;fontFamily=Gost Type B;fontSize=16;strokeColor=#000000;fontStyle=2;fontSource=https%3A%2F%2Ffonts.googleapis.com%2Fcss%3Ffamily%3DGost%2BType%2BB;" vertex="1" parent="1">
          <mxGeometry x="628.9699999999998" y="780.237" width="39.37" height="19.685" as="geometry" />
        </mxCell>
        <mxCell id="0Ov8n9n56HKdVS319JqA-450" value="" style="rounded=0;whiteSpace=wrap;html=1;strokeWidth=1;fillColor=none;fontFamily=Gost Type B;fontSize=16;strokeColor=#000000;fontStyle=2;fontSource=https%3A%2F%2Ffonts.googleapis.com%2Fcss%3Ffamily%3DGost%2BType%2BB;" vertex="1" parent="1">
          <mxGeometry x="628.9759999999997" y="701.4929999999999" width="39.37" height="19.685" as="geometry" />
        </mxCell>
        <mxCell id="0Ov8n9n56HKdVS319JqA-793" value="&lt;font style=&quot;font-size: 16px;&quot;&gt;SB2&lt;/font&gt;" style="text;html=1;strokeColor=none;fillColor=none;align=center;verticalAlign=middle;whiteSpace=wrap;rounded=0;fontStyle=2;fontFamily=Gost Type B;fontSource=https%3A%2F%2Ffonts.googleapis.com%2Fcss%3Ffamily%3DGost%2BType%2BB;fontSize=16;" vertex="1" parent="1">
          <mxGeometry x="-297.413" y="-113.713" width="60" height="30" as="geometry" />
        </mxCell>
        <mxCell id="0Ov8n9n56HKdVS319JqA-795" value="" style="endArrow=none;html=1;rounded=0;fontStyle=2;fontFamily=Gost Type B;fontSource=https%3A%2F%2Ffonts.googleapis.com%2Fcss%3Ffamily%3DGost%2BType%2BB;fontSize=16;" edge="1" parent="1">
          <mxGeometry width="50" height="50" relative="1" as="geometry">
            <mxPoint x="-292.53" y="50.98000000000003" as="sourcePoint" />
            <mxPoint x="-260.61299999999994" y="38.647000000000006" as="targetPoint" />
          </mxGeometry>
        </mxCell>
        <mxCell id="0Ov8n9n56HKdVS319JqA-796" value="" style="endArrow=none;html=1;rounded=0;fontStyle=2;fontFamily=Gost Type B;fontSource=https%3A%2F%2Ffonts.googleapis.com%2Fcss%3Ffamily%3DGost%2BType%2BB;fontSize=16;" edge="1" parent="1">
          <mxGeometry width="50" height="50" relative="1" as="geometry">
            <mxPoint x="-276.61299999999994" y="25.837" as="sourcePoint" />
            <mxPoint x="-276.61299999999994" y="11.837000000000042" as="targetPoint" />
          </mxGeometry>
        </mxCell>
        <mxCell id="0Ov8n9n56HKdVS319JqA-797" value="" style="endArrow=none;html=1;rounded=0;fontStyle=2;fontFamily=Gost Type B;fontSource=https%3A%2F%2Ffonts.googleapis.com%2Fcss%3Ffamily%3DGost%2BType%2BB;fontSize=16;" edge="1" parent="1">
          <mxGeometry width="50" height="50" relative="1" as="geometry">
            <mxPoint x="-276.61299999999994" y="44.647000000000006" as="sourcePoint" />
            <mxPoint x="-276.61299999999994" y="32.647000000000006" as="targetPoint" />
          </mxGeometry>
        </mxCell>
        <mxCell id="0Ov8n9n56HKdVS319JqA-798" value="" style="endArrow=none;html=1;rounded=0;fontStyle=2;fontFamily=Gost Type B;fontSource=https%3A%2F%2Ffonts.googleapis.com%2Fcss%3Ffamily%3DGost%2BType%2BB;fontSize=16;" edge="1" parent="1">
          <mxGeometry width="50" height="50" relative="1" as="geometry">
            <mxPoint x="-292.61299999999994" y="11.837000000000042" as="sourcePoint" />
            <mxPoint x="-260.61299999999994" y="11.837000000000042" as="targetPoint" />
          </mxGeometry>
        </mxCell>
        <mxCell id="0Ov8n9n56HKdVS319JqA-799" value="" style="endArrow=none;html=1;rounded=0;fontStyle=2;fontFamily=Gost Type B;fontSource=https%3A%2F%2Ffonts.googleapis.com%2Fcss%3Ffamily%3DGost%2BType%2BB;fontSize=16;" edge="1" parent="1">
          <mxGeometry width="50" height="50" relative="1" as="geometry">
            <mxPoint x="-260.61299999999994" y="19.836999999999986" as="sourcePoint" />
            <mxPoint x="-260.61299999999994" y="11.337000000000042" as="targetPoint" />
          </mxGeometry>
        </mxCell>
        <mxCell id="0Ov8n9n56HKdVS319JqA-800" value="" style="endArrow=none;html=1;rounded=0;fontStyle=2;fontFamily=Gost Type B;fontSource=https%3A%2F%2Ffonts.googleapis.com%2Fcss%3Ffamily%3DGost%2BType%2BB;fontSize=16;" edge="1" parent="1">
          <mxGeometry width="50" height="50" relative="1" as="geometry">
            <mxPoint x="-292.61299999999994" y="19.836999999999986" as="sourcePoint" />
            <mxPoint x="-292.61299999999994" y="11.337000000000042" as="targetPoint" />
          </mxGeometry>
        </mxCell>
        <mxCell id="0Ov8n9n56HKdVS319JqA-802" value="" style="rounded=0;whiteSpace=wrap;html=1;rotation=90;fontStyle=2;direction=south;fontFamily=Gost Type B;fontSource=https%3A%2F%2Ffonts.googleapis.com%2Fcss%3Ffamily%3DGost%2BType%2BB;fontSize=16;" vertex="1" parent="1">
          <mxGeometry x="-217.35600000000014" y="35.27999999999999" width="15.3" height="31.5" as="geometry" />
        </mxCell>
        <mxCell id="0Ov8n9n56HKdVS319JqA-803" value="" style="endArrow=none;html=1;rounded=0;entryX=1;entryY=0.5;entryDx=0;entryDy=0;fontFamily=Gost Type B;fontSource=https%3A%2F%2Ffonts.googleapis.com%2Fcss%3Ffamily%3DGost%2BType%2BB;fontSize=16;" edge="1" parent="1" target="0Ov8n9n56HKdVS319JqA-802">
          <mxGeometry width="50" height="50" relative="1" as="geometry">
            <mxPoint x="-257.5" y="50.98000000000003" as="sourcePoint" />
            <mxPoint x="-222.70999999999998" y="58.98000000000003" as="targetPoint" />
          </mxGeometry>
        </mxCell>
        <mxCell id="0Ov8n9n56HKdVS319JqA-804" value="" style="endArrow=none;html=1;rounded=0;fontFamily=Gost Type B;fontSource=https%3A%2F%2Ffonts.googleapis.com%2Fcss%3Ffamily%3DGost%2BType%2BB;fontSize=16;" edge="1" parent="1">
          <mxGeometry width="50" height="50" relative="1" as="geometry">
            <mxPoint x="-319.5" y="170.99999999999997" as="sourcePoint" />
            <mxPoint x="-292" y="50.98000000000003" as="targetPoint" />
            <Array as="points">
              <mxPoint x="-319.5" y="51.000000000000014" />
            </Array>
          </mxGeometry>
        </mxCell>
        <mxCell id="0Ov8n9n56HKdVS319JqA-805" value="&lt;font style=&quot;font-size: 16px;&quot;&gt;SB3&lt;/font&gt;" style="text;html=1;strokeColor=none;fillColor=none;align=center;verticalAlign=middle;whiteSpace=wrap;rounded=0;fontStyle=2;fontSize=16;fontFamily=Gost Type B;fontSource=https%3A%2F%2Ffonts.googleapis.com%2Fcss%3Ffamily%3DGost%2BType%2BB;" vertex="1" parent="1">
          <mxGeometry x="-296.53999999999996" y="-14.759999999999973" width="60" height="30" as="geometry" />
        </mxCell>
        <mxCell id="0Ov8n9n56HKdVS319JqA-806" value="" style="endArrow=none;html=1;rounded=0;fontStyle=2;fontFamily=Gost Type B;fontSource=https%3A%2F%2Ffonts.googleapis.com%2Fcss%3Ffamily%3DGost%2BType%2BB;fontSize=16;" edge="1" parent="1">
          <mxGeometry width="50" height="50" relative="1" as="geometry">
            <mxPoint x="-292.533" y="-47.442999999999955" as="sourcePoint" />
            <mxPoint x="-260.616" y="-59.77599999999998" as="targetPoint" />
          </mxGeometry>
        </mxCell>
        <mxCell id="0Ov8n9n56HKdVS319JqA-807" value="" style="endArrow=none;html=1;rounded=0;fontStyle=2;fontFamily=Gost Type B;fontSource=https%3A%2F%2Ffonts.googleapis.com%2Fcss%3Ffamily%3DGost%2BType%2BB;fontSize=16;" edge="1" parent="1">
          <mxGeometry width="50" height="50" relative="1" as="geometry">
            <mxPoint x="-276.616" y="-72.58600000000001" as="sourcePoint" />
            <mxPoint x="-276.616" y="-86.58599999999998" as="targetPoint" />
          </mxGeometry>
        </mxCell>
        <mxCell id="0Ov8n9n56HKdVS319JqA-808" value="" style="endArrow=none;html=1;rounded=0;fontStyle=2;fontFamily=Gost Type B;fontSource=https%3A%2F%2Ffonts.googleapis.com%2Fcss%3Ffamily%3DGost%2BType%2BB;fontSize=16;" edge="1" parent="1">
          <mxGeometry width="50" height="50" relative="1" as="geometry">
            <mxPoint x="-276.616" y="-53.77599999999997" as="sourcePoint" />
            <mxPoint x="-276.616" y="-65.77600000000001" as="targetPoint" />
          </mxGeometry>
        </mxCell>
        <mxCell id="0Ov8n9n56HKdVS319JqA-809" value="" style="endArrow=none;html=1;rounded=0;fontStyle=2;fontFamily=Gost Type B;fontSource=https%3A%2F%2Ffonts.googleapis.com%2Fcss%3Ffamily%3DGost%2BType%2BB;fontSize=16;" edge="1" parent="1">
          <mxGeometry width="50" height="50" relative="1" as="geometry">
            <mxPoint x="-292.616" y="-86.58599999999998" as="sourcePoint" />
            <mxPoint x="-260.616" y="-86.58599999999998" as="targetPoint" />
          </mxGeometry>
        </mxCell>
        <mxCell id="0Ov8n9n56HKdVS319JqA-810" value="" style="endArrow=none;html=1;rounded=0;fontStyle=2;fontFamily=Gost Type B;fontSource=https%3A%2F%2Ffonts.googleapis.com%2Fcss%3Ffamily%3DGost%2BType%2BB;fontSize=16;" edge="1" parent="1">
          <mxGeometry width="50" height="50" relative="1" as="geometry">
            <mxPoint x="-260.616" y="-78.58600000000001" as="sourcePoint" />
            <mxPoint x="-260.616" y="-87.08599999999998" as="targetPoint" />
          </mxGeometry>
        </mxCell>
        <mxCell id="0Ov8n9n56HKdVS319JqA-811" value="" style="endArrow=none;html=1;rounded=0;fontStyle=2;fontFamily=Gost Type B;fontSource=https%3A%2F%2Ffonts.googleapis.com%2Fcss%3Ffamily%3DGost%2BType%2BB;fontSize=16;" edge="1" parent="1">
          <mxGeometry width="50" height="50" relative="1" as="geometry">
            <mxPoint x="-292.616" y="-78.58600000000001" as="sourcePoint" />
            <mxPoint x="-292.616" y="-87.08599999999998" as="targetPoint" />
          </mxGeometry>
        </mxCell>
        <mxCell id="0Ov8n9n56HKdVS319JqA-813" value="" style="rounded=0;whiteSpace=wrap;html=1;rotation=90;fontStyle=2;direction=south;fontFamily=Gost Type B;fontSource=https%3A%2F%2Ffonts.googleapis.com%2Fcss%3Ffamily%3DGost%2BType%2BB;fontSize=16;" vertex="1" parent="1">
          <mxGeometry x="-217.35900000000007" y="-63.14300000000003" width="15.3" height="31.5" as="geometry" />
        </mxCell>
        <mxCell id="0Ov8n9n56HKdVS319JqA-814" value="" style="endArrow=none;html=1;rounded=0;entryX=1;entryY=0.5;entryDx=0;entryDy=0;fontFamily=Gost Type B;fontSource=https%3A%2F%2Ffonts.googleapis.com%2Fcss%3Ffamily%3DGost%2BType%2BB;fontSize=16;" edge="1" parent="1" target="0Ov8n9n56HKdVS319JqA-813">
          <mxGeometry width="50" height="50" relative="1" as="geometry">
            <mxPoint x="-257.5" y="-47.442999999999955" as="sourcePoint" />
            <mxPoint x="-222.71300000000002" y="-39.44299999999997" as="targetPoint" />
          </mxGeometry>
        </mxCell>
        <mxCell id="0Ov8n9n56HKdVS319JqA-815" value="" style="endArrow=none;html=1;rounded=0;fontFamily=Gost Type B;fontSource=https%3A%2F%2Ffonts.googleapis.com%2Fcss%3Ffamily%3DGost%2BType%2BB;fontSize=16;" edge="1" parent="1">
          <mxGeometry width="50" height="50" relative="1" as="geometry">
            <mxPoint x="-319.5" y="51.000000000000014" as="sourcePoint" />
            <mxPoint x="-292" y="-47.442999999999955" as="targetPoint" />
            <Array as="points">
              <mxPoint x="-319.5" y="-47" />
            </Array>
          </mxGeometry>
        </mxCell>
        <mxCell id="0Ov8n9n56HKdVS319JqA-816" value="" style="endArrow=none;html=1;rounded=0;fontStyle=2;fontFamily=Gost Type B;fontSource=https%3A%2F%2Ffonts.googleapis.com%2Fcss%3Ffamily%3DGost%2BType%2BB;fontSize=16;" edge="1" parent="1">
          <mxGeometry width="50" height="50" relative="1" as="geometry">
            <mxPoint x="-292.52599999999995" y="169.09399999999997" as="sourcePoint" />
            <mxPoint x="-260.6089999999999" y="156.761" as="targetPoint" />
          </mxGeometry>
        </mxCell>
        <mxCell id="0Ov8n9n56HKdVS319JqA-817" value="" style="endArrow=none;html=1;rounded=0;fontStyle=2;fontFamily=Gost Type B;fontSource=https%3A%2F%2Ffonts.googleapis.com%2Fcss%3Ffamily%3DGost%2BType%2BB;fontSize=16;" edge="1" parent="1">
          <mxGeometry width="50" height="50" relative="1" as="geometry">
            <mxPoint x="-276.6089999999999" y="143.95100000000005" as="sourcePoint" />
            <mxPoint x="-276.6089999999999" y="129.95100000000005" as="targetPoint" />
          </mxGeometry>
        </mxCell>
        <mxCell id="0Ov8n9n56HKdVS319JqA-818" value="" style="endArrow=none;html=1;rounded=0;fontStyle=2;fontFamily=Gost Type B;fontSource=https%3A%2F%2Ffonts.googleapis.com%2Fcss%3Ffamily%3DGost%2BType%2BB;fontSize=16;" edge="1" parent="1">
          <mxGeometry width="50" height="50" relative="1" as="geometry">
            <mxPoint x="-276.6089999999999" y="162.761" as="sourcePoint" />
            <mxPoint x="-276.6089999999999" y="150.761" as="targetPoint" />
          </mxGeometry>
        </mxCell>
        <mxCell id="0Ov8n9n56HKdVS319JqA-819" value="" style="endArrow=none;html=1;rounded=0;fontStyle=2;fontFamily=Gost Type B;fontSource=https%3A%2F%2Ffonts.googleapis.com%2Fcss%3Ffamily%3DGost%2BType%2BB;fontSize=16;" edge="1" parent="1">
          <mxGeometry width="50" height="50" relative="1" as="geometry">
            <mxPoint x="-292.6089999999999" y="129.95100000000005" as="sourcePoint" />
            <mxPoint x="-260.6089999999999" y="129.95100000000005" as="targetPoint" />
          </mxGeometry>
        </mxCell>
        <mxCell id="0Ov8n9n56HKdVS319JqA-820" value="" style="endArrow=none;html=1;rounded=0;fontStyle=2;fontFamily=Gost Type B;fontSource=https%3A%2F%2Ffonts.googleapis.com%2Fcss%3Ffamily%3DGost%2BType%2BB;fontSize=16;" edge="1" parent="1">
          <mxGeometry width="50" height="50" relative="1" as="geometry">
            <mxPoint x="-260.6089999999999" y="137.95100000000005" as="sourcePoint" />
            <mxPoint x="-260.6089999999999" y="129.45100000000005" as="targetPoint" />
          </mxGeometry>
        </mxCell>
        <mxCell id="0Ov8n9n56HKdVS319JqA-821" value="" style="endArrow=none;html=1;rounded=0;fontStyle=2;fontFamily=Gost Type B;fontSource=https%3A%2F%2Ffonts.googleapis.com%2Fcss%3Ffamily%3DGost%2BType%2BB;fontSize=16;" edge="1" parent="1">
          <mxGeometry width="50" height="50" relative="1" as="geometry">
            <mxPoint x="-292.6089999999999" y="137.95100000000005" as="sourcePoint" />
            <mxPoint x="-292.6089999999999" y="129.45100000000005" as="targetPoint" />
          </mxGeometry>
        </mxCell>
        <mxCell id="0Ov8n9n56HKdVS319JqA-823" value="" style="rounded=0;whiteSpace=wrap;html=1;rotation=90;fontStyle=2;direction=south;fontFamily=Gost Type B;fontSource=https%3A%2F%2Ffonts.googleapis.com%2Fcss%3Ffamily%3DGost%2BType%2BB;fontSize=16;" vertex="1" parent="1">
          <mxGeometry x="-217.35200000000012" y="153.39400000000003" width="15.3" height="31.5" as="geometry" />
        </mxCell>
        <mxCell id="0Ov8n9n56HKdVS319JqA-824" value="" style="endArrow=none;html=1;rounded=0;entryX=1;entryY=0.5;entryDx=0;entryDy=0;fontFamily=Gost Type B;fontSource=https%3A%2F%2Ffonts.googleapis.com%2Fcss%3Ffamily%3DGost%2BType%2BB;fontSize=16;" edge="1" parent="1" target="0Ov8n9n56HKdVS319JqA-823">
          <mxGeometry width="50" height="50" relative="1" as="geometry">
            <mxPoint x="-257.5" y="169.09399999999997" as="sourcePoint" />
            <mxPoint x="-222.70600000000002" y="177.09399999999997" as="targetPoint" />
          </mxGeometry>
        </mxCell>
        <mxCell id="0Ov8n9n56HKdVS319JqA-825" value="" style="endArrow=none;html=1;rounded=0;fontFamily=Gost Type B;fontSource=https%3A%2F%2Ffonts.googleapis.com%2Fcss%3Ffamily%3DGost%2BType%2BB;fontSize=16;" edge="1" parent="1">
          <mxGeometry width="50" height="50" relative="1" as="geometry">
            <mxPoint x="-319.5" y="281" as="sourcePoint" />
            <mxPoint x="-292" y="169.09399999999997" as="targetPoint" />
            <Array as="points">
              <mxPoint x="-319.5" y="168.99999999999997" />
            </Array>
          </mxGeometry>
        </mxCell>
        <mxCell id="0Ov8n9n56HKdVS319JqA-826" value="&lt;font style=&quot;font-size: 16px;&quot;&gt;SB4&lt;/font&gt;" style="text;html=1;strokeColor=none;fillColor=none;align=center;verticalAlign=middle;whiteSpace=wrap;rounded=0;fontStyle=2;fontSize=16;fontFamily=Gost Type B;fontSource=https%3A%2F%2Ffonts.googleapis.com%2Fcss%3Ffamily%3DGost%2BType%2BB;" vertex="1" parent="1">
          <mxGeometry x="-296.53599999999994" y="103.35400000000001" width="60" height="30" as="geometry" />
        </mxCell>
        <mxCell id="0Ov8n9n56HKdVS319JqA-827" value="" style="endArrow=none;html=1;rounded=0;fontStyle=2;fontFamily=Gost Type B;fontSource=https%3A%2F%2Ffonts.googleapis.com%2Fcss%3Ffamily%3DGost%2BType%2BB;fontSize=16;" edge="1" parent="1">
          <mxGeometry width="50" height="50" relative="1" as="geometry">
            <mxPoint x="-292.529" y="279.33100000000013" as="sourcePoint" />
            <mxPoint x="-260.61199999999997" y="266.99800000000016" as="targetPoint" />
          </mxGeometry>
        </mxCell>
        <mxCell id="0Ov8n9n56HKdVS319JqA-828" value="" style="endArrow=none;html=1;rounded=0;fontStyle=2;fontFamily=Gost Type B;fontSource=https%3A%2F%2Ffonts.googleapis.com%2Fcss%3Ffamily%3DGost%2BType%2BB;fontSize=16;" edge="1" parent="1">
          <mxGeometry width="50" height="50" relative="1" as="geometry">
            <mxPoint x="-276.61199999999997" y="254.188" as="sourcePoint" />
            <mxPoint x="-276.61199999999997" y="240.188" as="targetPoint" />
          </mxGeometry>
        </mxCell>
        <mxCell id="0Ov8n9n56HKdVS319JqA-829" value="" style="endArrow=none;html=1;rounded=0;fontStyle=2;fontFamily=Gost Type B;fontSource=https%3A%2F%2Ffonts.googleapis.com%2Fcss%3Ffamily%3DGost%2BType%2BB;fontSize=16;" edge="1" parent="1">
          <mxGeometry width="50" height="50" relative="1" as="geometry">
            <mxPoint x="-276.61199999999997" y="272.99800000000016" as="sourcePoint" />
            <mxPoint x="-276.61199999999997" y="260.99800000000005" as="targetPoint" />
          </mxGeometry>
        </mxCell>
        <mxCell id="0Ov8n9n56HKdVS319JqA-830" value="" style="endArrow=none;html=1;rounded=0;fontStyle=2;fontFamily=Gost Type B;fontSource=https%3A%2F%2Ffonts.googleapis.com%2Fcss%3Ffamily%3DGost%2BType%2BB;fontSize=16;" edge="1" parent="1">
          <mxGeometry width="50" height="50" relative="1" as="geometry">
            <mxPoint x="-292.61199999999997" y="240.188" as="sourcePoint" />
            <mxPoint x="-260.61199999999997" y="240.188" as="targetPoint" />
          </mxGeometry>
        </mxCell>
        <mxCell id="0Ov8n9n56HKdVS319JqA-831" value="" style="endArrow=none;html=1;rounded=0;fontStyle=2;fontFamily=Gost Type B;fontSource=https%3A%2F%2Ffonts.googleapis.com%2Fcss%3Ffamily%3DGost%2BType%2BB;fontSize=16;" edge="1" parent="1">
          <mxGeometry width="50" height="50" relative="1" as="geometry">
            <mxPoint x="-260.61199999999997" y="248.188" as="sourcePoint" />
            <mxPoint x="-260.61199999999997" y="239.688" as="targetPoint" />
          </mxGeometry>
        </mxCell>
        <mxCell id="0Ov8n9n56HKdVS319JqA-832" value="" style="endArrow=none;html=1;rounded=0;fontStyle=2;fontFamily=Gost Type B;fontSource=https%3A%2F%2Ffonts.googleapis.com%2Fcss%3Ffamily%3DGost%2BType%2BB;fontSize=16;" edge="1" parent="1">
          <mxGeometry width="50" height="50" relative="1" as="geometry">
            <mxPoint x="-292.61199999999997" y="248.188" as="sourcePoint" />
            <mxPoint x="-292.61199999999997" y="239.688" as="targetPoint" />
          </mxGeometry>
        </mxCell>
        <mxCell id="0Ov8n9n56HKdVS319JqA-834" value="" style="rounded=0;whiteSpace=wrap;html=1;rotation=90;fontStyle=2;direction=south;fontFamily=Gost Type B;fontSource=https%3A%2F%2Ffonts.googleapis.com%2Fcss%3Ffamily%3DGost%2BType%2BB;fontSize=16;" vertex="1" parent="1">
          <mxGeometry x="-217.35500000000005" y="263.6310000000001" width="15.3" height="31.5" as="geometry" />
        </mxCell>
        <mxCell id="0Ov8n9n56HKdVS319JqA-835" value="" style="endArrow=none;html=1;rounded=0;entryX=1;entryY=0.5;entryDx=0;entryDy=0;fontFamily=Gost Type B;fontSource=https%3A%2F%2Ffonts.googleapis.com%2Fcss%3Ffamily%3DGost%2BType%2BB;fontSize=16;" edge="1" parent="1" target="0Ov8n9n56HKdVS319JqA-834">
          <mxGeometry width="50" height="50" relative="1" as="geometry">
            <mxPoint x="-257.5" y="279.33100000000013" as="sourcePoint" />
            <mxPoint x="-222.709" y="287.33100000000013" as="targetPoint" />
          </mxGeometry>
        </mxCell>
        <mxCell id="0Ov8n9n56HKdVS319JqA-836" value="" style="endArrow=none;html=1;rounded=0;startArrow=none;startFill=0;edgeStyle=orthogonalEdgeStyle;fontFamily=Gost Type B;fontSource=https%3A%2F%2Ffonts.googleapis.com%2Fcss%3Ffamily%3DGost%2BType%2BB;fontSize=16;" edge="1" parent="1">
          <mxGeometry width="50" height="50" relative="1" as="geometry">
            <mxPoint x="-319.5" y="325" as="sourcePoint" />
            <mxPoint x="-292" y="279.33100000000013" as="targetPoint" />
            <Array as="points">
              <mxPoint x="-319.5" y="279" />
            </Array>
          </mxGeometry>
        </mxCell>
        <mxCell id="0Ov8n9n56HKdVS319JqA-837" value="&lt;font style=&quot;font-size: 16px;&quot;&gt;SB5&lt;/font&gt;" style="text;html=1;strokeColor=none;fillColor=none;align=center;verticalAlign=middle;whiteSpace=wrap;rounded=0;fontStyle=2;fontSize=16;fontFamily=Gost Type B;fontSource=https%3A%2F%2Ffonts.googleapis.com%2Fcss%3Ffamily%3DGost%2BType%2BB;" vertex="1" parent="1">
          <mxGeometry x="-296.539" y="213.59100000000007" width="60" height="30" as="geometry" />
        </mxCell>
        <mxCell id="0Ov8n9n56HKdVS319JqA-838" value="&lt;div style=&quot;line-height: 100%; font-size: 16px;&quot;&gt;&lt;span style=&quot;font-size: 16px;&quot;&gt;Кнопка выбора алгоритма&lt;/span&gt;&lt;/div&gt;" style="text;whiteSpace=wrap;html=1;align=center;fontStyle=2;fontFamily=Gost Type B;fontSource=https%3A%2F%2Ffonts.googleapis.com%2Fcss%3Ffamily%3DGost%2BType%2BB;fontSize=16;" vertex="1" parent="1">
          <mxGeometry x="-322.53000000000003" y="-45.37999999999997" width="110.24" height="32.26" as="geometry" />
        </mxCell>
        <mxCell id="0Ov8n9n56HKdVS319JqA-839" value="&lt;div style=&quot;line-height: 100%; font-size: 16px;&quot;&gt;&lt;font style=&quot;font-size: 16px;&quot;&gt;&lt;span style=&quot;font-size: 16px;&quot;&gt;Кнопка просмотра алгоритмов&lt;/span&gt;&lt;/font&gt;&lt;/div&gt;" style="text;whiteSpace=wrap;html=1;align=center;fontStyle=2;fontFamily=Gost Type B;fontSource=https%3A%2F%2Ffonts.googleapis.com%2Fcss%3Ffamily%3DGost%2BType%2BB;fontSize=16;" vertex="1" parent="1">
          <mxGeometry x="-319.55300000000005" y="54.61700000000003" width="110.24" height="32.26" as="geometry" />
        </mxCell>
        <mxCell id="0Ov8n9n56HKdVS319JqA-840" value="&lt;div style=&quot;line-height: 100%; font-size: 16px;&quot;&gt;&lt;font style=&quot;font-size: 16px;&quot;&gt;&lt;span style=&quot;font-size: 16px;&quot;&gt;Кнопка просмотра алгоритмов&lt;/span&gt;&lt;/font&gt;&lt;/div&gt;" style="text;whiteSpace=wrap;html=1;align=center;fontStyle=2;fontFamily=Gost Type B;fontSource=https%3A%2F%2Ffonts.googleapis.com%2Fcss%3Ffamily%3DGost%2BType%2BB;fontSize=16;" vertex="1" parent="1">
          <mxGeometry x="-319.55" y="170.17" width="84.78" height="32.08" as="geometry" />
        </mxCell>
        <mxCell id="0Ov8n9n56HKdVS319JqA-841" value="&lt;div style=&quot;line-height: 100%; font-size: 16px;&quot;&gt;&lt;font style=&quot;font-size: 16px;&quot;&gt;&lt;span style=&quot;font-size: 16px;&quot;&gt;Кнопка выбора устройства ввода&lt;/span&gt;&lt;/font&gt;&lt;/div&gt;" style="text;whiteSpace=wrap;html=1;align=center;fontStyle=2;fontFamily=Gost Type B;fontSource=https%3A%2F%2Ffonts.googleapis.com%2Fcss%3Ffamily%3DGost%2BType%2BB;fontSize=16;" vertex="1" parent="1">
          <mxGeometry x="-319.55" y="279.54" width="109.87" height="33.45" as="geometry" />
        </mxCell>
        <mxCell id="0Ov8n9n56HKdVS319JqA-842" value="&lt;p style=&quot;line-height: 80%; font-size: 16px;&quot;&gt;&lt;i style=&quot;font-size: 16px;&quot;&gt;&lt;font style=&quot;font-size: 16px;&quot;&gt;&lt;font style=&quot;font-size: 16px;&quot;&gt;R1&lt;/font&gt;&lt;br&gt;&lt;/font&gt;&lt;/i&gt;&lt;/p&gt;" style="text;html=1;strokeColor=none;fillColor=none;align=left;verticalAlign=middle;whiteSpace=wrap;rounded=0;container=0;fontFamily=Gost Type B;fontSource=https%3A%2F%2Ffonts.googleapis.com%2Fcss%3Ffamily%3DGost%2BType%2BB;fontSize=16;" vertex="1" parent="1">
          <mxGeometry x="-222.98000000000002" y="-83.19999999999999" width="53.3" height="27.56" as="geometry" />
        </mxCell>
        <mxCell id="0Ov8n9n56HKdVS319JqA-843" value="&lt;p style=&quot;line-height: 80%; font-size: 16px;&quot;&gt;&lt;i style=&quot;font-size: 16px;&quot;&gt;&lt;font style=&quot;font-size: 16px;&quot;&gt;&lt;font style=&quot;font-size: 16px;&quot;&gt;R2&lt;/font&gt;&lt;/font&gt;&lt;/i&gt;&lt;/p&gt;" style="text;html=1;strokeColor=none;fillColor=none;align=left;verticalAlign=middle;whiteSpace=wrap;rounded=0;container=0;fontFamily=Gost Type B;fontSource=https%3A%2F%2Ffonts.googleapis.com%2Fcss%3Ffamily%3DGost%2BType%2BB;fontSize=16;" vertex="1" parent="1">
          <mxGeometry x="-222.98000000000002" y="15.309999999999999" width="53.3" height="27.56" as="geometry" />
        </mxCell>
        <mxCell id="0Ov8n9n56HKdVS319JqA-844" value="&lt;p style=&quot;line-height: 80%; font-size: 16px;&quot;&gt;&lt;i style=&quot;font-size: 16px;&quot;&gt;&lt;font style=&quot;font-size: 16px;&quot;&gt;&lt;font style=&quot;font-size: 16px;&quot;&gt;R3&lt;/font&gt;&lt;br&gt;&lt;/font&gt;&lt;/i&gt;&lt;/p&gt;" style="text;html=1;strokeColor=none;fillColor=none;align=left;verticalAlign=middle;whiteSpace=wrap;rounded=0;container=0;fontFamily=Gost Type B;fontSource=https%3A%2F%2Ffonts.googleapis.com%2Fcss%3Ffamily%3DGost%2BType%2BB;fontSize=16;" vertex="1" parent="1">
          <mxGeometry x="-222.98000000000002" y="133.19" width="53.3" height="27.56" as="geometry" />
        </mxCell>
        <mxCell id="0Ov8n9n56HKdVS319JqA-845" value="&lt;p style=&quot;line-height: 80%; font-size: 16px;&quot;&gt;&lt;i style=&quot;font-size: 16px;&quot;&gt;&lt;font style=&quot;font-size: 16px;&quot;&gt;&lt;font style=&quot;font-size: 16px;&quot;&gt;R4&lt;/font&gt;&lt;/font&gt;&lt;/i&gt;&lt;/p&gt;" style="text;html=1;strokeColor=none;fillColor=none;align=left;verticalAlign=middle;whiteSpace=wrap;rounded=0;container=0;fontFamily=Gost Type B;fontSource=https%3A%2F%2Ffonts.googleapis.com%2Fcss%3Ffamily%3DGost%2BType%2BB;fontSize=16;" vertex="1" parent="1">
          <mxGeometry x="-222.97000000000003" y="243.60000000000002" width="53.29" height="27.56" as="geometry" />
        </mxCell>
        <mxCell id="0Ov8n9n56HKdVS319JqA-872" value="" style="rounded=0;whiteSpace=wrap;html=1;fillColor=none;fontSize=16;fontFamily=Gost Type B;fontSource=https%3A%2F%2Ffonts.googleapis.com%2Fcss%3Ffamily%3DGost%2BType%2BB;" vertex="1" parent="1">
          <mxGeometry x="-229.39" y="520.7600000000001" width="290" height="60" as="geometry" />
        </mxCell>
        <mxCell id="0Ov8n9n56HKdVS319JqA-873" value="VSS" style="text;html=1;align=center;verticalAlign=middle;resizable=0;points=[];autosize=1;strokeColor=none;fillColor=none;fontFamily=Gost Type B;fontSource=https%3A%2F%2Ffonts.googleapis.com%2Fcss%3Ffamily%3DGost%2BType%2BB;horizontal=0;fontSize=16;" vertex="1" parent="1">
          <mxGeometry x="-239.39" y="581.19" width="40" height="40" as="geometry" />
        </mxCell>
        <mxCell id="0Ov8n9n56HKdVS319JqA-874" value="VDD" style="text;html=1;align=center;verticalAlign=middle;resizable=0;points=[];autosize=1;strokeColor=none;fillColor=none;fontFamily=Gost Type B;fontSource=https%3A%2F%2Ffonts.googleapis.com%2Fcss%3Ffamily%3DGost%2BType%2BB;horizontal=0;fontSize=16;" vertex="1" parent="1">
          <mxGeometry x="-219.39" y="580.6500000000001" width="40" height="40" as="geometry" />
        </mxCell>
        <mxCell id="0Ov8n9n56HKdVS319JqA-875" value="VEE" style="text;html=1;align=center;verticalAlign=middle;resizable=0;points=[];autosize=1;strokeColor=none;fillColor=none;fontFamily=Gost Type B;fontSource=https%3A%2F%2Ffonts.googleapis.com%2Fcss%3Ffamily%3DGost%2BType%2BB;horizontal=0;fontSize=16;" vertex="1" parent="1">
          <mxGeometry x="-199.39" y="580.8000000000001" width="40" height="40" as="geometry" />
        </mxCell>
        <mxCell id="0Ov8n9n56HKdVS319JqA-876" value="RS" style="text;html=1;align=center;verticalAlign=middle;resizable=0;points=[];autosize=1;strokeColor=none;fillColor=none;fontFamily=Gost Type B;fontSource=https%3A%2F%2Ffonts.googleapis.com%2Fcss%3Ffamily%3DGost%2BType%2BB;horizontal=0;fontSize=16;" vertex="1" parent="1">
          <mxGeometry x="-169.39" y="584.0300000000001" width="40" height="30" as="geometry" />
        </mxCell>
        <mxCell id="0Ov8n9n56HKdVS319JqA-877" value="RW" style="text;html=1;align=center;verticalAlign=middle;resizable=0;points=[];autosize=1;strokeColor=none;fillColor=none;fontFamily=Gost Type B;fontSource=https%3A%2F%2Ffonts.googleapis.com%2Fcss%3Ffamily%3DGost%2BType%2BB;horizontal=0;fontSize=16;" vertex="1" parent="1">
          <mxGeometry x="-149.39" y="584.49" width="40" height="30" as="geometry" />
        </mxCell>
        <mxCell id="0Ov8n9n56HKdVS319JqA-878" value="E" style="text;html=1;align=center;verticalAlign=middle;resizable=0;points=[];autosize=1;strokeColor=none;fillColor=none;fontFamily=Gost Type B;fontSource=https%3A%2F%2Ffonts.googleapis.com%2Fcss%3Ffamily%3DGost%2BType%2BB;horizontal=0;fontSize=16;" vertex="1" parent="1">
          <mxGeometry x="-134.39" y="589.0300000000001" width="40" height="20" as="geometry" />
        </mxCell>
        <mxCell id="0Ov8n9n56HKdVS319JqA-879" value="D0" style="text;html=1;align=center;verticalAlign=middle;resizable=0;points=[];autosize=1;strokeColor=none;fillColor=none;fontFamily=Gost Type B;fontSource=https%3A%2F%2Ffonts.googleapis.com%2Fcss%3Ffamily%3DGost%2BType%2BB;horizontal=0;fontSize=16;" vertex="1" parent="1">
          <mxGeometry x="-104.38999999999999" y="586.19" width="40" height="30" as="geometry" />
        </mxCell>
        <mxCell id="0Ov8n9n56HKdVS319JqA-880" value="D1" style="text;html=1;align=center;verticalAlign=middle;resizable=0;points=[];autosize=1;strokeColor=none;fillColor=none;fontFamily=Gost Type B;fontSource=https%3A%2F%2Ffonts.googleapis.com%2Fcss%3Ffamily%3DGost%2BType%2BB;horizontal=0;fontSize=16;" vertex="1" parent="1">
          <mxGeometry x="-84.38999999999999" y="586.19" width="40" height="30" as="geometry" />
        </mxCell>
        <mxCell id="0Ov8n9n56HKdVS319JqA-881" value="D2" style="text;html=1;align=center;verticalAlign=middle;resizable=0;points=[];autosize=1;strokeColor=none;fillColor=none;fontFamily=Gost Type B;fontSource=https%3A%2F%2Ffonts.googleapis.com%2Fcss%3Ffamily%3DGost%2BType%2BB;horizontal=0;fontSize=16;" vertex="1" parent="1">
          <mxGeometry x="-69.38999999999999" y="585.34" width="40" height="30" as="geometry" />
        </mxCell>
        <mxCell id="0Ov8n9n56HKdVS319JqA-882" value="D3" style="text;html=1;align=center;verticalAlign=middle;resizable=0;points=[];autosize=1;strokeColor=none;fillColor=none;fontFamily=Gost Type B;fontSource=https%3A%2F%2Ffonts.googleapis.com%2Fcss%3Ffamily%3DGost%2BType%2BB;horizontal=0;fontSize=16;" vertex="1" parent="1">
          <mxGeometry x="-49.389999999999986" y="585.34" width="40" height="30" as="geometry" />
        </mxCell>
        <mxCell id="0Ov8n9n56HKdVS319JqA-883" value="D4" style="text;html=1;align=center;verticalAlign=middle;resizable=0;points=[];autosize=1;strokeColor=none;fillColor=none;fontFamily=Gost Type B;fontSource=https%3A%2F%2Ffonts.googleapis.com%2Fcss%3Ffamily%3DGost%2BType%2BB;horizontal=0;fontSize=16;" vertex="1" parent="1">
          <mxGeometry x="-29.389999999999986" y="584.4900000000001" width="40" height="30" as="geometry" />
        </mxCell>
        <mxCell id="0Ov8n9n56HKdVS319JqA-884" value="D5" style="text;html=1;align=center;verticalAlign=middle;resizable=0;points=[];autosize=1;strokeColor=none;fillColor=none;fontFamily=Gost Type B;fontSource=https%3A%2F%2Ffonts.googleapis.com%2Fcss%3Ffamily%3DGost%2BType%2BB;horizontal=0;fontSize=16;" vertex="1" parent="1">
          <mxGeometry x="-9.389999999999986" y="584.4900000000001" width="40" height="30" as="geometry" />
        </mxCell>
        <mxCell id="0Ov8n9n56HKdVS319JqA-885" value="D6" style="text;html=1;align=center;verticalAlign=middle;resizable=0;points=[];autosize=1;strokeColor=none;fillColor=none;fontFamily=Gost Type B;fontSource=https%3A%2F%2Ffonts.googleapis.com%2Fcss%3Ffamily%3DGost%2BType%2BB;horizontal=0;fontSize=16;" vertex="1" parent="1">
          <mxGeometry x="10.610000000000014" y="584.95" width="40" height="30" as="geometry" />
        </mxCell>
        <mxCell id="0Ov8n9n56HKdVS319JqA-886" value="D7" style="text;html=1;align=center;verticalAlign=middle;resizable=0;points=[];autosize=1;strokeColor=none;fillColor=none;fontFamily=Gost Type B;fontSource=https%3A%2F%2Ffonts.googleapis.com%2Fcss%3Ffamily%3DGost%2BType%2BB;horizontal=0;fontSize=16;" vertex="1" parent="1">
          <mxGeometry x="30.610000000000014" y="584.4900000000001" width="40" height="30" as="geometry" />
        </mxCell>
        <mxCell id="0Ov8n9n56HKdVS319JqA-887" value="" style="endArrow=none;html=1;rounded=0;entryX=0.703;entryY=1.008;entryDx=0;entryDy=0;entryPerimeter=0;fontSize=16;fontFamily=Gost Type B;fontSource=https%3A%2F%2Ffonts.googleapis.com%2Fcss%3Ffamily%3DGost%2BType%2BB;" edge="1" parent="1">
          <mxGeometry width="50" height="50" relative="1" as="geometry">
            <mxPoint x="-219.87" y="634.8700000000001" as="sourcePoint" />
            <mxPoint x="-219.7499999999999" y="615.8900000000001" as="targetPoint" />
          </mxGeometry>
        </mxCell>
        <mxCell id="0Ov8n9n56HKdVS319JqA-888" value="" style="endArrow=none;html=1;rounded=0;entryX=0.703;entryY=1.008;entryDx=0;entryDy=0;entryPerimeter=0;fontSize=16;fontFamily=Gost Type B;fontSource=https%3A%2F%2Ffonts.googleapis.com%2Fcss%3Ffamily%3DGost%2BType%2BB;" edge="1" parent="1">
          <mxGeometry width="50" height="50" relative="1" as="geometry">
            <mxPoint x="-199.39" y="634.32" as="sourcePoint" />
            <mxPoint x="-199.26999999999987" y="615.34" as="targetPoint" />
          </mxGeometry>
        </mxCell>
        <mxCell id="0Ov8n9n56HKdVS319JqA-889" value="" style="endArrow=none;html=1;rounded=0;entryX=0.703;entryY=1.008;entryDx=0;entryDy=0;entryPerimeter=0;fontSize=16;fontFamily=Gost Type B;fontSource=https%3A%2F%2Ffonts.googleapis.com%2Fcss%3Ffamily%3DGost%2BType%2BB;" edge="1" parent="1">
          <mxGeometry width="50" height="50" relative="1" as="geometry">
            <mxPoint x="-179.39" y="633.9300000000001" as="sourcePoint" />
            <mxPoint x="-179.26999999999987" y="614.95" as="targetPoint" />
          </mxGeometry>
        </mxCell>
        <mxCell id="0Ov8n9n56HKdVS319JqA-891" value="" style="endArrow=none;html=1;rounded=0;entryX=0.703;entryY=1.008;entryDx=0;entryDy=0;entryPerimeter=0;endFill=0;startArrow=none;startFill=0;fontSize=16;fontFamily=Gost Type B;fontSource=https%3A%2F%2Ffonts.googleapis.com%2Fcss%3Ffamily%3DGost%2BType%2BB;exitX=0.495;exitY=-0.166;exitDx=0;exitDy=0;exitPerimeter=0;" edge="1" parent="1" source="0Ov8n9n56HKdVS319JqA-901">
          <mxGeometry width="50" height="50" relative="1" as="geometry">
            <mxPoint x="-129.51" y="650.96" as="sourcePoint" />
            <mxPoint x="-129.26999999999987" y="615.6500000000001" as="targetPoint" />
          </mxGeometry>
        </mxCell>
        <mxCell id="0Ov8n9n56HKdVS319JqA-893" value="" style="endArrow=none;html=1;rounded=0;entryX=0.703;entryY=1.008;entryDx=0;entryDy=0;entryPerimeter=0;fontSize=16;fontFamily=Gost Type B;fontSource=https%3A%2F%2Ffonts.googleapis.com%2Fcss%3Ffamily%3DGost%2BType%2BB;" edge="1" parent="1">
          <mxGeometry width="50" height="50" relative="1" as="geometry">
            <mxPoint x="-79.38999999999999" y="633.9300000000001" as="sourcePoint" />
            <mxPoint x="-79.26999999999987" y="614.95" as="targetPoint" />
          </mxGeometry>
        </mxCell>
        <mxCell id="0Ov8n9n56HKdVS319JqA-894" value="" style="endArrow=none;html=1;rounded=0;entryX=0.703;entryY=1.008;entryDx=0;entryDy=0;entryPerimeter=0;fontSize=16;fontFamily=Gost Type B;fontSource=https%3A%2F%2Ffonts.googleapis.com%2Fcss%3Ffamily%3DGost%2BType%2BB;" edge="1" parent="1">
          <mxGeometry width="50" height="50" relative="1" as="geometry">
            <mxPoint x="-59.389999999999986" y="633.9300000000001" as="sourcePoint" />
            <mxPoint x="-59.26999999999987" y="614.95" as="targetPoint" />
          </mxGeometry>
        </mxCell>
        <mxCell id="0Ov8n9n56HKdVS319JqA-895" value="" style="endArrow=none;html=1;rounded=0;entryX=0.703;entryY=1.008;entryDx=0;entryDy=0;entryPerimeter=0;fontSize=16;fontFamily=Gost Type B;fontSource=https%3A%2F%2Ffonts.googleapis.com%2Fcss%3Ffamily%3DGost%2BType%2BB;" edge="1" parent="1">
          <mxGeometry width="50" height="50" relative="1" as="geometry">
            <mxPoint x="-39.389999999999986" y="634.3200000000002" as="sourcePoint" />
            <mxPoint x="-39.26999999999987" y="615.3400000000001" as="targetPoint" />
          </mxGeometry>
        </mxCell>
        <mxCell id="0Ov8n9n56HKdVS319JqA-896" value="" style="endArrow=none;html=1;rounded=0;entryX=0.703;entryY=1.008;entryDx=0;entryDy=0;entryPerimeter=0;fontSize=16;fontFamily=Gost Type B;fontSource=https%3A%2F%2Ffonts.googleapis.com%2Fcss%3Ffamily%3DGost%2BType%2BB;" edge="1" parent="1">
          <mxGeometry width="50" height="50" relative="1" as="geometry">
            <mxPoint x="-19.389999999999986" y="634.3200000000002" as="sourcePoint" />
            <mxPoint x="-19.269999999999868" y="615.3400000000001" as="targetPoint" />
          </mxGeometry>
        </mxCell>
        <mxCell id="0Ov8n9n56HKdVS319JqA-901" value="&lt;font style=&quot;font-size: 16px;&quot;&gt;&lt;span style=&quot;font-size: 16px;&quot;&gt;&lt;i style=&quot;font-size: 16px;&quot;&gt;GND&lt;/i&gt;&lt;/span&gt;&lt;/font&gt;" style="text;html=1;strokeColor=none;fillColor=none;align=left;verticalAlign=middle;whiteSpace=wrap;rounded=0;container=0;fontFamily=Gost Type B;fontSource=https%3A%2F%2Ffonts.googleapis.com%2Fcss%3Ffamily%3DGost%2BType%2BB;fontSize=16;" vertex="1" parent="1">
          <mxGeometry x="-145.25299999999996" y="655.4570000000002" width="31.73" height="18.97" as="geometry" />
        </mxCell>
        <mxCell id="0Ov8n9n56HKdVS319JqA-1024" value="" style="endArrow=none;html=1;rounded=0;fontStyle=2;fontFamily=Gost Type B;fontSource=https%3A%2F%2Ffonts.googleapis.com%2Fcss%3Ffamily%3DGost%2BType%2BB;" edge="1" parent="1">
          <mxGeometry width="50" height="50" relative="1" as="geometry">
            <mxPoint x="341.82000000000016" y="16.439999999999998" as="sourcePoint" />
            <mxPoint x="341.82000000000016" y="-254.56" as="targetPoint" />
            <Array as="points">
              <mxPoint x="341.82000000000016" y="-65.56" />
            </Array>
          </mxGeometry>
        </mxCell>
        <mxCell id="0Ov8n9n56HKdVS319JqA-1025" value="" style="ellipse;whiteSpace=wrap;html=1;aspect=fixed;fillColor=#000000;fontStyle=2;fontFamily=Gost Type B;fontSource=https%3A%2F%2Ffonts.googleapis.com%2Fcss%3Ffamily%3DGost%2BType%2BB;" vertex="1" parent="1">
          <mxGeometry x="340" y="14.439999999999998" width="3" height="3" as="geometry" />
        </mxCell>
        <mxCell id="0Ov8n9n56HKdVS319JqA-1026" value="" style="endArrow=open;html=1;rounded=0;endFill=0;fontStyle=2;fontFamily=Gost Type B;fontSource=https%3A%2F%2Ffonts.googleapis.com%2Fcss%3Ffamily%3DGost%2BType%2BB;" edge="1" parent="1">
          <mxGeometry width="50" height="50" relative="1" as="geometry">
            <mxPoint x="341.82000000000016" y="-77.88000000000001" as="sourcePoint" />
            <mxPoint x="341.82000000000016" y="-26.88000000000001" as="targetPoint" />
          </mxGeometry>
        </mxCell>
        <mxCell id="0Ov8n9n56HKdVS319JqA-1027" value="" style="endArrow=blockThin;html=1;rounded=0;endFill=1;fontFamily=Gost Type B;fontSource=https%3A%2F%2Ffonts.googleapis.com%2Fcss%3Ffamily%3DGost%2BType%2BB;" edge="1" parent="1">
          <mxGeometry width="50" height="50" relative="1" as="geometry">
            <mxPoint x="341.2800000000002" y="-253.99000000000012" as="sourcePoint" />
            <mxPoint x="341.2800000000002" y="-232.0300000000001" as="targetPoint" />
          </mxGeometry>
        </mxCell>
        <mxCell id="0Ov8n9n56HKdVS319JqA-1028" value="&#xa;&lt;span style=&quot;color: rgb(0, 0, 0); font-size: 20px; font-style: italic; font-variant-ligatures: normal; font-variant-caps: normal; font-weight: 400; letter-spacing: normal; orphans: 2; text-align: center; text-indent: 0px; text-transform: none; widows: 2; word-spacing: 0px; -webkit-text-stroke-width: 0px; background-color: rgb(251, 251, 251); text-decoration-thickness: initial; text-decoration-style: initial; text-decoration-color: initial; float: none; display: inline !important;&quot;&gt;DMA&lt;/span&gt;&#xa;&#xa;" style="rounded=0;whiteSpace=wrap;html=1;dashed=1;perimeterSpacing=0;strokeWidth=2;fontStyle=2;fillColor=none;fontFamily=Gost Type B;fontSource=https%3A%2F%2Ffonts.googleapis.com%2Fcss%3Ffamily%3DGost%2BType%2BB;" vertex="1" parent="1">
          <mxGeometry x="381.8900000000001" y="-238.15000000000003" width="563.24" height="779.53" as="geometry" />
        </mxCell>
        <mxCell id="0Ov8n9n56HKdVS319JqA-1029" value="&lt;font style=&quot;font-size: 20px;&quot;&gt;Cortex-M3 CPU&lt;/font&gt;" style="rounded=0;whiteSpace=wrap;html=1;fontSize=20;fontFamily=Gost Type B;fontStyle=2;fontSource=https%3A%2F%2Ffonts.googleapis.com%2Fcss%3Ffamily%3DGost%2BType%2BB;" vertex="1" parent="1">
          <mxGeometry x="478.76" y="-219.14999999999998" width="102.36" height="78.74" as="geometry" />
        </mxCell>
        <mxCell id="0Ov8n9n56HKdVS319JqA-1030" value="" style="group;fontStyle=2;fontFamily=Gost Type B;fontSource=https%3A%2F%2Ffonts.googleapis.com%2Fcss%3Ffamily%3DGost%2BType%2BB;" vertex="1" connectable="0" parent="1">
          <mxGeometry x="679.3499999999997" y="-221.29000000000002" width="38.65000000000032" height="192.92000000000007" as="geometry" />
        </mxCell>
        <mxCell id="0Ov8n9n56HKdVS319JqA-1031" value="" style="shape=trapezoid;perimeter=trapezoidPerimeter;whiteSpace=wrap;html=1;fixedSize=1;rotation=90;size=29.357999999999947;fontFamily=Gost Type B;fontStyle=2;fontSize=20;horizontal=1;verticalAlign=middle;textDirection=rtl;fontSource=https%3A%2F%2Ffonts.googleapis.com%2Fcss%3Ffamily%3DGost%2BType%2BB;" vertex="1" parent="0Ov8n9n56HKdVS319JqA-1030">
          <mxGeometry x="-75.52999999999975" y="78.74000000000004" width="192.92" height="35.44" as="geometry" />
        </mxCell>
        <mxCell id="0Ov8n9n56HKdVS319JqA-1032" value="&lt;span style=&quot;color: rgb(0, 0, 0); font-size: 20px; font-variant-ligatures: normal; font-variant-caps: normal; font-weight: 400; letter-spacing: normal; orphans: 2; text-align: center; text-indent: 0px; text-transform: none; widows: 2; word-spacing: 0px; -webkit-text-stroke-width: 0px; background-color: rgb(255, 255, 255); text-decoration-thickness: initial; text-decoration-style: initial; text-decoration-color: initial; float: none; display: inline !important;&quot;&gt;Матрица шин&lt;/span&gt;" style="text;whiteSpace=wrap;html=1;rotation=-90;fontStyle=2;fontFamily=Gost Type B;fontSource=https%3A%2F%2Ffonts.googleapis.com%2Fcss%3Ffamily%3DGost%2BType%2BB;" vertex="1" parent="0Ov8n9n56HKdVS319JqA-1030">
          <mxGeometry x="-30.419999999999845" y="80.53000000000003" width="94.49" height="33.65" as="geometry" />
        </mxCell>
        <mxCell id="0Ov8n9n56HKdVS319JqA-1033" value="DMA" style="rounded=0;whiteSpace=wrap;html=1;fontSize=20;fontFamily=Gost Type B;fontStyle=2;fontSource=https%3A%2F%2Ffonts.googleapis.com%2Fcss%3Ffamily%3DGost%2BType%2BB;" vertex="1" parent="1">
          <mxGeometry x="523.9399999999998" y="-84.35000000000001" width="76.81" height="37.57" as="geometry" />
        </mxCell>
        <mxCell id="0Ov8n9n56HKdVS319JqA-1034" value="" style="endArrow=open;startArrow=open;html=1;rounded=0;exitX=1;exitY=0.5;exitDx=0;exitDy=0;entryX=0.212;entryY=1.01;entryDx=0;entryDy=0;entryPerimeter=0;endFill=0;startFill=0;fontStyle=2;fontFamily=Gost Type B;fontSource=https%3A%2F%2Ffonts.googleapis.com%2Fcss%3Ffamily%3DGost%2BType%2BB;" edge="1" parent="1" source="0Ov8n9n56HKdVS319JqA-1029" target="0Ov8n9n56HKdVS319JqA-1031">
          <mxGeometry width="50" height="50" relative="1" as="geometry">
            <mxPoint x="601.6299999999999" y="-86.12999999999998" as="sourcePoint" />
            <mxPoint x="651.6299999999999" y="-136.13000000000002" as="targetPoint" />
          </mxGeometry>
        </mxCell>
        <mxCell id="0Ov8n9n56HKdVS319JqA-1035" value="" style="endArrow=open;startArrow=open;html=1;rounded=0;entryX=0.212;entryY=1.01;entryDx=0;entryDy=0;entryPerimeter=0;endFill=0;startFill=0;exitX=1;exitY=0.5;exitDx=0;exitDy=0;fontStyle=2;fontFamily=Gost Type B;fontSource=https%3A%2F%2Ffonts.googleapis.com%2Fcss%3Ffamily%3DGost%2BType%2BB;" edge="1" parent="1" source="0Ov8n9n56HKdVS319JqA-1033">
          <mxGeometry width="50" height="50" relative="1" as="geometry">
            <mxPoint x="601.6299999999999" y="-65.12999999999998" as="sourcePoint" />
            <mxPoint x="682.6269999999997" y="-65.95299999999996" as="targetPoint" />
          </mxGeometry>
        </mxCell>
        <mxCell id="0Ov8n9n56HKdVS319JqA-1036" value="&lt;div style=&quot;text-align: center;&quot;&gt;&lt;span style=&quot;background-color: initial; font-size: 20px;&quot;&gt;&lt;font&gt;&lt;span&gt;System&lt;/span&gt;&lt;/font&gt;&lt;/span&gt;&lt;/div&gt;" style="text;whiteSpace=wrap;html=1;fontStyle=2;fontFamily=Gost Type B;fontSource=https%3A%2F%2Ffonts.googleapis.com%2Fcss%3Ffamily%3DGost%2BType%2BB;" vertex="1" parent="1">
          <mxGeometry x="617.4249999999997" y="-212.27300000000002" width="51.181" height="43.306999999999995" as="geometry" />
        </mxCell>
        <mxCell id="0Ov8n9n56HKdVS319JqA-1037" value="&lt;font style=&quot;font-size: 13px;&quot;&gt;Управление синхронизацией и сбросом&lt;/font&gt;" style="rounded=0;whiteSpace=wrap;html=1;fontSize=16;fontFamily=Gost Type B;fontStyle=2;fontSource=https%3A%2F%2Ffonts.googleapis.com%2Fcss%3Ffamily%3DGost%2BType%2BB;" vertex="1" parent="1">
          <mxGeometry x="522.9399999999998" y="-2.610000000000028" width="157.48" height="37.57" as="geometry" />
        </mxCell>
        <mxCell id="0Ov8n9n56HKdVS319JqA-1038" value="&lt;p style=&quot;line-height: 100%;&quot;&gt;SRAM память&lt;/p&gt;" style="rounded=0;whiteSpace=wrap;html=1;fontSize=20;fontFamily=Gost Type B;fontStyle=2;fontSource=https%3A%2F%2Ffonts.googleapis.com%2Fcss%3Ffamily%3DGost%2BType%2BB;" vertex="1" parent="1">
          <mxGeometry x="757.6369999999997" y="-113.023" width="76.81" height="37.57" as="geometry" />
        </mxCell>
        <mxCell id="0Ov8n9n56HKdVS319JqA-1039" value="&lt;p style=&quot;line-height: 100%;&quot;&gt;Flash память&lt;/p&gt;" style="rounded=0;whiteSpace=wrap;html=1;fontSize=20;fontFamily=Gost Type B;fontStyle=2;fontSource=https%3A%2F%2Ffonts.googleapis.com%2Fcss%3Ffamily%3DGost%2BType%2BB;" vertex="1" parent="1">
          <mxGeometry x="757.6339999999996" y="-174.21599999999995" width="76.81" height="37.57" as="geometry" />
        </mxCell>
        <mxCell id="0Ov8n9n56HKdVS319JqA-1040" value="" style="endArrow=open;startArrow=open;html=1;rounded=0;entryX=0.212;entryY=1.01;entryDx=0;entryDy=0;entryPerimeter=0;endFill=0;startFill=0;exitX=0.66;exitY=0.013;exitDx=0;exitDy=0;exitPerimeter=0;fontStyle=2;fontFamily=Gost Type B;fontSource=https%3A%2F%2Ffonts.googleapis.com%2Fcss%3Ffamily%3DGost%2BType%2BB;" edge="1" parent="1" source="0Ov8n9n56HKdVS319JqA-1031">
          <mxGeometry width="50" height="50" relative="1" as="geometry">
            <mxPoint x="719.6300000000001" y="-94.12999999999998" as="sourcePoint" />
            <mxPoint x="757.6339999999996" y="-93.74599999999997" as="targetPoint" />
          </mxGeometry>
        </mxCell>
        <mxCell id="0Ov8n9n56HKdVS319JqA-1041" value="" style="endArrow=open;startArrow=open;html=1;rounded=0;entryX=0.212;entryY=1.01;entryDx=0;entryDy=0;entryPerimeter=0;endFill=0;startFill=0;exitX=0.66;exitY=0.013;exitDx=0;exitDy=0;exitPerimeter=0;fontStyle=2;fontFamily=Gost Type B;fontSource=https%3A%2F%2Ffonts.googleapis.com%2Fcss%3Ffamily%3DGost%2BType%2BB;" edge="1" parent="1">
          <mxGeometry width="50" height="50" relative="1" as="geometry">
            <mxPoint x="717.6269999999995" y="-157.123" as="sourcePoint" />
            <mxPoint x="757.6309999999994" y="-156.73899999999992" as="targetPoint" />
          </mxGeometry>
        </mxCell>
        <mxCell id="0Ov8n9n56HKdVS319JqA-1042" value="&lt;p style=&quot;line-height: 100%; font-size: 16px;&quot;&gt;AHB2&lt;br&gt;APB2&lt;/p&gt;" style="rounded=0;whiteSpace=wrap;html=1;fontSize=20;fontFamily=Gost Type B;fontStyle=2;fontSource=https%3A%2F%2Ffonts.googleapis.com%2Fcss%3Ffamily%3DGost%2BType%2BB;" vertex="1" parent="1">
          <mxGeometry x="621.3699999999999" y="87.93999999999991" width="43.3" height="33.63" as="geometry" />
        </mxCell>
        <mxCell id="0Ov8n9n56HKdVS319JqA-1043" value="&lt;p style=&quot;line-height: 100%; font-size: 16px;&quot;&gt;AHB2&lt;br&gt;APB1&lt;/p&gt;" style="rounded=0;whiteSpace=wrap;html=1;fontSize=20;fontFamily=Gost Type B;fontStyle=2;fontSource=https%3A%2F%2Ffonts.googleapis.com%2Fcss%3Ffamily%3DGost%2BType%2BB;" vertex="1" parent="1">
          <mxGeometry x="664.6669999999997" y="87.93699999999998" width="43.3" height="33.63" as="geometry" />
        </mxCell>
        <mxCell id="0Ov8n9n56HKdVS319JqA-1044" value="" style="endArrow=open;startArrow=open;html=1;rounded=0;entryX=0.75;entryY=0;entryDx=0;entryDy=0;endFill=0;startFill=0;exitX=0.5;exitY=0;exitDx=0;exitDy=0;fontStyle=2;fontFamily=Gost Type B;fontSource=https%3A%2F%2Ffonts.googleapis.com%2Fcss%3Ffamily%3DGost%2BType%2BB;" edge="1" parent="1" source="0Ov8n9n56HKdVS319JqA-1042" target="0Ov8n9n56HKdVS319JqA-1031">
          <mxGeometry width="50" height="50" relative="1" as="geometry">
            <mxPoint x="664.6669999999997" y="67.86699999999993" as="sourcePoint" />
            <mxPoint x="704.6709999999994" y="68.25100000000006" as="targetPoint" />
            <Array as="points">
              <mxPoint x="642.6299999999999" y="48.86999999999998" />
              <mxPoint x="743.6299999999997" y="48.86999999999998" />
              <mxPoint x="743.6299999999997" y="-76.12999999999998" />
            </Array>
          </mxGeometry>
        </mxCell>
        <mxCell id="0Ov8n9n56HKdVS319JqA-1045" value="" style="endArrow=open;startArrow=open;html=1;rounded=0;endFill=0;startFill=0;strokeWidth=3;endSize=12;startSize=12;fontStyle=2;fontFamily=Gost Type B;fontSource=https%3A%2F%2Ffonts.googleapis.com%2Fcss%3Ffamily%3DGost%2BType%2BB;" edge="1" parent="1">
          <mxGeometry width="50" height="50" relative="1" as="geometry">
            <mxPoint x="569.3199999999999" y="526.55" as="sourcePoint" />
            <mxPoint x="570.1899999999998" y="56.439999999999976" as="targetPoint" />
          </mxGeometry>
        </mxCell>
        <mxCell id="0Ov8n9n56HKdVS319JqA-1046" value="" style="endArrow=open;startArrow=open;html=1;rounded=0;endFill=0;startFill=0;strokeWidth=3;endSize=12;startSize=12;fontStyle=2;fontFamily=Gost Type B;fontSource=https%3A%2F%2Ffonts.googleapis.com%2Fcss%3Ffamily%3DGost%2BType%2BB;" edge="1" parent="1">
          <mxGeometry width="50" height="50" relative="1" as="geometry">
            <mxPoint x="757.3199999999997" y="526.55" as="sourcePoint" />
            <mxPoint x="759.6299999999997" y="-18.31999999999998" as="targetPoint" />
          </mxGeometry>
        </mxCell>
        <mxCell id="0Ov8n9n56HKdVS319JqA-1047" value="&lt;span style=&quot;color: rgb(0, 0, 0); font-size: 16px; font-variant-ligatures: normal; font-variant-caps: normal; font-weight: 400; letter-spacing: normal; orphans: 2; text-align: center; text-indent: 0px; text-transform: none; widows: 2; word-spacing: 0px; -webkit-text-stroke-width: 0px; background-color: rgb(251, 251, 251); text-decoration-thickness: initial; text-decoration-style: initial; text-decoration-color: initial; float: none; display: inline !important;&quot;&gt;APB1&lt;/span&gt;" style="text;whiteSpace=wrap;html=1;rotation=-90;fontStyle=2;fontFamily=Gost Type B;fontSource=https%3A%2F%2Ffonts.googleapis.com%2Fcss%3Ffamily%3DGost%2BType%2BB;" vertex="1" parent="1">
          <mxGeometry x="757.6299999999997" y="497.3899999999999" width="35.43" height="27.56" as="geometry" />
        </mxCell>
        <mxCell id="0Ov8n9n56HKdVS319JqA-1048" value="&lt;span style=&quot;color: rgb(0, 0, 0); font-size: 16px; font-variant-ligatures: normal; font-variant-caps: normal; font-weight: 400; letter-spacing: normal; orphans: 2; text-align: center; text-indent: 0px; text-transform: none; widows: 2; word-spacing: 0px; -webkit-text-stroke-width: 0px; background-color: rgb(251, 251, 251); text-decoration-thickness: initial; text-decoration-style: initial; text-decoration-color: initial; float: none; display: inline !important;&quot;&gt;APB2&lt;/span&gt;" style="text;whiteSpace=wrap;html=1;rotation=-90;fontStyle=2;fontFamily=Gost Type B;fontSource=https%3A%2F%2Ffonts.googleapis.com%2Fcss%3Ffamily%3DGost%2BType%2BB;" vertex="1" parent="1">
          <mxGeometry x="570.1869999999997" y="497.38699999999994" width="35.43" height="27.56" as="geometry" />
        </mxCell>
        <mxCell id="0Ov8n9n56HKdVS319JqA-1049" value="&lt;p style=&quot;line-height: 100%;&quot;&gt;Внутренний тактовый генератор&lt;/p&gt;" style="rounded=0;whiteSpace=wrap;html=1;fontSize=20;fontFamily=Gost Type B;fontStyle=2;fontSource=https%3A%2F%2Ffonts.googleapis.com%2Fcss%3Ffamily%3DGost%2BType%2BB;" vertex="1" parent="1">
          <mxGeometry x="804.5900000000001" y="-56.209999999999965" width="102.36" height="66.31" as="geometry" />
        </mxCell>
        <mxCell id="0Ov8n9n56HKdVS319JqA-1050" value="&lt;p style=&quot;line-height: 100%;&quot;&gt;Генератор&lt;/p&gt;" style="rounded=0;whiteSpace=wrap;html=1;fontSize=20;fontFamily=Gost Type B;fontStyle=2;fontSource=https%3A%2F%2Ffonts.googleapis.com%2Fcss%3Ffamily%3DGost%2BType%2BB;" vertex="1" parent="1">
          <mxGeometry x="804.5900000000001" y="22.52999999999996" width="85.17" height="35.43" as="geometry" />
        </mxCell>
        <mxCell id="0Ov8n9n56HKdVS319JqA-1051" value="&lt;p style=&quot;line-height: 100%;&quot;&gt;TIM2&lt;/p&gt;" style="rounded=0;whiteSpace=wrap;html=1;fontSize=20;fontFamily=Gost Type B;fontStyle=2;fontSource=https%3A%2F%2Ffonts.googleapis.com%2Fcss%3Ffamily%3DGost%2BType%2BB;" vertex="1" parent="1">
          <mxGeometry x="804.587" y="65.83699999999996" width="78.8" height="35.43" as="geometry" />
        </mxCell>
        <mxCell id="0Ov8n9n56HKdVS319JqA-1052" value="&lt;p style=&quot;line-height: 100%;&quot;&gt;TIM3&lt;/p&gt;" style="rounded=0;whiteSpace=wrap;html=1;fontSize=20;fontFamily=Gost Type B;fontStyle=2;fontSource=https%3A%2F%2Ffonts.googleapis.com%2Fcss%3Ffamily%3DGost%2BType%2BB;" vertex="1" parent="1">
          <mxGeometry x="804.594" y="109.144" width="78.8" height="35.43" as="geometry" />
        </mxCell>
        <mxCell id="0Ov8n9n56HKdVS319JqA-1053" value="&lt;p style=&quot;line-height: 100%;&quot;&gt;TIM4&lt;/p&gt;" style="rounded=0;whiteSpace=wrap;html=1;fontSize=20;fontFamily=Gost Type B;fontStyle=2;fontSource=https%3A%2F%2Ffonts.googleapis.com%2Fcss%3Ffamily%3DGost%2BType%2BB;" vertex="1" parent="1">
          <mxGeometry x="804.5839999999998" y="151.58400000000006" width="78.8" height="35.43" as="geometry" />
        </mxCell>
        <mxCell id="0Ov8n9n56HKdVS319JqA-1054" value="&lt;p style=&quot;line-height: 100%;&quot;&gt;USART2&lt;/p&gt;" style="rounded=0;whiteSpace=wrap;html=1;fontSize=20;fontFamily=Gost Type B;fontStyle=2;fontSource=https%3A%2F%2Ffonts.googleapis.com%2Fcss%3Ffamily%3DGost%2BType%2BB;" vertex="1" parent="1">
          <mxGeometry x="804.5909999999999" y="194.89100000000002" width="78.8" height="35.43" as="geometry" />
        </mxCell>
        <mxCell id="0Ov8n9n56HKdVS319JqA-1055" value="&lt;p style=&quot;line-height: 100%;&quot;&gt;USART3&lt;/p&gt;" style="rounded=0;whiteSpace=wrap;html=1;fontSize=20;fontFamily=Gost Type B;fontStyle=2;fontSource=https%3A%2F%2Ffonts.googleapis.com%2Fcss%3Ffamily%3DGost%2BType%2BB;" vertex="1" parent="1">
          <mxGeometry x="804.5769999999998" y="250.86699999999988" width="78.8" height="35.43" as="geometry" />
        </mxCell>
        <mxCell id="0Ov8n9n56HKdVS319JqA-1056" value="&lt;p style=&quot;line-height: 100%;&quot;&gt;SPI2&lt;/p&gt;" style="rounded=0;whiteSpace=wrap;html=1;fontSize=20;fontFamily=Gost Type B;fontStyle=2;fontSource=https%3A%2F%2Ffonts.googleapis.com%2Fcss%3Ffamily%3DGost%2BType%2BB;" vertex="1" parent="1">
          <mxGeometry x="804.5740000000001" y="294.1739999999999" width="78.8" height="35.43" as="geometry" />
        </mxCell>
        <mxCell id="0Ov8n9n56HKdVS319JqA-1057" value="&lt;p style=&quot;line-height: 100%;&quot;&gt;I2C1&lt;/p&gt;" style="rounded=0;whiteSpace=wrap;html=1;fontSize=20;fontFamily=Gost Type B;fontStyle=2;fontSource=https%3A%2F%2Ffonts.googleapis.com%2Fcss%3Ffamily%3DGost%2BType%2BB;" vertex="1" parent="1">
          <mxGeometry x="804.5810000000001" y="337.48099999999994" width="78.8" height="35.43" as="geometry" />
        </mxCell>
        <mxCell id="0Ov8n9n56HKdVS319JqA-1058" value="&lt;p style=&quot;line-height: 100%;&quot;&gt;I2C2&lt;/p&gt;" style="rounded=0;whiteSpace=wrap;html=1;fontSize=20;fontFamily=Gost Type B;fontStyle=2;fontSource=https%3A%2F%2Ffonts.googleapis.com%2Fcss%3Ffamily%3DGost%2BType%2BB;" vertex="1" parent="1">
          <mxGeometry x="804.5709999999999" y="379.921" width="78.8" height="35.43" as="geometry" />
        </mxCell>
        <mxCell id="0Ov8n9n56HKdVS319JqA-1059" value="&lt;p style=&quot;line-height: 100%;&quot;&gt;CAN&lt;/p&gt;" style="rounded=0;whiteSpace=wrap;html=1;fontSize=20;fontFamily=Gost Type B;fontStyle=2;fontSource=https%3A%2F%2Ffonts.googleapis.com%2Fcss%3Ffamily%3DGost%2BType%2BB;" vertex="1" parent="1">
          <mxGeometry x="804.578" y="423.228" width="78.8" height="35.43" as="geometry" />
        </mxCell>
        <mxCell id="0Ov8n9n56HKdVS319JqA-1060" value="&lt;p style=&quot;line-height: 100%;&quot;&gt;USB&lt;/p&gt;" style="rounded=0;whiteSpace=wrap;html=1;fontSize=20;fontFamily=Gost Type B;fontStyle=2;fontSource=https%3A%2F%2Ffonts.googleapis.com%2Fcss%3Ffamily%3DGost%2BType%2BB;" vertex="1" parent="1">
          <mxGeometry x="804.5949999999998" y="467.4049999999999" width="78.8" height="35.43" as="geometry" />
        </mxCell>
        <mxCell id="0Ov8n9n56HKdVS319JqA-1061" value="&lt;p style=&quot;line-height: 100%;&quot;&gt;GPIOA&lt;br&gt;&lt;/p&gt;" style="rounded=0;whiteSpace=wrap;html=1;fontSize=20;fontFamily=Gost Type B;fontStyle=2;fontSource=https%3A%2F%2Ffonts.googleapis.com%2Fcss%3Ffamily%3DGost%2BType%2BB;" vertex="1" parent="1">
          <mxGeometry x="442.3810000000001" y="151.58100000000007" width="78.8" height="35.43" as="geometry" />
        </mxCell>
        <mxCell id="0Ov8n9n56HKdVS319JqA-1062" value="&lt;p style=&quot;line-height: 100%;&quot;&gt;GPIOB&lt;br&gt;&lt;/p&gt;" style="rounded=0;whiteSpace=wrap;html=1;fontSize=20;fontFamily=Gost Type B;fontStyle=2;fontSource=https%3A%2F%2Ffonts.googleapis.com%2Fcss%3Ffamily%3DGost%2BType%2BB;" vertex="1" parent="1">
          <mxGeometry x="442.38800000000015" y="194.88799999999998" width="78.8" height="35.43" as="geometry" />
        </mxCell>
        <mxCell id="0Ov8n9n56HKdVS319JqA-1063" value="&lt;p style=&quot;line-height: 100%;&quot;&gt;GPIOC&lt;br&gt;&lt;/p&gt;" style="rounded=0;whiteSpace=wrap;html=1;fontSize=20;fontFamily=Gost Type B;fontStyle=2;fontSource=https%3A%2F%2Ffonts.googleapis.com%2Fcss%3Ffamily%3DGost%2BType%2BB;" vertex="1" parent="1">
          <mxGeometry x="442.374" y="250.86399999999995" width="78.8" height="35.43" as="geometry" />
        </mxCell>
        <mxCell id="0Ov8n9n56HKdVS319JqA-1064" value="&lt;p style=&quot;line-height: 100%;&quot;&gt;GPIOD&lt;br&gt;&lt;/p&gt;" style="rounded=0;whiteSpace=wrap;html=1;fontSize=20;fontFamily=Gost Type B;fontStyle=2;fontSource=https%3A%2F%2Ffonts.googleapis.com%2Fcss%3Ffamily%3DGost%2BType%2BB;" vertex="1" parent="1">
          <mxGeometry x="442.3710000000001" y="294.171" width="78.8" height="35.43" as="geometry" />
        </mxCell>
        <mxCell id="0Ov8n9n56HKdVS319JqA-1065" value="&lt;p style=&quot;line-height: 100%;&quot;&gt;GPIOE&lt;br&gt;&lt;/p&gt;" style="rounded=0;whiteSpace=wrap;html=1;fontSize=20;fontFamily=Gost Type B;fontStyle=2;fontSource=https%3A%2F%2Ffonts.googleapis.com%2Fcss%3Ffamily%3DGost%2BType%2BB;" vertex="1" parent="1">
          <mxGeometry x="442.37800000000016" y="337.478" width="78.8" height="35.43" as="geometry" />
        </mxCell>
        <mxCell id="0Ov8n9n56HKdVS319JqA-1066" value="&lt;p style=&quot;line-height: 100%;&quot;&gt;TIM1&lt;/p&gt;" style="rounded=0;whiteSpace=wrap;html=1;fontSize=20;fontFamily=Gost Type B;fontStyle=2;fontSource=https%3A%2F%2Ffonts.googleapis.com%2Fcss%3Ffamily%3DGost%2BType%2BB;" vertex="1" parent="1">
          <mxGeometry x="442.36800000000017" y="379.91800000000006" width="78.8" height="35.43" as="geometry" />
        </mxCell>
        <mxCell id="0Ov8n9n56HKdVS319JqA-1067" value="&lt;p style=&quot;line-height: 100%;&quot;&gt;SPI1&lt;/p&gt;" style="rounded=0;whiteSpace=wrap;html=1;fontSize=20;fontFamily=Gost Type B;fontStyle=2;fontSource=https%3A%2F%2Ffonts.googleapis.com%2Fcss%3Ffamily%3DGost%2BType%2BB;" vertex="1" parent="1">
          <mxGeometry x="442.375" y="423.22499999999985" width="78.8" height="35.43" as="geometry" />
        </mxCell>
        <mxCell id="0Ov8n9n56HKdVS319JqA-1068" value="&lt;p style=&quot;line-height: 100%;&quot;&gt;USART1&lt;/p&gt;" style="rounded=0;whiteSpace=wrap;html=1;fontSize=20;fontFamily=Gost Type B;fontStyle=2;fontSource=https%3A%2F%2Ffonts.googleapis.com%2Fcss%3Ffamily%3DGost%2BType%2BB;" vertex="1" parent="1">
          <mxGeometry x="442.39200000000005" y="467.402" width="78.8" height="35.43" as="geometry" />
        </mxCell>
        <mxCell id="0Ov8n9n56HKdVS319JqA-1069" value="&lt;p style=&quot;line-height: 100%;&quot;&gt;EXTI WAKEUP&lt;/p&gt;" style="rounded=0;whiteSpace=wrap;html=1;fontSize=20;fontFamily=Gost Type B;fontStyle=2;fontSource=https%3A%2F%2Ffonts.googleapis.com%2Fcss%3Ffamily%3DGost%2BType%2BB;" vertex="1" parent="1">
          <mxGeometry x="427.5799999999999" y="100.26999999999995" width="94.59" height="35.43" as="geometry" />
        </mxCell>
        <mxCell id="0Ov8n9n56HKdVS319JqA-1070" value="" style="endArrow=open;startArrow=none;html=1;rounded=0;endFill=0;startFill=0;exitX=0.75;exitY=0;exitDx=0;exitDy=0;fontStyle=2;fontFamily=Gost Type B;fontSource=https%3A%2F%2Ffonts.googleapis.com%2Fcss%3Ffamily%3DGost%2BType%2BB;" edge="1" parent="1" source="0Ov8n9n56HKdVS319JqA-1069">
          <mxGeometry width="50" height="50" relative="1" as="geometry">
            <mxPoint x="604.2570000000001" y="-61.32299999999999" as="sourcePoint" />
            <mxPoint x="498.31999999999994" y="-139.26000000000002" as="targetPoint" />
          </mxGeometry>
        </mxCell>
        <mxCell id="0Ov8n9n56HKdVS319JqA-1071" value="" style="endArrow=open;startArrow=open;html=1;rounded=0;endFill=0;startFill=0;exitX=0.66;exitY=0.013;exitDx=0;exitDy=0;exitPerimeter=0;fontStyle=2;fontFamily=Gost Type B;fontSource=https%3A%2F%2Ffonts.googleapis.com%2Fcss%3Ffamily%3DGost%2BType%2BB;" edge="1" parent="1">
          <mxGeometry width="50" height="50" relative="1" as="geometry">
            <mxPoint x="708.4470000000001" y="104.52699999999996" as="sourcePoint" />
            <mxPoint x="758.3199999999997" y="104.73999999999998" as="targetPoint" />
          </mxGeometry>
        </mxCell>
        <mxCell id="0Ov8n9n56HKdVS319JqA-1072" value="" style="endArrow=open;startArrow=open;html=1;rounded=0;endFill=0;startFill=0;exitX=0.66;exitY=0.013;exitDx=0;exitDy=0;exitPerimeter=0;fontStyle=2;fontFamily=Gost Type B;fontSource=https%3A%2F%2Ffonts.googleapis.com%2Fcss%3Ffamily%3DGost%2BType%2BB;" edge="1" parent="1">
          <mxGeometry width="50" height="50" relative="1" as="geometry">
            <mxPoint x="570.6439999999998" y="104.52399999999997" as="sourcePoint" />
            <mxPoint x="620.5169999999998" y="104.737" as="targetPoint" />
          </mxGeometry>
        </mxCell>
        <mxCell id="0Ov8n9n56HKdVS319JqA-1073" value="" style="endArrow=open;startArrow=open;html=1;rounded=0;endFill=0;startFill=0;fontStyle=2;fontFamily=Gost Type B;fontSource=https%3A%2F%2Ffonts.googleapis.com%2Fcss%3Ffamily%3DGost%2BType%2BB;" edge="1" parent="1">
          <mxGeometry width="50" height="50" relative="1" as="geometry">
            <mxPoint x="759.3199999999997" y="41.73999999999999" as="sourcePoint" />
            <mxPoint x="805.3199999999997" y="41.73999999999999" as="targetPoint" />
          </mxGeometry>
        </mxCell>
        <mxCell id="0Ov8n9n56HKdVS319JqA-1074" value="" style="endArrow=open;startArrow=open;html=1;rounded=0;endFill=0;startFill=0;fontStyle=2;fontFamily=Gost Type B;fontSource=https%3A%2F%2Ffonts.googleapis.com%2Fcss%3Ffamily%3DGost%2BType%2BB;" edge="1" parent="1">
          <mxGeometry width="50" height="50" relative="1" as="geometry">
            <mxPoint x="759.317" y="85.047" as="sourcePoint" />
            <mxPoint x="805.317" y="85.047" as="targetPoint" />
          </mxGeometry>
        </mxCell>
        <mxCell id="0Ov8n9n56HKdVS319JqA-1075" value="" style="endArrow=open;startArrow=open;html=1;rounded=0;endFill=0;startFill=0;fontStyle=2;fontFamily=Gost Type B;fontSource=https%3A%2F%2Ffonts.googleapis.com%2Fcss%3Ffamily%3DGost%2BType%2BB;" edge="1" parent="1">
          <mxGeometry width="50" height="50" relative="1" as="geometry">
            <mxPoint x="759.3139999999999" y="128.35400000000004" as="sourcePoint" />
            <mxPoint x="805.3139999999999" y="128.35400000000004" as="targetPoint" />
          </mxGeometry>
        </mxCell>
        <mxCell id="0Ov8n9n56HKdVS319JqA-1076" value="" style="endArrow=open;startArrow=open;html=1;rounded=0;endFill=0;startFill=0;fontStyle=2;fontFamily=Gost Type B;fontSource=https%3A%2F%2Ffonts.googleapis.com%2Fcss%3Ffamily%3DGost%2BType%2BB;" edge="1" parent="1">
          <mxGeometry width="50" height="50" relative="1" as="geometry">
            <mxPoint x="759.3209999999999" y="167.73100000000005" as="sourcePoint" />
            <mxPoint x="805.3209999999999" y="167.73100000000005" as="targetPoint" />
          </mxGeometry>
        </mxCell>
        <mxCell id="0Ov8n9n56HKdVS319JqA-1077" value="" style="endArrow=open;startArrow=open;html=1;rounded=0;endFill=0;startFill=0;fontStyle=2;fontFamily=Gost Type B;fontSource=https%3A%2F%2Ffonts.googleapis.com%2Fcss%3Ffamily%3DGost%2BType%2BB;" edge="1" parent="1">
          <mxGeometry width="50" height="50" relative="1" as="geometry">
            <mxPoint x="759.3180000000002" y="214.978" as="sourcePoint" />
            <mxPoint x="805.3180000000002" y="214.978" as="targetPoint" />
          </mxGeometry>
        </mxCell>
        <mxCell id="0Ov8n9n56HKdVS319JqA-1078" value="" style="endArrow=open;startArrow=open;html=1;rounded=0;endFill=0;startFill=0;fontStyle=2;fontFamily=Gost Type B;fontSource=https%3A%2F%2Ffonts.googleapis.com%2Fcss%3Ffamily%3DGost%2BType%2BB;" edge="1" parent="1">
          <mxGeometry width="50" height="50" relative="1" as="geometry">
            <mxPoint x="759.315" y="270.09499999999997" as="sourcePoint" />
            <mxPoint x="805.315" y="270.09499999999997" as="targetPoint" />
          </mxGeometry>
        </mxCell>
        <mxCell id="0Ov8n9n56HKdVS319JqA-1079" value="" style="endArrow=open;startArrow=open;html=1;rounded=0;endFill=0;startFill=0;fontStyle=2;fontFamily=Gost Type B;fontSource=https%3A%2F%2Ffonts.googleapis.com%2Fcss%3Ffamily%3DGost%2BType%2BB;" edge="1" parent="1">
          <mxGeometry width="50" height="50" relative="1" as="geometry">
            <mxPoint x="759.3119999999999" y="313.402" as="sourcePoint" />
            <mxPoint x="805.3119999999999" y="313.402" as="targetPoint" />
          </mxGeometry>
        </mxCell>
        <mxCell id="0Ov8n9n56HKdVS319JqA-1080" value="" style="endArrow=open;startArrow=open;html=1;rounded=0;endFill=0;startFill=0;fontStyle=2;fontFamily=Gost Type B;fontSource=https%3A%2F%2Ffonts.googleapis.com%2Fcss%3Ffamily%3DGost%2BType%2BB;" edge="1" parent="1">
          <mxGeometry width="50" height="50" relative="1" as="geometry">
            <mxPoint x="759.3090000000002" y="356.709" as="sourcePoint" />
            <mxPoint x="805.3090000000002" y="356.709" as="targetPoint" />
          </mxGeometry>
        </mxCell>
        <mxCell id="0Ov8n9n56HKdVS319JqA-1081" value="" style="endArrow=open;startArrow=open;html=1;rounded=0;endFill=0;startFill=0;fontStyle=2;fontFamily=Gost Type B;fontSource=https%3A%2F%2Ffonts.googleapis.com%2Fcss%3Ffamily%3DGost%2BType%2BB;" edge="1" parent="1">
          <mxGeometry width="50" height="50" relative="1" as="geometry">
            <mxPoint x="759.306" y="400.016" as="sourcePoint" />
            <mxPoint x="805.306" y="400.016" as="targetPoint" />
          </mxGeometry>
        </mxCell>
        <mxCell id="0Ov8n9n56HKdVS319JqA-1082" value="" style="endArrow=open;startArrow=open;html=1;rounded=0;endFill=0;startFill=0;fontStyle=2;fontFamily=Gost Type B;fontSource=https%3A%2F%2Ffonts.googleapis.com%2Fcss%3Ffamily%3DGost%2BType%2BB;" edge="1" parent="1">
          <mxGeometry width="50" height="50" relative="1" as="geometry">
            <mxPoint x="759.3029999999999" y="443.32300000000004" as="sourcePoint" />
            <mxPoint x="805.3029999999999" y="443.32300000000004" as="targetPoint" />
          </mxGeometry>
        </mxCell>
        <mxCell id="0Ov8n9n56HKdVS319JqA-1083" value="" style="endArrow=open;startArrow=open;html=1;rounded=0;endFill=0;startFill=0;fontStyle=2;fontFamily=Gost Type B;fontSource=https%3A%2F%2Ffonts.googleapis.com%2Fcss%3Ffamily%3DGost%2BType%2BB;" edge="1" parent="1">
          <mxGeometry width="50" height="50" relative="1" as="geometry">
            <mxPoint x="759.3000000000002" y="486.6300000000001" as="sourcePoint" />
            <mxPoint x="805.3000000000002" y="486.6300000000001" as="targetPoint" />
          </mxGeometry>
        </mxCell>
        <mxCell id="0Ov8n9n56HKdVS319JqA-1084" value="" style="endArrow=open;startArrow=open;html=1;rounded=0;endFill=0;startFill=0;fontStyle=2;fontFamily=Gost Type B;fontSource=https%3A%2F%2Ffonts.googleapis.com%2Fcss%3Ffamily%3DGost%2BType%2BB;" edge="1" parent="1">
          <mxGeometry width="50" height="50" relative="1" as="geometry">
            <mxPoint x="522.0770000000002" y="119.47700000000009" as="sourcePoint" />
            <mxPoint x="569.3199999999999" y="119.74000000000001" as="targetPoint" />
          </mxGeometry>
        </mxCell>
        <mxCell id="0Ov8n9n56HKdVS319JqA-1085" value="" style="endArrow=open;startArrow=open;html=1;rounded=0;endFill=0;startFill=0;fontStyle=2;fontFamily=Gost Type B;fontSource=https%3A%2F%2Ffonts.googleapis.com%2Fcss%3Ffamily%3DGost%2BType%2BB;" edge="1" parent="1">
          <mxGeometry width="50" height="50" relative="1" as="geometry">
            <mxPoint x="521.0740000000001" y="167.7240000000001" as="sourcePoint" />
            <mxPoint x="568.317" y="167.98700000000002" as="targetPoint" />
          </mxGeometry>
        </mxCell>
        <mxCell id="0Ov8n9n56HKdVS319JqA-1086" value="" style="endArrow=open;startArrow=open;html=1;rounded=0;endFill=0;startFill=0;fontStyle=2;fontFamily=Gost Type B;fontSource=https%3A%2F%2Ffonts.googleapis.com%2Fcss%3Ffamily%3DGost%2BType%2BB;" edge="1" parent="1">
          <mxGeometry width="50" height="50" relative="1" as="geometry">
            <mxPoint x="521.0710000000004" y="211.03100000000012" as="sourcePoint" />
            <mxPoint x="568.3139999999999" y="211.29400000000004" as="targetPoint" />
          </mxGeometry>
        </mxCell>
        <mxCell id="0Ov8n9n56HKdVS319JqA-1087" value="" style="endArrow=open;startArrow=open;html=1;rounded=0;endFill=0;startFill=0;fontStyle=2;fontFamily=Gost Type B;fontSource=https%3A%2F%2Ffonts.googleapis.com%2Fcss%3Ffamily%3DGost%2BType%2BB;" edge="1" parent="1">
          <mxGeometry width="50" height="50" relative="1" as="geometry">
            <mxPoint x="521.0680000000002" y="270.08800000000014" as="sourcePoint" />
            <mxPoint x="568.3109999999999" y="270.35100000000006" as="targetPoint" />
          </mxGeometry>
        </mxCell>
        <mxCell id="0Ov8n9n56HKdVS319JqA-1088" value="" style="endArrow=open;startArrow=open;html=1;rounded=0;endFill=0;startFill=0;fontStyle=2;fontFamily=Gost Type B;fontSource=https%3A%2F%2Ffonts.googleapis.com%2Fcss%3Ffamily%3DGost%2BType%2BB;" edge="1" parent="1">
          <mxGeometry width="50" height="50" relative="1" as="geometry">
            <mxPoint x="521.065" y="313.39500000000015" as="sourcePoint" />
            <mxPoint x="568.308" y="313.6580000000001" as="targetPoint" />
          </mxGeometry>
        </mxCell>
        <mxCell id="0Ov8n9n56HKdVS319JqA-1089" value="" style="endArrow=open;startArrow=open;html=1;rounded=0;endFill=0;startFill=0;fontStyle=2;fontFamily=Gost Type B;fontSource=https%3A%2F%2Ffonts.googleapis.com%2Fcss%3Ffamily%3DGost%2BType%2BB;" edge="1" parent="1">
          <mxGeometry width="50" height="50" relative="1" as="geometry">
            <mxPoint x="521.0620000000004" y="355.70200000000017" as="sourcePoint" />
            <mxPoint x="568.3049999999998" y="355.9650000000001" as="targetPoint" />
          </mxGeometry>
        </mxCell>
        <mxCell id="0Ov8n9n56HKdVS319JqA-1090" value="" style="endArrow=open;startArrow=open;html=1;rounded=0;endFill=0;startFill=0;fontStyle=2;fontFamily=Gost Type B;fontSource=https%3A%2F%2Ffonts.googleapis.com%2Fcss%3Ffamily%3DGost%2BType%2BB;" edge="1" parent="1">
          <mxGeometry width="50" height="50" relative="1" as="geometry">
            <mxPoint x="521.0590000000002" y="396.0790000000001" as="sourcePoint" />
            <mxPoint x="568.3019999999999" y="396.34200000000004" as="targetPoint" />
          </mxGeometry>
        </mxCell>
        <mxCell id="0Ov8n9n56HKdVS319JqA-1091" value="" style="endArrow=open;startArrow=open;html=1;rounded=0;endFill=0;startFill=0;fontStyle=2;fontFamily=Gost Type B;fontSource=https%3A%2F%2Ffonts.googleapis.com%2Fcss%3Ffamily%3DGost%2BType%2BB;" edge="1" parent="1">
          <mxGeometry width="50" height="50" relative="1" as="geometry">
            <mxPoint x="521.056" y="440.39600000000036" as="sourcePoint" />
            <mxPoint x="568.299" y="440.6590000000003" as="targetPoint" />
          </mxGeometry>
        </mxCell>
        <mxCell id="0Ov8n9n56HKdVS319JqA-1092" value="" style="endArrow=open;startArrow=open;html=1;rounded=0;endFill=0;startFill=0;fontStyle=2;fontFamily=Gost Type B;fontSource=https%3A%2F%2Ffonts.googleapis.com%2Fcss%3Ffamily%3DGost%2BType%2BB;" edge="1" parent="1">
          <mxGeometry width="50" height="50" relative="1" as="geometry">
            <mxPoint x="521.0530000000003" y="485.6430000000005" as="sourcePoint" />
            <mxPoint x="568.2959999999998" y="485.9060000000004" as="targetPoint" />
          </mxGeometry>
        </mxCell>
        <mxCell id="0Ov8n9n56HKdVS319JqA-1093" value="&lt;div style=&quot;text-align: center;&quot;&gt;&lt;span style=&quot;background-color: initial; font-size: 20px;&quot;&gt;&lt;font&gt;&lt;span&gt;STM32F103C8T6&lt;/span&gt;&lt;/font&gt;&lt;/span&gt;&lt;/div&gt;" style="text;whiteSpace=wrap;html=1;fontStyle=2;fontFamily=Gost Type B;fontSource=https%3A%2F%2Ffonts.googleapis.com%2Fcss%3Ffamily%3DGost%2BType%2BB;" vertex="1" parent="1">
          <mxGeometry x="755.9200000000001" y="-241.01999999999998" width="110.23" height="37.11" as="geometry" />
        </mxCell>
        <mxCell id="0Ov8n9n56HKdVS319JqA-1094" value="&lt;div style=&quot;text-align: center;&quot;&gt;&lt;font&gt;&lt;span style=&quot;font-size: 20px;&quot;&gt;&lt;span&gt;VDDA&lt;/span&gt;&lt;/span&gt;&lt;/font&gt;&lt;/div&gt;" style="text;whiteSpace=wrap;html=1;fontStyle=2;fontFamily=Gost Type B;fontSource=https%3A%2F%2Ffonts.googleapis.com%2Fcss%3Ffamily%3DGost%2BType%2BB;" vertex="1" parent="1">
          <mxGeometry x="889.76" y="-202.03" width="42.36" height="37.04" as="geometry" />
        </mxCell>
        <mxCell id="0Ov8n9n56HKdVS319JqA-1095" value="&lt;div style=&quot;text-align: center;&quot;&gt;&lt;font&gt;&lt;span style=&quot;font-size: 20px;&quot;&gt;VSSA&lt;/span&gt;&lt;/font&gt;&lt;/div&gt;" style="text;whiteSpace=wrap;html=1;fontStyle=2;fontFamily=Gost Type B;fontSource=https%3A%2F%2Ffonts.googleapis.com%2Fcss%3Ffamily%3DGost%2BType%2BB;" vertex="1" parent="1">
          <mxGeometry x="889.76" y="-168.96999999999997" width="42.37" height="37.04" as="geometry" />
        </mxCell>
        <mxCell id="0Ov8n9n56HKdVS319JqA-1096" value="" style="endArrow=blockThin;html=1;rounded=0;endFill=1;fontStyle=2;fontFamily=Gost Type B;fontSource=https%3A%2F%2Ffonts.googleapis.com%2Fcss%3Ffamily%3DGost%2BType%2BB;exitX=0.998;exitY=0.07;exitDx=0;exitDy=0;exitPerimeter=0;" edge="1" parent="1" source="0Ov8n9n56HKdVS319JqA-1028">
          <mxGeometry width="50" height="50" relative="1" as="geometry">
            <mxPoint x="950" y="-183" as="sourcePoint" />
            <mxPoint x="983.8900000000003" y="-242.06" as="targetPoint" />
            <Array as="points">
              <mxPoint x="984.1300000000001" y="-183.25" />
            </Array>
          </mxGeometry>
        </mxCell>
        <mxCell id="0Ov8n9n56HKdVS319JqA-1097" value="" style="endArrow=none;html=1;rounded=0;endFill=0;fontStyle=2;fontFamily=Gost Type B;fontSource=https%3A%2F%2Ffonts.googleapis.com%2Fcss%3Ffamily%3DGost%2BType%2BB;exitX=0.999;exitY=0.111;exitDx=0;exitDy=0;exitPerimeter=0;" edge="1" parent="1" source="0Ov8n9n56HKdVS319JqA-1028">
          <mxGeometry width="50" height="50" relative="1" as="geometry">
            <mxPoint x="950.877" y="-144.913" as="sourcePoint" />
            <mxPoint x="983.8900000000003" y="-104.06000000000003" as="targetPoint" />
            <Array as="points">
              <mxPoint x="984.1300000000001" y="-151.25" />
            </Array>
          </mxGeometry>
        </mxCell>
        <mxCell id="0Ov8n9n56HKdVS319JqA-1098" value="" style="endArrow=none;html=1;rounded=0;fontStyle=2;fontFamily=Gost Type B;fontSource=https%3A%2F%2Ffonts.googleapis.com%2Fcss%3Ffamily%3DGost%2BType%2BB;" edge="1" parent="1">
          <mxGeometry width="50" height="50" relative="1" as="geometry">
            <mxPoint x="967.8900000000003" y="-104.06000000000003" as="sourcePoint" />
            <mxPoint x="1000.8900000000003" y="-104.06000000000003" as="targetPoint" />
          </mxGeometry>
        </mxCell>
        <mxCell id="0Ov8n9n56HKdVS319JqA-1099" value="&lt;div style=&quot;text-align: center;&quot;&gt;&lt;font&gt;&lt;span style=&quot;font-size: 20px;&quot;&gt;&lt;span&gt;GND&lt;/span&gt;&lt;/span&gt;&lt;/font&gt;&lt;/div&gt;" style="text;whiteSpace=wrap;html=1;fontStyle=2;fontFamily=Gost Type B;fontSource=https%3A%2F%2Ffonts.googleapis.com%2Fcss%3Ffamily%3DGost%2BType%2BB;" vertex="1" parent="1">
          <mxGeometry x="966.5500000000002" y="-110.37000000000003" width="35.42" height="32.26" as="geometry" />
        </mxCell>
        <mxCell id="0Ov8n9n56HKdVS319JqA-1100" value="&lt;div style=&quot;text-align: center;&quot;&gt;&lt;font&gt;&lt;span style=&quot;font-size: 20px;&quot;&gt;VCC&lt;/span&gt;&lt;/font&gt;&lt;/div&gt;" style="text;whiteSpace=wrap;html=1;fontStyle=2;fontFamily=Gost Type B;fontSource=https%3A%2F%2Ffonts.googleapis.com%2Fcss%3Ffamily%3DGost%2BType%2BB;" vertex="1" parent="1">
          <mxGeometry x="968.4969999999998" y="-269.653" width="35.42" height="32.26" as="geometry" />
        </mxCell>
        <mxCell id="0Ov8n9n56HKdVS319JqA-1101" value="" style="endArrow=none;html=1;rounded=0;exitX=1;exitY=0.75;exitDx=0;exitDy=0;fontStyle=2;fontFamily=Gost Type B;fontSource=https%3A%2F%2Ffonts.googleapis.com%2Fcss%3Ffamily%3DGost%2BType%2BB;" edge="1" parent="1" source="0Ov8n9n56HKdVS319JqA-1050">
          <mxGeometry width="50" height="50" relative="1" as="geometry">
            <mxPoint x="1038.8900000000003" y="68.93999999999997" as="sourcePoint" />
            <mxPoint x="979.8900000000003" y="48.939999999999976" as="targetPoint" />
          </mxGeometry>
        </mxCell>
        <mxCell id="0Ov8n9n56HKdVS319JqA-1102" value="" style="endArrow=none;html=1;rounded=0;exitX=1;exitY=0.25;exitDx=0;exitDy=0;fontStyle=2;fontFamily=Gost Type B;fontSource=https%3A%2F%2Ffonts.googleapis.com%2Fcss%3Ffamily%3DGost%2BType%2BB;" edge="1" parent="1" source="0Ov8n9n56HKdVS319JqA-1050">
          <mxGeometry width="50" height="50" relative="1" as="geometry">
            <mxPoint x="929.134" y="57.96399999999998" as="sourcePoint" />
            <mxPoint x="979.8900000000003" y="30.939999999999976" as="targetPoint" />
          </mxGeometry>
        </mxCell>
        <mxCell id="0Ov8n9n56HKdVS319JqA-1103" value="" style="rounded=0;whiteSpace=wrap;html=1;fontStyle=2;fontFamily=Gost Type B;fontSource=https%3A%2F%2Ffonts.googleapis.com%2Fcss%3Ffamily%3DGost%2BType%2BB;" vertex="1" parent="1">
          <mxGeometry x="1004.02" y="18.009999999999977" width="31.5" height="15.3" as="geometry" />
        </mxCell>
        <mxCell id="0Ov8n9n56HKdVS319JqA-1104" value="" style="endArrow=none;html=1;rounded=0;fontStyle=2;fontFamily=Gost Type B;fontSource=https%3A%2F%2Ffonts.googleapis.com%2Fcss%3Ffamily%3DGost%2BType%2BB;" edge="1" parent="1">
          <mxGeometry width="50" height="50" relative="1" as="geometry">
            <mxPoint x="1003.9200000000001" y="13.809999999999988" as="sourcePoint" />
            <mxPoint x="1035.92" y="13.809999999999988" as="targetPoint" />
          </mxGeometry>
        </mxCell>
        <mxCell id="0Ov8n9n56HKdVS319JqA-1105" value="" style="endArrow=none;html=1;rounded=0;fontStyle=2;fontFamily=Gost Type B;fontSource=https%3A%2F%2Ffonts.googleapis.com%2Fcss%3Ffamily%3DGost%2BType%2BB;" edge="1" parent="1">
          <mxGeometry width="50" height="50" relative="1" as="geometry">
            <mxPoint x="1003.9169999999999" y="37.43699999999999" as="sourcePoint" />
            <mxPoint x="1035.917" y="37.43699999999999" as="targetPoint" />
          </mxGeometry>
        </mxCell>
        <mxCell id="0Ov8n9n56HKdVS319JqA-1106" value="" style="endArrow=none;html=1;rounded=0;fontStyle=2;fontFamily=Gost Type B;fontSource=https%3A%2F%2Ffonts.googleapis.com%2Fcss%3Ffamily%3DGost%2BType%2BB;" edge="1" parent="1">
          <mxGeometry width="50" height="50" relative="1" as="geometry">
            <mxPoint x="979.8900000000003" y="48.939999999999976" as="sourcePoint" />
            <mxPoint x="1019.8900000000003" y="36.939999999999976" as="targetPoint" />
            <Array as="points">
              <mxPoint x="1019.8900000000003" y="48.939999999999976" />
            </Array>
          </mxGeometry>
        </mxCell>
        <mxCell id="0Ov8n9n56HKdVS319JqA-1107" value="" style="endArrow=none;html=1;rounded=0;fontStyle=2;fontFamily=Gost Type B;fontSource=https%3A%2F%2Ffonts.googleapis.com%2Fcss%3Ffamily%3DGost%2BType%2BB;" edge="1" parent="1">
          <mxGeometry width="50" height="50" relative="1" as="geometry">
            <mxPoint x="979.8900000000003" y="29.939999999999976" as="sourcePoint" />
            <mxPoint x="1019.8900000000003" y="13.939999999999984" as="targetPoint" />
            <Array as="points">
              <mxPoint x="979.8900000000003" y="1.9399999999999835" />
              <mxPoint x="1019.8900000000003" y="1.9399999999999835" />
            </Array>
          </mxGeometry>
        </mxCell>
        <mxCell id="0Ov8n9n56HKdVS319JqA-1108" value="&lt;div style=&quot;text-align: center;&quot;&gt;&lt;font&gt;&lt;span style=&quot;font-size: 20px;&quot;&gt;&lt;span&gt;ZQ1&lt;/span&gt;&lt;/span&gt;&lt;/font&gt;&lt;/div&gt;" style="text;whiteSpace=wrap;html=1;fontStyle=2;fontFamily=Gost Type B;fontSource=https%3A%2F%2Ffonts.googleapis.com%2Fcss%3Ffamily%3DGost%2BType%2BB;" vertex="1" parent="1">
          <mxGeometry x="1035.5169999999998" y="5.936999999999998" width="35.42" height="32.26" as="geometry" />
        </mxCell>
        <mxCell id="0Ov8n9n56HKdVS319JqA-1109" value="" style="endArrow=none;html=1;rounded=0;fontStyle=2;fontFamily=Gost Type B;fontSource=https%3A%2F%2Ffonts.googleapis.com%2Fcss%3Ffamily%3DGost%2BType%2BB;" edge="1" parent="1">
          <mxGeometry width="50" height="50" relative="1" as="geometry">
            <mxPoint x="1055.2700000000004" y="13.939999999999984" as="sourcePoint" />
            <mxPoint x="1055.2700000000004" y="-10.060000000000016" as="targetPoint" />
          </mxGeometry>
        </mxCell>
        <mxCell id="0Ov8n9n56HKdVS319JqA-1110" value="" style="endArrow=none;html=1;rounded=0;fontStyle=2;fontFamily=Gost Type B;fontSource=https%3A%2F%2Ffonts.googleapis.com%2Fcss%3Ffamily%3DGost%2BType%2BB;" edge="1" parent="1">
          <mxGeometry width="50" height="50" relative="1" as="geometry">
            <mxPoint x="1059.2070000000003" y="13.936999999999998" as="sourcePoint" />
            <mxPoint x="1059.2070000000003" y="-10.063000000000002" as="targetPoint" />
          </mxGeometry>
        </mxCell>
        <mxCell id="0Ov8n9n56HKdVS319JqA-1111" value="" style="endArrow=none;html=1;rounded=0;fontStyle=2;fontFamily=Gost Type B;fontSource=https%3A%2F%2Ffonts.googleapis.com%2Fcss%3Ffamily%3DGost%2BType%2BB;" edge="1" parent="1">
          <mxGeometry width="50" height="50" relative="1" as="geometry">
            <mxPoint x="1019.8900000000003" y="1.9399999999999835" as="sourcePoint" />
            <mxPoint x="1054.8900000000003" y="1.9399999999999835" as="targetPoint" />
          </mxGeometry>
        </mxCell>
        <mxCell id="0Ov8n9n56HKdVS319JqA-1112" value="" style="endArrow=none;html=1;rounded=0;fontStyle=2;fontFamily=Gost Type B;fontSource=https%3A%2F%2Ffonts.googleapis.com%2Fcss%3Ffamily%3DGost%2BType%2BB;" edge="1" parent="1">
          <mxGeometry width="50" height="50" relative="1" as="geometry">
            <mxPoint x="1055.2669999999998" y="61.18699999999999" as="sourcePoint" />
            <mxPoint x="1055.2669999999998" y="37.18699999999999" as="targetPoint" />
          </mxGeometry>
        </mxCell>
        <mxCell id="0Ov8n9n56HKdVS319JqA-1113" value="" style="endArrow=none;html=1;rounded=0;fontStyle=2;fontFamily=Gost Type B;fontSource=https%3A%2F%2Ffonts.googleapis.com%2Fcss%3Ffamily%3DGost%2BType%2BB;" edge="1" parent="1">
          <mxGeometry width="50" height="50" relative="1" as="geometry">
            <mxPoint x="1059.2039999999997" y="61.18399999999995" as="sourcePoint" />
            <mxPoint x="1059.2039999999997" y="37.18399999999995" as="targetPoint" />
          </mxGeometry>
        </mxCell>
        <mxCell id="0Ov8n9n56HKdVS319JqA-1114" value="" style="endArrow=none;html=1;rounded=0;fontStyle=2;fontFamily=Gost Type B;fontSource=https%3A%2F%2Ffonts.googleapis.com%2Fcss%3Ffamily%3DGost%2BType%2BB;" edge="1" parent="1">
          <mxGeometry width="50" height="50" relative="1" as="geometry">
            <mxPoint x="1019.8900000000003" y="48.939999999999976" as="sourcePoint" />
            <mxPoint x="1054.8900000000003" y="48.939999999999976" as="targetPoint" />
          </mxGeometry>
        </mxCell>
        <mxCell id="0Ov8n9n56HKdVS319JqA-1115" value="" style="endArrow=none;html=1;rounded=0;fontStyle=2;fontFamily=Gost Type B;fontSource=https%3A%2F%2Ffonts.googleapis.com%2Fcss%3Ffamily%3DGost%2BType%2BB;" edge="1" parent="1">
          <mxGeometry width="50" height="50" relative="1" as="geometry">
            <mxPoint x="1058.8900000000003" y="48.939999999999976" as="sourcePoint" />
            <mxPoint x="1058.8900000000003" y="1.9399999999999835" as="targetPoint" />
            <Array as="points">
              <mxPoint x="1094.8900000000003" y="48.939999999999976" />
              <mxPoint x="1094.8900000000003" y="1.9399999999999835" />
            </Array>
          </mxGeometry>
        </mxCell>
        <mxCell id="0Ov8n9n56HKdVS319JqA-1116" value="" style="endArrow=none;html=1;rounded=0;fontStyle=2;fontFamily=Gost Type B;fontSource=https%3A%2F%2Ffonts.googleapis.com%2Fcss%3Ffamily%3DGost%2BType%2BB;" edge="1" parent="1">
          <mxGeometry width="50" height="50" relative="1" as="geometry">
            <mxPoint x="1077.797" y="64.99699999999999" as="sourcePoint" />
            <mxPoint x="1110.797" y="64.99699999999999" as="targetPoint" />
          </mxGeometry>
        </mxCell>
        <mxCell id="0Ov8n9n56HKdVS319JqA-1117" value="&lt;div style=&quot;text-align: center;&quot;&gt;&lt;font&gt;&lt;span style=&quot;font-size: 20px;&quot;&gt;&lt;span&gt;GND&lt;/span&gt;&lt;/span&gt;&lt;/font&gt;&lt;/div&gt;" style="text;whiteSpace=wrap;html=1;fontStyle=2;fontFamily=Gost Type B;fontSource=https%3A%2F%2Ffonts.googleapis.com%2Fcss%3Ffamily%3DGost%2BType%2BB;" vertex="1" parent="1">
          <mxGeometry x="1076.9769999999999" y="60.82699999999998" width="35.42" height="32.26" as="geometry" />
        </mxCell>
        <mxCell id="0Ov8n9n56HKdVS319JqA-1118" value="" style="endArrow=none;html=1;rounded=0;fontStyle=2;fontFamily=Gost Type B;fontSource=https%3A%2F%2Ffonts.googleapis.com%2Fcss%3Ffamily%3DGost%2BType%2BB;" edge="1" parent="1">
          <mxGeometry width="50" height="50" relative="1" as="geometry">
            <mxPoint x="1094.8900000000003" y="64.93999999999997" as="sourcePoint" />
            <mxPoint x="1094.8900000000003" y="48.939999999999976" as="targetPoint" />
          </mxGeometry>
        </mxCell>
        <mxCell id="0Ov8n9n56HKdVS319JqA-1119" value="" style="ellipse;whiteSpace=wrap;html=1;aspect=fixed;fillColor=#000000;fontStyle=2;fontFamily=Gost Type B;fontSource=https%3A%2F%2Ffonts.googleapis.com%2Fcss%3Ffamily%3DGost%2BType%2BB;" vertex="1" parent="1">
          <mxGeometry x="1018.3900000000003" y="0.4599999999999653" width="3" height="3" as="geometry" />
        </mxCell>
        <mxCell id="0Ov8n9n56HKdVS319JqA-1120" value="" style="ellipse;whiteSpace=wrap;html=1;aspect=fixed;fillColor=#000000;fontStyle=2;fontFamily=Gost Type B;fontSource=https%3A%2F%2Ffonts.googleapis.com%2Fcss%3Ffamily%3DGost%2BType%2BB;" vertex="1" parent="1">
          <mxGeometry x="1018.3869999999997" y="47.70699999999997" width="3" height="3" as="geometry" />
        </mxCell>
        <mxCell id="0Ov8n9n56HKdVS319JqA-1121" value="" style="ellipse;whiteSpace=wrap;html=1;aspect=fixed;fillColor=#000000;fontStyle=2;fontFamily=Gost Type B;fontSource=https%3A%2F%2Ffonts.googleapis.com%2Fcss%3Ffamily%3DGost%2BType%2BB;" vertex="1" parent="1">
          <mxGeometry x="1093.1839999999997" y="47.703999999999986" width="3" height="3" as="geometry" />
        </mxCell>
        <mxCell id="0Ov8n9n56HKdVS319JqA-1122" value="&lt;div style=&quot;text-align: center;&quot;&gt;&lt;font&gt;&lt;span style=&quot;font-size: 20px;&quot;&gt;&lt;span&gt;C1&lt;/span&gt;&lt;/span&gt;&lt;/font&gt;&lt;/div&gt;" style="text;whiteSpace=wrap;html=1;fontStyle=2;fontFamily=Gost Type B;fontSource=https%3A%2F%2Ffonts.googleapis.com%2Fcss%3Ffamily%3DGost%2BType%2BB;" vertex="1" parent="1">
          <mxGeometry x="1047.0300000000002" y="-37.300000000000026" width="23.91" height="27.56" as="geometry" />
        </mxCell>
        <mxCell id="0Ov8n9n56HKdVS319JqA-1123" value="&lt;div style=&quot;text-align: center;&quot;&gt;&lt;font&gt;&lt;span style=&quot;font-size: 20px;&quot;&gt;&lt;span&gt;C2&lt;/span&gt;&lt;/span&gt;&lt;/font&gt;&lt;/div&gt;" style="text;whiteSpace=wrap;html=1;fontStyle=2;fontFamily=Gost Type B;fontSource=https%3A%2F%2Ffonts.googleapis.com%2Fcss%3Ffamily%3DGost%2BType%2BB;" vertex="1" parent="1">
          <mxGeometry x="1047.027" y="50.70699999999997" width="23.91" height="27.56" as="geometry" />
        </mxCell>
        <mxCell id="0Ov8n9n56HKdVS319JqA-1124" value="&lt;div style=&quot;text-align: center;&quot;&gt;&lt;span style=&quot;background-color: initial; font-size: 20px;&quot;&gt;&lt;font&gt;&lt;span&gt;NRST&lt;/span&gt;&lt;/font&gt;&lt;/span&gt;&lt;/div&gt;" style="text;whiteSpace=wrap;html=1;fontStyle=2;fontFamily=Gost Type B;fontSource=https%3A%2F%2Ffonts.googleapis.com%2Fcss%3Ffamily%3DGost%2BType%2BB;" vertex="1" parent="1">
          <mxGeometry x="421.26" y="-11.780000000000044" width="39.37" height="34.31" as="geometry" />
        </mxCell>
        <mxCell id="0Ov8n9n56HKdVS319JqA-1125" value="&lt;span style=&quot;color: rgb(0, 0, 0); font-style: italic; font-variant-ligatures: normal; font-variant-caps: normal; font-weight: 400; letter-spacing: normal; orphans: 2; text-align: center; text-indent: 0px; text-transform: none; widows: 2; word-spacing: 0px; -webkit-text-stroke-width: 0px; background-color: rgb(251, 251, 251); text-decoration-thickness: initial; text-decoration-style: initial; text-decoration-color: initial; float: none; display: inline !important;&quot;&gt;&lt;font style=&quot;font-size: 24px;&quot;&gt;*&lt;/font&gt;&lt;/span&gt;" style="text;whiteSpace=wrap;html=1;fontFamily=Gost Type B;fontSource=https%3A%2F%2Ffonts.googleapis.com%2Fcss%3Ffamily%3DGost%2BType%2BB;" vertex="1" parent="1">
          <mxGeometry x="578.06" y="-92.21" width="19.69" height="23.62" as="geometry" />
        </mxCell>
        <mxCell id="0Ov8n9n56HKdVS319JqA-1126" value="&lt;span style=&quot;color: rgb(0, 0, 0); font-style: italic; font-variant-ligatures: normal; font-variant-caps: normal; font-weight: 400; letter-spacing: normal; orphans: 2; text-align: center; text-indent: 0px; text-transform: none; widows: 2; word-spacing: 0px; -webkit-text-stroke-width: 0px; background-color: rgb(251, 251, 251); text-decoration-thickness: initial; text-decoration-style: initial; text-decoration-color: initial; float: none; display: inline !important;&quot;&gt;&lt;font style=&quot;font-size: 24px;&quot;&gt;*&lt;/font&gt;&lt;/span&gt;" style="text;whiteSpace=wrap;html=1;fontFamily=Gost Type B;fontSource=https%3A%2F%2Ffonts.googleapis.com%2Fcss%3Ffamily%3DGost%2BType%2BB;" vertex="1" parent="1">
          <mxGeometry x="659.6569999999999" y="-9.74300000000001" width="19.69" height="23.62" as="geometry" />
        </mxCell>
        <mxCell id="0Ov8n9n56HKdVS319JqA-1127" value="&lt;span style=&quot;color: rgb(0, 0, 0); font-style: italic; font-variant-ligatures: normal; font-variant-caps: normal; font-weight: 400; letter-spacing: normal; orphans: 2; text-align: center; text-indent: 0px; text-transform: none; widows: 2; word-spacing: 0px; -webkit-text-stroke-width: 0px; background-color: rgb(251, 251, 251); text-decoration-thickness: initial; text-decoration-style: initial; text-decoration-color: initial; float: none; display: inline !important;&quot;&gt;&lt;font style=&quot;font-size: 24px;&quot;&gt;*&lt;/font&gt;&lt;/span&gt;" style="text;whiteSpace=wrap;html=1;fontFamily=Gost Type B;fontSource=https%3A%2F%2Ffonts.googleapis.com%2Fcss%3Ffamily%3DGost%2BType%2BB;" vertex="1" parent="1">
          <mxGeometry x="501.47400000000016" y="144.574" width="19.69" height="23.62" as="geometry" />
        </mxCell>
        <mxCell id="0Ov8n9n56HKdVS319JqA-1128" value="&lt;span style=&quot;color: rgb(0, 0, 0); font-style: italic; font-variant-ligatures: normal; font-variant-caps: normal; font-weight: 400; letter-spacing: normal; orphans: 2; text-align: center; text-indent: 0px; text-transform: none; widows: 2; word-spacing: 0px; -webkit-text-stroke-width: 0px; background-color: rgb(251, 251, 251); text-decoration-thickness: initial; text-decoration-style: initial; text-decoration-color: initial; float: none; display: inline !important;&quot;&gt;&lt;font style=&quot;font-size: 24px;&quot;&gt;*&lt;/font&gt;&lt;/span&gt;" style="text;whiteSpace=wrap;html=1;fontFamily=Gost Type B;fontSource=https%3A%2F%2Ffonts.googleapis.com%2Fcss%3Ffamily%3DGost%2BType%2BB;" vertex="1" parent="1">
          <mxGeometry x="501.471" y="187.01100000000002" width="19.69" height="23.62" as="geometry" />
        </mxCell>
        <mxCell id="0Ov8n9n56HKdVS319JqA-1129" value="&lt;span style=&quot;color: rgb(0, 0, 0); font-style: italic; font-variant-ligatures: normal; font-variant-caps: normal; font-weight: 400; letter-spacing: normal; orphans: 2; text-align: center; text-indent: 0px; text-transform: none; widows: 2; word-spacing: 0px; -webkit-text-stroke-width: 0px; background-color: rgb(251, 251, 251); text-decoration-thickness: initial; text-decoration-style: initial; text-decoration-color: initial; float: none; display: inline !important;&quot;&gt;&lt;font style=&quot;font-size: 24px;&quot;&gt;*&lt;/font&gt;&lt;/span&gt;" style="text;whiteSpace=wrap;html=1;fontFamily=Gost Type B;fontSource=https%3A%2F%2Ffonts.googleapis.com%2Fcss%3Ffamily%3DGost%2BType%2BB;" vertex="1" parent="1">
          <mxGeometry x="501.472" y="415.35200000000003" width="19.69" height="23.62" as="geometry" />
        </mxCell>
        <mxCell id="0Ov8n9n56HKdVS319JqA-1130" value="&lt;span style=&quot;color: rgb(0, 0, 0); font-style: italic; font-variant-ligatures: normal; font-variant-caps: normal; font-weight: 400; letter-spacing: normal; orphans: 2; text-align: center; text-indent: 0px; text-transform: none; widows: 2; word-spacing: 0px; -webkit-text-stroke-width: 0px; background-color: rgb(251, 251, 251); text-decoration-thickness: initial; text-decoration-style: initial; text-decoration-color: initial; float: none; display: inline !important;&quot;&gt;&lt;font style=&quot;font-size: 24px;&quot;&gt;*&lt;/font&gt;&lt;/span&gt;" style="text;whiteSpace=wrap;html=1;fontFamily=Gost Type B;fontSource=https%3A%2F%2Ffonts.googleapis.com%2Fcss%3Ffamily%3DGost%2BType%2BB;" vertex="1" parent="1">
          <mxGeometry x="507.8789999999999" y="458.65900000000005" width="19.69" height="23.62" as="geometry" />
        </mxCell>
        <mxCell id="0Ov8n9n56HKdVS319JqA-1131" value="&lt;span style=&quot;color: rgb(0, 0, 0); font-style: italic; font-variant-ligatures: normal; font-variant-caps: normal; font-weight: 400; letter-spacing: normal; orphans: 2; text-align: center; text-indent: 0px; text-transform: none; widows: 2; word-spacing: 0px; -webkit-text-stroke-width: 0px; background-color: rgb(251, 251, 251); text-decoration-thickness: initial; text-decoration-style: initial; text-decoration-color: initial; float: none; display: inline !important;&quot;&gt;&lt;font style=&quot;font-size: 24px;&quot;&gt;*&lt;/font&gt;&lt;/span&gt;" style="text;whiteSpace=wrap;html=1;fontFamily=Gost Type B;fontSource=https%3A%2F%2Ffonts.googleapis.com%2Fcss%3Ffamily%3DGost%2BType%2BB;" vertex="1" parent="1">
          <mxGeometry x="866.1459999999997" y="57.95600000000005" width="19.69" height="23.62" as="geometry" />
        </mxCell>
        <mxCell id="0Ov8n9n56HKdVS319JqA-1132" value="" style="endArrow=none;html=1;rounded=0;entryX=0;entryY=0.5;entryDx=0;entryDy=0;fontStyle=2;exitX=1;exitY=0.5;exitDx=0;exitDy=0;fontFamily=Gost Type B;fontSource=https%3A%2F%2Ffonts.googleapis.com%2Fcss%3Ffamily%3DGost%2BType%2BB;" edge="1" parent="1" source="0Ov8n9n56HKdVS319JqA-1025" target="0Ov8n9n56HKdVS319JqA-1037">
          <mxGeometry width="50" height="50" relative="1" as="geometry">
            <mxPoint x="364.1300000000001" y="16.34699999999998" as="sourcePoint" />
            <mxPoint x="259.1300000000001" y="17.939999999999998" as="targetPoint" />
          </mxGeometry>
        </mxCell>
        <mxCell id="0Ov8n9n56HKdVS319JqA-1133" value="" style="group;fontFamily=Gost Type B;fontSource=https%3A%2F%2Ffonts.googleapis.com%2Fcss%3Ffamily%3DGost%2BType%2BB;" vertex="1" connectable="0" parent="1">
          <mxGeometry x="10" y="86.46000000000001" width="141.5" height="49.24" as="geometry" />
        </mxCell>
        <mxCell id="0Ov8n9n56HKdVS319JqA-1134" value="" style="rounded=0;whiteSpace=wrap;html=1;fontFamily=Gost Type B;fontSource=https%3A%2F%2Ffonts.googleapis.com%2Fcss%3Ffamily%3DGost%2BType%2BB;" vertex="1" parent="0Ov8n9n56HKdVS319JqA-1133">
          <mxGeometry y="1.560000000000004" width="141.5" height="47.68000000000005" as="geometry" />
        </mxCell>
        <mxCell id="0Ov8n9n56HKdVS319JqA-1135" value="&lt;div style=&quot;&quot;&gt;&lt;font&gt;&lt;span style=&quot;font-size: 16px;&quot;&gt;TIN&lt;/span&gt;&lt;/font&gt;&lt;/div&gt;&lt;div style=&quot;&quot;&gt;&lt;font&gt;&lt;span style=&quot;font-size: 16px;&quot;&gt;ROUT&lt;/span&gt;&lt;/font&gt;&lt;/div&gt;" style="text;whiteSpace=wrap;html=1;fontStyle=2;align=left;fontFamily=Gost Type B;fontSource=https%3A%2F%2Ffonts.googleapis.com%2Fcss%3Ffamily%3DGost%2BType%2BB;" vertex="1" parent="0Ov8n9n56HKdVS319JqA-1133">
          <mxGeometry x="0.2914290240811211" width="39.959402724968314" height="39.380000000000045" as="geometry" />
        </mxCell>
        <mxCell id="0Ov8n9n56HKdVS319JqA-1136" value="&lt;div style=&quot;&quot;&gt;&lt;font&gt;&lt;span style=&quot;font-size: 16px;&quot;&gt;TOUT&lt;/span&gt;&lt;/font&gt;&lt;/div&gt;&lt;div style=&quot;&quot;&gt;&lt;font&gt;&lt;span style=&quot;font-size: 16px;&quot;&gt;RIN&lt;/span&gt;&lt;/font&gt;&lt;/div&gt;" style="text;whiteSpace=wrap;html=1;fontStyle=2;align=right;fontFamily=Gost Type B;fontSource=https%3A%2F%2Ffonts.googleapis.com%2Fcss%3Ffamily%3DGost%2BType%2BB;" vertex="1" parent="0Ov8n9n56HKdVS319JqA-1133">
          <mxGeometry y="0.01000000000000001" width="137.34153200253485" height="39.380000000000045" as="geometry" />
        </mxCell>
        <mxCell id="0Ov8n9n56HKdVS319JqA-1137" value="" style="rounded=0;whiteSpace=wrap;html=1;fontFamily=Gost Type B;fontSource=https%3A%2F%2Ffonts.googleapis.com%2Fcss%3Ffamily%3DGost%2BType%2BB;" vertex="1" parent="0Ov8n9n56HKdVS319JqA-1133">
          <mxGeometry x="40.25" y="1.56" width="59.75" height="47.68" as="geometry" />
        </mxCell>
        <mxCell id="0Ov8n9n56HKdVS319JqA-1138" value="" style="endArrow=blockThin;startArrow=none;html=1;rounded=0;exitX=1.001;exitY=0.295;exitDx=0;exitDy=0;exitPerimeter=0;startFill=0;endFill=1;fontFamily=Gost Type B;fontSource=https%3A%2F%2Ffonts.googleapis.com%2Fcss%3Ffamily%3DGost%2BType%2BB;" edge="1" parent="1" source="0Ov8n9n56HKdVS319JqA-1134">
          <mxGeometry width="50" height="50" relative="1" as="geometry">
            <mxPoint x="167.59999999999997" y="138.3800000000001" as="sourcePoint" />
            <mxPoint x="195.33999999999997" y="102.38" as="targetPoint" />
          </mxGeometry>
        </mxCell>
        <mxCell id="0Ov8n9n56HKdVS319JqA-1139" value="" style="endArrow=blockThin;startArrow=none;html=1;rounded=0;startFill=0;endFill=1;fontFamily=Gost Type B;fontSource=https%3A%2F%2Ffonts.googleapis.com%2Fcss%3Ffamily%3DGost%2BType%2BB;" edge="1" parent="1">
          <mxGeometry width="50" height="50" relative="1" as="geometry">
            <mxPoint x="151.5" y="122.13999999999999" as="sourcePoint" />
            <mxPoint x="195.33999999999997" y="122.38000000000011" as="targetPoint" />
          </mxGeometry>
        </mxCell>
        <mxCell id="0Ov8n9n56HKdVS319JqA-1140" value="&lt;div style=&quot;text-align: center;&quot;&gt;&lt;font&gt;&lt;span style=&quot;font-size: 16px;&quot;&gt;К ПЭВМ&lt;/span&gt;&lt;/font&gt;&lt;/div&gt;" style="text;whiteSpace=wrap;html=1;fontStyle=2;container=0;opacity=50;fontFamily=Gost Type B;fontSource=https%3A%2F%2Ffonts.googleapis.com%2Fcss%3Ffamily%3DGost%2BType%2BB;" vertex="1" parent="1">
          <mxGeometry x="197.86" y="87.52000000000004" width="55.12" height="25.06" as="geometry" />
        </mxCell>
        <mxCell id="0Ov8n9n56HKdVS319JqA-1141" value="&lt;div style=&quot;text-align: center;&quot;&gt;&lt;font&gt;&lt;span style=&quot;font-size: 16px;&quot;&gt;RS-232&lt;/span&gt;&lt;/font&gt;&lt;/div&gt;" style="text;whiteSpace=wrap;html=1;fontStyle=2;container=0;opacity=50;fontFamily=Gost Type B;fontSource=https%3A%2F%2Ffonts.googleapis.com%2Fcss%3Ffamily%3DGost%2BType%2BB;" vertex="1" parent="1">
          <mxGeometry x="199.10700000000003" y="108.31700000000001" width="55.12" height="25.06" as="geometry" />
        </mxCell>
        <mxCell id="0Ov8n9n56HKdVS319JqA-1142" value="&lt;div style=&quot;text-align: center;&quot;&gt;&lt;font&gt;&lt;span style=&quot;font-size: 16px;&quot;&gt;&amp;nbsp; &amp;nbsp;Драйвер&amp;nbsp; &amp;nbsp;RS-232&lt;/span&gt;&lt;/font&gt;&lt;/div&gt;" style="text;whiteSpace=wrap;html=1;fontStyle=2;container=0;opacity=50;fontFamily=Gost Type B;fontSource=https%3A%2F%2Ffonts.googleapis.com%2Fcss%3Ffamily%3DGost%2BType%2BB;" vertex="1" parent="1">
          <mxGeometry x="29.610000000000042" y="62.46000000000003" width="88.66" height="25.06" as="geometry" />
        </mxCell>
        <mxCell id="0Ov8n9n56HKdVS319JqA-1143" value="" style="rounded=0;whiteSpace=wrap;html=1;fillColor=none;fontFamily=Gost Type B;fontSource=https%3A%2F%2Ffonts.googleapis.com%2Fcss%3Ffamily%3DGost%2BType%2BB;fontSize=16;" vertex="1" parent="1">
          <mxGeometry x="31.500000000000007" y="-228.86999999999998" width="180" height="129.84" as="geometry" />
        </mxCell>
        <mxCell id="0Ov8n9n56HKdVS319JqA-1144" value="VCCIO" style="text;html=1;align=center;verticalAlign=middle;resizable=0;points=[];autosize=1;strokeColor=none;fillColor=none;fontFamily=Gost Type B;fontSource=https%3A%2F%2Ffonts.googleapis.com%2Fcss%3Ffamily%3DGost%2BType%2BB;fontSize=16;" vertex="1" parent="1">
          <mxGeometry x="25.42" y="-227.61999999999992" width="60" height="30" as="geometry" />
        </mxCell>
        <mxCell id="0Ov8n9n56HKdVS319JqA-1146" value="USBO+" style="text;html=1;align=center;verticalAlign=middle;resizable=0;points=[];autosize=1;strokeColor=none;fillColor=none;fontFamily=Gost Type B;fontSource=https%3A%2F%2Ffonts.googleapis.com%2Fcss%3Ffamily%3DGost%2BType%2BB;fontSize=16;" vertex="1" parent="1">
          <mxGeometry x="21.500000000000007" y="-181.81000000000003" width="70" height="30" as="geometry" />
        </mxCell>
        <mxCell id="0Ov8n9n56HKdVS319JqA-1147" value="3V3OUT" style="text;html=1;align=center;verticalAlign=middle;resizable=0;points=[];autosize=1;strokeColor=none;fillColor=none;fontFamily=Gost Type B;fontSource=https%3A%2F%2Ffonts.googleapis.com%2Fcss%3Ffamily%3DGost%2BType%2BB;fontSize=16;" vertex="1" parent="1">
          <mxGeometry x="25.419999999999987" y="-156.6400000000001" width="70" height="30" as="geometry" />
        </mxCell>
        <mxCell id="0Ov8n9n56HKdVS319JqA-1148" value="TEST" style="text;html=1;align=center;verticalAlign=middle;resizable=0;points=[];autosize=1;strokeColor=none;fillColor=none;fontFamily=Gost Type B;fontSource=https%3A%2F%2Ffonts.googleapis.com%2Fcss%3Ffamily%3DGost%2BType%2BB;fontSize=16;" vertex="1" parent="1">
          <mxGeometry x="21.500000000000007" y="-126.64000000000007" width="60" height="30" as="geometry" />
        </mxCell>
        <mxCell id="0Ov8n9n56HKdVS319JqA-1149" value="RXD" style="text;html=1;align=center;verticalAlign=middle;resizable=0;points=[];autosize=1;strokeColor=none;fillColor=none;fontFamily=Gost Type B;fontSource=https%3A%2F%2Ffonts.googleapis.com%2Fcss%3Ffamily%3DGost%2BType%2BB;fontSize=16;" vertex="1" parent="1">
          <mxGeometry x="161.50000000000006" y="-227.62000000000003" width="50" height="30" as="geometry" />
        </mxCell>
        <mxCell id="0Ov8n9n56HKdVS319JqA-1150" value="TXD" style="text;html=1;align=center;verticalAlign=middle;resizable=0;points=[];autosize=1;strokeColor=none;fillColor=none;fontFamily=Gost Type B;fontSource=https%3A%2F%2Ffonts.googleapis.com%2Fcss%3Ffamily%3DGost%2BType%2BB;fontSize=16;" vertex="1" parent="1">
          <mxGeometry x="161.50000000000006" y="-202.03000000000006" width="50" height="30" as="geometry" />
        </mxCell>
        <mxCell id="0Ov8n9n56HKdVS319JqA-1151" value="" style="endArrow=none;html=1;rounded=0;entryX=-0.014;entryY=0.092;entryDx=0;entryDy=0;entryPerimeter=0;exitX=0.331;exitY=1.002;exitDx=0;exitDy=0;exitPerimeter=0;fontFamily=Gost Type B;fontSource=https%3A%2F%2Ffonts.googleapis.com%2Fcss%3Ffamily%3DGost%2BType%2BB;" edge="1" parent="1" source="0Ov8n9n56HKdVS319JqA-1143" target="0Ov8n9n56HKdVS319JqA-1153">
          <mxGeometry width="50" height="50" relative="1" as="geometry">
            <mxPoint x="131.50000000000003" y="-199.03000000000006" as="sourcePoint" />
            <mxPoint x="181.50000000000006" y="-249.03" as="targetPoint" />
          </mxGeometry>
        </mxCell>
        <mxCell id="0Ov8n9n56HKdVS319JqA-1152" value="" style="endArrow=none;html=1;rounded=0;entryX=0.732;entryY=0.998;entryDx=0;entryDy=0;entryPerimeter=0;exitX=0.037;exitY=-0.039;exitDx=0;exitDy=0;exitPerimeter=0;fontFamily=Gost Type B;fontSource=https%3A%2F%2Ffonts.googleapis.com%2Fcss%3Ffamily%3DGost%2BType%2BB;" edge="1" parent="1" source="0Ov8n9n56HKdVS319JqA-1149" target="0Ov8n9n56HKdVS319JqA-1143">
          <mxGeometry width="50" height="50" relative="1" as="geometry">
            <mxPoint x="161.50000000000006" y="-229.03" as="sourcePoint" />
            <mxPoint x="181.50000000000006" y="-249.03" as="targetPoint" />
          </mxGeometry>
        </mxCell>
        <mxCell id="0Ov8n9n56HKdVS319JqA-1153" value="FT232RL" style="text;html=1;align=center;verticalAlign=middle;resizable=0;points=[];autosize=1;strokeColor=none;fillColor=none;fontFamily=Gost Type B;fontSource=https%3A%2F%2Ffonts.googleapis.com%2Fcss%3Ffamily%3DGost%2BType%2BB;fontSize=16;" vertex="1" parent="1">
          <mxGeometry x="91.5" y="-232.03" width="80" height="30" as="geometry" />
        </mxCell>
        <mxCell id="0Ov8n9n56HKdVS319JqA-1154" value="" style="endArrow=none;html=1;rounded=0;edgeStyle=orthogonalEdgeStyle;entryX=0;entryY=0.5;entryDx=0;entryDy=0;" edge="1" parent="1" target="0Ov8n9n56HKdVS319JqA-1061">
          <mxGeometry width="50" height="50" relative="1" as="geometry">
            <mxPoint x="-100" y="-120" as="sourcePoint" />
            <mxPoint x="270" y="170" as="targetPoint" />
            <Array as="points">
              <mxPoint x="-100" y="420" />
              <mxPoint x="260" y="420" />
              <mxPoint x="260" y="169" />
            </Array>
          </mxGeometry>
        </mxCell>
        <mxCell id="0Ov8n9n56HKdVS319JqA-1155" value="" style="endArrow=none;html=1;rounded=0;edgeStyle=orthogonalEdgeStyle;entryX=0;entryY=0.5;entryDx=0;entryDy=0;" edge="1" parent="1" target="0Ov8n9n56HKdVS319JqA-1062">
          <mxGeometry width="50" height="50" relative="1" as="geometry">
            <mxPoint x="-240" y="740" as="sourcePoint" />
            <mxPoint x="210" y="320" as="targetPoint" />
            <Array as="points">
              <mxPoint x="-240" y="740" />
              <mxPoint x="330" y="740" />
              <mxPoint x="330" y="213" />
            </Array>
          </mxGeometry>
        </mxCell>
        <mxCell id="0Ov8n9n56HKdVS319JqA-1161" value="" style="endArrow=none;html=1;rounded=0;fontFamily=Gost Type B;fontSource=https%3A%2F%2Ffonts.googleapis.com%2Fcss%3Ffamily%3DGost%2BType%2BB;" edge="1" parent="1">
          <mxGeometry width="50" height="50" relative="1" as="geometry">
            <mxPoint x="-99.38999999999996" y="-31.87299999999997" as="sourcePoint" />
            <mxPoint x="-113.29299999999998" y="-46.87299999999997" as="targetPoint" />
          </mxGeometry>
        </mxCell>
        <mxCell id="0Ov8n9n56HKdVS319JqA-1162" value="" style="endArrow=none;html=1;rounded=0;exitX=0;exitY=0.5;exitDx=0;exitDy=0;fontFamily=Gost Type B;fontSource=https%3A%2F%2Ffonts.googleapis.com%2Fcss%3Ffamily%3DGost%2BType%2BB;" edge="1" parent="1" source="0Ov8n9n56HKdVS319JqA-813">
          <mxGeometry width="50" height="50" relative="1" as="geometry">
            <mxPoint x="-165.19999999999996" y="-46.48999999999999" as="sourcePoint" />
            <mxPoint x="-113.29299999999998" y="-46.87299999999997" as="targetPoint" />
          </mxGeometry>
        </mxCell>
        <mxCell id="0Ov8n9n56HKdVS319JqA-1165" value="" style="endArrow=none;html=1;rounded=0;fontFamily=Gost Type B;fontSource=https%3A%2F%2Ffonts.googleapis.com%2Fcss%3Ffamily%3DGost%2BType%2BB;" edge="1" parent="1">
          <mxGeometry width="50" height="50" relative="1" as="geometry">
            <mxPoint x="-99.38999999999996" y="65.82700000000003" as="sourcePoint" />
            <mxPoint x="-113.29299999999998" y="50.827000000000034" as="targetPoint" />
          </mxGeometry>
        </mxCell>
        <mxCell id="0Ov8n9n56HKdVS319JqA-1166" value="" style="endArrow=none;html=1;rounded=0;exitX=0;exitY=0.5;exitDx=0;exitDy=0;fontFamily=Gost Type B;fontSource=https%3A%2F%2Ffonts.googleapis.com%2Fcss%3Ffamily%3DGost%2BType%2BB;" edge="1" parent="1">
          <mxGeometry width="50" height="50" relative="1" as="geometry">
            <mxPoint x="-194" y="50.7" as="sourcePoint" />
            <mxPoint x="-113.29299999999998" y="50.827000000000034" as="targetPoint" />
          </mxGeometry>
        </mxCell>
        <mxCell id="0Ov8n9n56HKdVS319JqA-1167" value="" style="endArrow=none;html=1;rounded=0;fontFamily=Gost Type B;fontSource=https%3A%2F%2Ffonts.googleapis.com%2Fcss%3Ffamily%3DGost%2BType%2BB;" edge="1" parent="1">
          <mxGeometry width="50" height="50" relative="1" as="geometry">
            <mxPoint x="-99.38999999999996" y="184.89700000000005" as="sourcePoint" />
            <mxPoint x="-113.29299999999998" y="169.89700000000005" as="targetPoint" />
          </mxGeometry>
        </mxCell>
        <mxCell id="0Ov8n9n56HKdVS319JqA-1168" value="" style="endArrow=none;html=1;rounded=0;exitX=0;exitY=0.5;exitDx=0;exitDy=0;fontFamily=Gost Type B;fontSource=https%3A%2F%2Ffonts.googleapis.com%2Fcss%3Ffamily%3DGost%2BType%2BB;" edge="1" parent="1">
          <mxGeometry width="50" height="50" relative="1" as="geometry">
            <mxPoint x="-194" y="169.77" as="sourcePoint" />
            <mxPoint x="-113.29299999999998" y="169.89700000000005" as="targetPoint" />
          </mxGeometry>
        </mxCell>
        <mxCell id="0Ov8n9n56HKdVS319JqA-1169" value="" style="endArrow=none;html=1;rounded=0;fontFamily=Gost Type B;fontSource=https%3A%2F%2Ffonts.googleapis.com%2Fcss%3Ffamily%3DGost%2BType%2BB;" edge="1" parent="1">
          <mxGeometry width="50" height="50" relative="1" as="geometry">
            <mxPoint x="-99.38999999999996" y="294.177" as="sourcePoint" />
            <mxPoint x="-113.29299999999998" y="279.177" as="targetPoint" />
          </mxGeometry>
        </mxCell>
        <mxCell id="0Ov8n9n56HKdVS319JqA-1170" value="" style="endArrow=none;html=1;rounded=0;exitX=0;exitY=0.5;exitDx=0;exitDy=0;fontFamily=Gost Type B;fontSource=https%3A%2F%2Ffonts.googleapis.com%2Fcss%3Ffamily%3DGost%2BType%2BB;" edge="1" parent="1">
          <mxGeometry width="50" height="50" relative="1" as="geometry">
            <mxPoint x="-194" y="279.05" as="sourcePoint" />
            <mxPoint x="-113.29299999999998" y="279.177" as="targetPoint" />
          </mxGeometry>
        </mxCell>
        <mxCell id="0Ov8n9n56HKdVS319JqA-1176" value="" style="endArrow=none;html=1;rounded=0;entryX=0.744;entryY=1.059;entryDx=0;entryDy=0;entryPerimeter=0;" edge="1" parent="1" target="0Ov8n9n56HKdVS319JqA-886">
          <mxGeometry width="50" height="50" relative="1" as="geometry">
            <mxPoint x="60" y="720" as="sourcePoint" />
            <mxPoint x="90" y="590" as="targetPoint" />
          </mxGeometry>
        </mxCell>
        <mxCell id="0Ov8n9n56HKdVS319JqA-1177" value="" style="endArrow=none;html=1;rounded=0;" edge="1" parent="1">
          <mxGeometry width="50" height="50" relative="1" as="geometry">
            <mxPoint x="60" y="720" as="sourcePoint" />
            <mxPoint x="70.61" y="740.85" as="targetPoint" />
          </mxGeometry>
        </mxCell>
        <mxCell id="0Ov8n9n56HKdVS319JqA-1178" value="" style="endArrow=none;html=1;rounded=0;entryX=0.902;entryY=1.005;entryDx=0;entryDy=0;entryPerimeter=0;" edge="1" parent="1" target="0Ov8n9n56HKdVS319JqA-371">
          <mxGeometry width="50" height="50" relative="1" as="geometry">
            <mxPoint x="40" y="720" as="sourcePoint" />
            <mxPoint x="40" y="620" as="targetPoint" />
          </mxGeometry>
        </mxCell>
        <mxCell id="0Ov8n9n56HKdVS319JqA-1179" value="" style="endArrow=none;html=1;rounded=0;" edge="1" parent="1">
          <mxGeometry width="50" height="50" relative="1" as="geometry">
            <mxPoint x="40" y="720" as="sourcePoint" />
            <mxPoint x="50.61" y="740.85" as="targetPoint" />
          </mxGeometry>
        </mxCell>
        <mxCell id="0Ov8n9n56HKdVS319JqA-1180" value="" style="endArrow=none;html=1;rounded=0;entryX=0.246;entryY=1.03;entryDx=0;entryDy=0;entryPerimeter=0;" edge="1" parent="1" target="0Ov8n9n56HKdVS319JqA-885">
          <mxGeometry width="50" height="50" relative="1" as="geometry">
            <mxPoint x="20" y="720" as="sourcePoint" />
            <mxPoint x="21.18" y="615.41" as="targetPoint" />
          </mxGeometry>
        </mxCell>
        <mxCell id="0Ov8n9n56HKdVS319JqA-1181" value="" style="endArrow=none;html=1;rounded=0;" edge="1" parent="1">
          <mxGeometry width="50" height="50" relative="1" as="geometry">
            <mxPoint x="20" y="720" as="sourcePoint" />
            <mxPoint x="30" y="740.85" as="targetPoint" />
          </mxGeometry>
        </mxCell>
        <mxCell id="0Ov8n9n56HKdVS319JqA-1182" value="" style="endArrow=none;html=1;rounded=0;entryX=0.714;entryY=1.06;entryDx=0;entryDy=0;entryPerimeter=0;" edge="1" parent="1">
          <mxGeometry width="50" height="50" relative="1" as="geometry">
            <mxPoint y="720" as="sourcePoint" />
            <mxPoint x="-0.39000000000000057" y="615.41" as="targetPoint" />
          </mxGeometry>
        </mxCell>
        <mxCell id="0Ov8n9n56HKdVS319JqA-1183" value="" style="endArrow=none;html=1;rounded=0;" edge="1" parent="1">
          <mxGeometry width="50" height="50" relative="1" as="geometry">
            <mxPoint y="720" as="sourcePoint" />
            <mxPoint x="10" y="740.5699999999999" as="targetPoint" />
          </mxGeometry>
        </mxCell>
        <mxCell id="0Ov8n9n56HKdVS319JqA-1184" value="" style="endArrow=none;html=1;rounded=0;entryX=0.002;entryY=0.398;entryDx=0;entryDy=0;entryPerimeter=0;edgeStyle=orthogonalEdgeStyle;" edge="1" parent="1" target="0Ov8n9n56HKdVS319JqA-1136">
          <mxGeometry width="50" height="50" relative="1" as="geometry">
            <mxPoint x="-80" y="230" as="sourcePoint" />
            <mxPoint x="-30" y="229.68" as="targetPoint" />
            <Array as="points">
              <mxPoint x="-30" y="230" />
              <mxPoint x="-30" y="100" />
              <mxPoint x="10" y="100" />
            </Array>
          </mxGeometry>
        </mxCell>
        <mxCell id="0Ov8n9n56HKdVS319JqA-1185" value="" style="endArrow=none;html=1;rounded=0;" edge="1" parent="1">
          <mxGeometry width="50" height="50" relative="1" as="geometry">
            <mxPoint x="-80" y="230" as="sourcePoint" />
            <mxPoint x="-100" y="240" as="targetPoint" />
          </mxGeometry>
        </mxCell>
        <mxCell id="0Ov8n9n56HKdVS319JqA-1186" value="" style="endArrow=none;html=1;rounded=0;entryX=0;entryY=1;entryDx=0;entryDy=0;edgeStyle=orthogonalEdgeStyle;" edge="1" parent="1" target="0Ov8n9n56HKdVS319JqA-1136">
          <mxGeometry width="50" height="50" relative="1" as="geometry">
            <mxPoint x="-80" y="260" as="sourcePoint" />
            <mxPoint x="-31.5" y="270.92" as="targetPoint" />
            <Array as="points">
              <mxPoint y="260" />
              <mxPoint y="126" />
            </Array>
          </mxGeometry>
        </mxCell>
        <mxCell id="0Ov8n9n56HKdVS319JqA-1187" value="" style="endArrow=none;html=1;rounded=0;" edge="1" parent="1">
          <mxGeometry width="50" height="50" relative="1" as="geometry">
            <mxPoint x="-81" y="260" as="sourcePoint" />
            <mxPoint x="-100" y="270" as="targetPoint" />
          </mxGeometry>
        </mxCell>
        <mxCell id="0Ov8n9n56HKdVS319JqA-1188" value="" style="endArrow=none;html=1;rounded=0;edgeStyle=orthogonalEdgeStyle;entryX=0.992;entryY=0.451;entryDx=0;entryDy=0;entryPerimeter=0;" edge="1" parent="1">
          <mxGeometry width="50" height="50" relative="1" as="geometry">
            <mxPoint x="-80" y="20" as="sourcePoint" />
            <mxPoint x="211.0999999999999" y="-211.78000000000014" as="targetPoint" />
            <Array as="points">
              <mxPoint x="-80" y="20" />
              <mxPoint x="280" y="20" />
              <mxPoint x="280" y="-212" />
            </Array>
          </mxGeometry>
        </mxCell>
        <mxCell id="0Ov8n9n56HKdVS319JqA-1189" value="" style="endArrow=none;html=1;rounded=0;" edge="1" parent="1">
          <mxGeometry width="50" height="50" relative="1" as="geometry">
            <mxPoint x="-80" y="20" as="sourcePoint" />
            <mxPoint x="-100" y="30" as="targetPoint" />
          </mxGeometry>
        </mxCell>
        <mxCell id="0Ov8n9n56HKdVS319JqA-1190" value="" style="endArrow=none;html=1;rounded=0;edgeStyle=orthogonalEdgeStyle;entryX=1.003;entryY=0.559;entryDx=0;entryDy=0;entryPerimeter=0;" edge="1" parent="1" target="0Ov8n9n56HKdVS319JqA-1150">
          <mxGeometry width="50" height="50" relative="1" as="geometry">
            <mxPoint x="-80" y="-20" as="sourcePoint" />
            <mxPoint x="90" y="-40" as="targetPoint" />
            <Array as="points">
              <mxPoint x="40" y="-20" />
              <mxPoint x="250" y="-20" />
              <mxPoint x="250" y="-185" />
            </Array>
          </mxGeometry>
        </mxCell>
        <mxCell id="0Ov8n9n56HKdVS319JqA-1191" value="" style="endArrow=none;html=1;rounded=0;" edge="1" parent="1">
          <mxGeometry width="50" height="50" relative="1" as="geometry">
            <mxPoint x="-80" y="-20" as="sourcePoint" />
            <mxPoint x="-100" y="-10" as="targetPoint" />
          </mxGeometry>
        </mxCell>
        <mxCell id="0Ov8n9n56HKdVS319JqA-1192" value="" style="endArrow=none;html=1;rounded=0;entryX=0.744;entryY=1.059;entryDx=0;entryDy=0;entryPerimeter=0;" edge="1" parent="1">
          <mxGeometry width="50" height="50" relative="1" as="geometry">
            <mxPoint x="-110" y="720" as="sourcePoint" />
            <mxPoint x="-109.38999999999999" y="616.19" as="targetPoint" />
          </mxGeometry>
        </mxCell>
        <mxCell id="0Ov8n9n56HKdVS319JqA-1193" value="" style="endArrow=none;html=1;rounded=0;" edge="1" parent="1">
          <mxGeometry width="50" height="50" relative="1" as="geometry">
            <mxPoint x="-110" y="720" as="sourcePoint" />
            <mxPoint x="-99.38999999999999" y="740.85" as="targetPoint" />
          </mxGeometry>
        </mxCell>
        <mxCell id="0Ov8n9n56HKdVS319JqA-1194" value="" style="endArrow=none;html=1;rounded=0;entryX=0.744;entryY=1.059;entryDx=0;entryDy=0;entryPerimeter=0;" edge="1" parent="1">
          <mxGeometry width="50" height="50" relative="1" as="geometry">
            <mxPoint x="-150" y="720" as="sourcePoint" />
            <mxPoint x="-150" y="616.19" as="targetPoint" />
          </mxGeometry>
        </mxCell>
        <mxCell id="0Ov8n9n56HKdVS319JqA-1195" value="" style="endArrow=none;html=1;rounded=0;" edge="1" parent="1">
          <mxGeometry width="50" height="50" relative="1" as="geometry">
            <mxPoint x="-150" y="720" as="sourcePoint" />
            <mxPoint x="-139.39" y="740.85" as="targetPoint" />
          </mxGeometry>
        </mxCell>
        <mxCell id="0Ov8n9n56HKdVS319JqA-1198" value="" style="endArrow=none;html=1;rounded=0;entryX=-0.003;entryY=0.327;entryDx=0;entryDy=0;entryPerimeter=0;startArrow=blockThin;startFill=1;" edge="1" parent="1" target="0Ov8n9n56HKdVS319JqA-1143">
          <mxGeometry width="50" height="50" relative="1" as="geometry">
            <mxPoint x="-10" y="-186" as="sourcePoint" />
            <mxPoint x="-70" y="-230" as="targetPoint" />
          </mxGeometry>
        </mxCell>
        <mxCell id="0Ov8n9n56HKdVS319JqA-1199" value="USBO-" style="text;html=1;align=center;verticalAlign=middle;resizable=0;points=[];autosize=1;strokeColor=none;fillColor=none;fontFamily=Gost Type B;fontSource=https%3A%2F%2Ffonts.googleapis.com%2Fcss%3Ffamily%3DGost%2BType%2BB;fontSize=16;" vertex="1" parent="1">
          <mxGeometry x="21.500000000000014" y="-205.62000000000003" width="70" height="30" as="geometry" />
        </mxCell>
        <mxCell id="0Ov8n9n56HKdVS319JqA-1200" value="" style="endArrow=none;html=1;rounded=0;entryX=-0.003;entryY=0.327;entryDx=0;entryDy=0;entryPerimeter=0;startArrow=blockThin;startFill=1;" edge="1" parent="1">
          <mxGeometry width="50" height="50" relative="1" as="geometry">
            <mxPoint x="-9.39" y="-164.97" as="sourcePoint" />
            <mxPoint x="31.61" y="-164.97" as="targetPoint" />
          </mxGeometry>
        </mxCell>
        <mxCell id="0Ov8n9n56HKdVS319JqA-1201" value="&lt;font style=&quot;font-size: 16px;&quot; face=&quot;Gost Type B&quot;&gt;К USB&lt;br&gt;коннектору&lt;br&gt;&lt;/font&gt;" style="text;html=1;align=center;verticalAlign=middle;resizable=0;points=[];autosize=1;strokeColor=none;fillColor=none;" vertex="1" parent="1">
          <mxGeometry x="-104.39" y="-201.81" width="100" height="50" as="geometry" />
        </mxCell>
        <mxCell id="0Ov8n9n56HKdVS319JqA-1202" value="" style="endArrow=none;html=1;rounded=0;fontStyle=2;fontFamily=Gost Type B;fontSource=https%3A%2F%2Ffonts.googleapis.com%2Fcss%3Ffamily%3DGost%2BType%2BB;" edge="1" parent="1">
          <mxGeometry width="50" height="50" relative="1" as="geometry">
            <mxPoint x="-336.6029999999999" y="324.16700000000003" as="sourcePoint" />
            <mxPoint x="-303.6029999999999" y="324.16700000000003" as="targetPoint" />
          </mxGeometry>
        </mxCell>
        <mxCell id="0Ov8n9n56HKdVS319JqA-1203" value="&lt;div style=&quot;text-align: center;&quot;&gt;&lt;font&gt;&lt;span style=&quot;font-size: 20px;&quot;&gt;&lt;span&gt;GND&lt;/span&gt;&lt;/span&gt;&lt;/font&gt;&lt;/div&gt;" style="text;whiteSpace=wrap;html=1;fontStyle=2;fontFamily=Gost Type B;fontSource=https%3A%2F%2Ffonts.googleapis.com%2Fcss%3Ffamily%3DGost%2BType%2BB;" vertex="1" parent="1">
          <mxGeometry x="-337.42300000000006" y="319.99699999999996" width="35.42" height="32.26" as="geometry" />
        </mxCell>
        <mxCell id="0Ov8n9n56HKdVS319JqA-1207" value="" style="endArrow=none;html=1;rounded=0;fontStyle=2;fontFamily=Gost Type B;fontSource=https%3A%2F%2Ffonts.googleapis.com%2Fcss%3Ffamily%3DGost%2BType%2BB;" edge="1" parent="1">
          <mxGeometry width="50" height="50" relative="1" as="geometry">
            <mxPoint x="-6.5029999999998935" y="-69.59299999999995" as="sourcePoint" />
            <mxPoint x="26.497000000000106" y="-69.59299999999995" as="targetPoint" />
          </mxGeometry>
        </mxCell>
        <mxCell id="0Ov8n9n56HKdVS319JqA-1208" value="&lt;div style=&quot;text-align: center;&quot;&gt;&lt;font&gt;&lt;span style=&quot;font-size: 20px;&quot;&gt;&lt;span&gt;GND&lt;/span&gt;&lt;/span&gt;&lt;/font&gt;&lt;/div&gt;" style="text;whiteSpace=wrap;html=1;fontStyle=2;fontFamily=Gost Type B;fontSource=https%3A%2F%2Ffonts.googleapis.com%2Fcss%3Ffamily%3DGost%2BType%2BB;" vertex="1" parent="1">
          <mxGeometry x="-9.393000000000058" y="-77.64300000000003" width="35.42" height="32.26" as="geometry" />
        </mxCell>
        <mxCell id="0Ov8n9n56HKdVS319JqA-1209" value="" style="endArrow=none;html=1;rounded=0;edgeStyle=orthogonalEdgeStyle;entryX=0;entryY=0.683;entryDx=0;entryDy=0;entryPerimeter=0;" edge="1" parent="1" target="0Ov8n9n56HKdVS319JqA-1143">
          <mxGeometry width="50" height="50" relative="1" as="geometry">
            <mxPoint x="10" y="-70" as="sourcePoint" />
            <mxPoint x="-20" y="-140" as="targetPoint" />
            <Array as="points">
              <mxPoint x="10" y="-90" />
              <mxPoint x="10" y="-140" />
            </Array>
          </mxGeometry>
        </mxCell>
        <mxCell id="0Ov8n9n56HKdVS319JqA-1210" value="" style="endArrow=none;html=1;rounded=0;entryX=0.002;entryY=0.914;entryDx=0;entryDy=0;entryPerimeter=0;" edge="1" parent="1" target="0Ov8n9n56HKdVS319JqA-1143">
          <mxGeometry width="50" height="50" relative="1" as="geometry">
            <mxPoint x="10" y="-110" as="sourcePoint" />
            <mxPoint x="10" y="-150" as="targetPoint" />
          </mxGeometry>
        </mxCell>
        <mxCell id="0Ov8n9n56HKdVS319JqA-1211" value="" style="endArrow=none;html=1;rounded=0;" edge="1" parent="1">
          <mxGeometry width="50" height="50" relative="1" as="geometry">
            <mxPoint x="-141.39" y="652.2" as="sourcePoint" />
            <mxPoint x="-117.39" y="652.2" as="targetPoint" />
          </mxGeometry>
        </mxCell>
        <mxCell id="0Ov8n9n56HKdVS319JqA-1213" value="" style="endArrow=none;html=1;rounded=0;strokeWidth=2;" edge="1" parent="1">
          <mxGeometry width="50" height="50" relative="1" as="geometry">
            <mxPoint x="140" y="430" as="sourcePoint" />
            <mxPoint x="160" y="410" as="targetPoint" />
          </mxGeometry>
        </mxCell>
        <mxCell id="0Ov8n9n56HKdVS319JqA-1214" value="" style="endArrow=none;html=1;rounded=0;strokeWidth=2;" edge="1" parent="1">
          <mxGeometry width="50" height="50" relative="1" as="geometry">
            <mxPoint x="250" y="752.6200000000001" as="sourcePoint" />
            <mxPoint x="270" y="732.6200000000001" as="targetPoint" />
          </mxGeometry>
        </mxCell>
        <mxCell id="0Ov8n9n56HKdVS319JqA-1215" value="&lt;font style=&quot;font-size: 16px;&quot; data-font-src=&quot;https://fonts.googleapis.com/css?family=Gost+Type+B&quot; face=&quot;Gost Type B&quot;&gt;8&lt;/font&gt;" style="text;html=1;align=center;verticalAlign=middle;resizable=0;points=[];autosize=1;strokeColor=none;fillColor=none;" vertex="1" parent="1">
          <mxGeometry x="235" y="709.46" width="30" height="30" as="geometry" />
        </mxCell>
        <mxCell id="0Ov8n9n56HKdVS319JqA-1216" value="&lt;font style=&quot;font-size: 16px;&quot; data-font-src=&quot;https://fonts.googleapis.com/css?family=Gost+Type+B&quot; face=&quot;Gost Type B&quot;&gt;8&lt;/font&gt;" style="text;html=1;align=center;verticalAlign=middle;resizable=0;points=[];autosize=1;strokeColor=none;fillColor=none;" vertex="1" parent="1">
          <mxGeometry x="125.75" y="393.23" width="30" height="30" as="geometry" />
        </mxCell>
        <mxCell id="0Ov8n9n56HKdVS319JqA-1217" value="&lt;font data-font-src=&quot;https://fonts.googleapis.com/css?family=Gost+Type+B&quot; face=&quot;Gost Type B&quot; style=&quot;font-size: 16px;&quot;&gt;PA5&lt;/font&gt;" style="text;html=1;align=center;verticalAlign=middle;resizable=0;points=[];autosize=1;strokeColor=none;fillColor=none;" vertex="1" parent="1">
          <mxGeometry x="-165" y="-72" width="50" height="30" as="geometry" />
        </mxCell>
        <mxCell id="0Ov8n9n56HKdVS319JqA-1218" value="&lt;font data-font-src=&quot;https://fonts.googleapis.com/css?family=Gost+Type+B&quot; face=&quot;Gost Type B&quot; style=&quot;font-size: 16px;&quot;&gt;PA6&lt;/font&gt;" style="text;html=1;align=center;verticalAlign=middle;resizable=0;points=[];autosize=1;strokeColor=none;fillColor=none;" vertex="1" parent="1">
          <mxGeometry x="-163.52" y="22.53" width="50" height="30" as="geometry" />
        </mxCell>
        <mxCell id="0Ov8n9n56HKdVS319JqA-1219" value="&lt;font data-font-src=&quot;https://fonts.googleapis.com/css?family=Gost+Type+B&quot; face=&quot;Gost Type B&quot; style=&quot;font-size: 16px;&quot;&gt;PA7&lt;/font&gt;" style="text;html=1;align=center;verticalAlign=middle;resizable=0;points=[];autosize=1;strokeColor=none;fillColor=none;" vertex="1" parent="1">
          <mxGeometry x="-165" y="141.38" width="50" height="30" as="geometry" />
        </mxCell>
        <mxCell id="0Ov8n9n56HKdVS319JqA-1220" value="&lt;font data-font-src=&quot;https://fonts.googleapis.com/css?family=Gost+Type+B&quot; face=&quot;Gost Type B&quot; style=&quot;font-size: 16px;&quot;&gt;PA14&lt;/font&gt;" style="text;html=1;align=center;verticalAlign=middle;resizable=0;points=[];autosize=1;strokeColor=none;fillColor=none;" vertex="1" parent="1">
          <mxGeometry x="-170" y="249.54000000000002" width="60" height="30" as="geometry" />
        </mxCell>
        <mxCell id="0Ov8n9n56HKdVS319JqA-1221" value="&lt;font data-font-src=&quot;https://fonts.googleapis.com/css?family=Gost+Type+B&quot; face=&quot;Gost Type B&quot; style=&quot;font-size: 16px;&quot;&gt;PA9&lt;/font&gt;" style="text;html=1;align=center;verticalAlign=middle;resizable=0;points=[];autosize=1;strokeColor=none;fillColor=none;" vertex="1" parent="1">
          <mxGeometry x="-90" y="-46.78" width="50" height="30" as="geometry" />
        </mxCell>
        <mxCell id="0Ov8n9n56HKdVS319JqA-1222" value="&lt;font data-font-src=&quot;https://fonts.googleapis.com/css?family=Gost+Type+B&quot; face=&quot;Gost Type B&quot; style=&quot;font-size: 16px;&quot;&gt;PA10&lt;/font&gt;" style="text;html=1;align=center;verticalAlign=middle;resizable=0;points=[];autosize=1;strokeColor=none;fillColor=none;" vertex="1" parent="1">
          <mxGeometry x="-95" y="-9.74" width="60" height="30" as="geometry" />
        </mxCell>
        <mxCell id="0Ov8n9n56HKdVS319JqA-1223" value="&lt;font data-font-src=&quot;https://fonts.googleapis.com/css?family=Gost+Type+B&quot; face=&quot;Gost Type B&quot; style=&quot;font-size: 16px;&quot;&gt;PA2&lt;/font&gt;" style="text;html=1;align=center;verticalAlign=middle;resizable=0;points=[];autosize=1;strokeColor=none;fillColor=none;" vertex="1" parent="1">
          <mxGeometry x="-84.39" y="202.25" width="50" height="30" as="geometry" />
        </mxCell>
        <mxCell id="0Ov8n9n56HKdVS319JqA-1224" value="&lt;font data-font-src=&quot;https://fonts.googleapis.com/css?family=Gost+Type+B&quot; face=&quot;Gost Type B&quot; style=&quot;font-size: 16px;&quot;&gt;PA3&lt;/font&gt;" style="text;html=1;align=center;verticalAlign=middle;resizable=0;points=[];autosize=1;strokeColor=none;fillColor=none;" vertex="1" parent="1">
          <mxGeometry x="-84.39" y="232.25" width="50" height="30" as="geometry" />
        </mxCell>
        <mxCell id="0Ov8n9n56HKdVS319JqA-1225" value="&lt;font data-font-src=&quot;https://fonts.googleapis.com/css?family=Gost+Type+B&quot; face=&quot;Gost Type B&quot; style=&quot;font-size: 16px;&quot;&gt;PB10&lt;/font&gt;" style="text;html=1;align=center;verticalAlign=middle;resizable=0;points=[];autosize=1;strokeColor=none;fillColor=none;horizontal=0;" vertex="1" parent="1">
          <mxGeometry x="26.5" y="686.83" width="50" height="30" as="geometry" />
        </mxCell>
        <mxCell id="0Ov8n9n56HKdVS319JqA-1226" value="&lt;font data-font-src=&quot;https://fonts.googleapis.com/css?family=Gost+Type+B&quot; face=&quot;Gost Type B&quot; style=&quot;font-size: 16px;&quot;&gt;PB11&lt;/font&gt;" style="text;html=1;align=center;verticalAlign=middle;resizable=0;points=[];autosize=1;strokeColor=none;fillColor=none;horizontal=0;" vertex="1" parent="1">
          <mxGeometry x="10.61" y="681.83" width="40" height="40" as="geometry" />
        </mxCell>
        <mxCell id="0Ov8n9n56HKdVS319JqA-1227" value="&lt;font data-font-src=&quot;https://fonts.googleapis.com/css?family=Gost+Type+B&quot; face=&quot;Gost Type B&quot; style=&quot;font-size: 16px;&quot;&gt;PB12&lt;/font&gt;" style="text;html=1;align=center;verticalAlign=middle;resizable=0;points=[];autosize=1;strokeColor=none;fillColor=none;horizontal=0;" vertex="1" parent="1">
          <mxGeometry x="-9.39" y="681.83" width="40" height="40" as="geometry" />
        </mxCell>
        <mxCell id="0Ov8n9n56HKdVS319JqA-1228" value="&lt;font data-font-src=&quot;https://fonts.googleapis.com/css?family=Gost+Type+B&quot; face=&quot;Gost Type B&quot; style=&quot;font-size: 16px;&quot;&gt;PB13&lt;/font&gt;" style="text;html=1;align=center;verticalAlign=middle;resizable=0;points=[];autosize=1;strokeColor=none;fillColor=none;horizontal=0;" vertex="1" parent="1">
          <mxGeometry x="-30.96" y="681.8300000000002" width="40" height="40" as="geometry" />
        </mxCell>
        <mxCell id="0Ov8n9n56HKdVS319JqA-1229" value="&lt;font data-font-src=&quot;https://fonts.googleapis.com/css?family=Gost+Type+B&quot; face=&quot;Gost Type B&quot; style=&quot;font-size: 16px;&quot;&gt;PB14&lt;/font&gt;" style="text;html=1;align=center;verticalAlign=middle;resizable=0;points=[];autosize=1;strokeColor=none;fillColor=none;horizontal=0;" vertex="1" parent="1">
          <mxGeometry x="-139.39" y="676.83" width="40" height="50" as="geometry" />
        </mxCell>
        <mxCell id="0Ov8n9n56HKdVS319JqA-1230" value="&lt;font data-font-src=&quot;https://fonts.googleapis.com/css?family=Gost+Type+B&quot; face=&quot;Gost Type B&quot; style=&quot;font-size: 16px;&quot;&gt;PB15&lt;/font&gt;" style="text;html=1;align=center;verticalAlign=middle;resizable=0;points=[];autosize=1;strokeColor=none;fillColor=none;horizontal=0;" vertex="1" parent="1">
          <mxGeometry x="-179.39000000000001" y="681.83" width="40" height="40" as="geometry" />
        </mxCell>
        <mxCell id="0Ov8n9n56HKdVS319JqA-1232" value="&lt;font data-font-src=&quot;https://fonts.googleapis.com/css?family=Gost+Type+B&quot; face=&quot;Gost Type B&quot; style=&quot;font-size: 16px;&quot;&gt;LM016L&lt;/font&gt;" style="text;html=1;align=center;verticalAlign=middle;resizable=0;points=[];autosize=1;strokeColor=none;fillColor=none;" vertex="1" parent="1">
          <mxGeometry x="-119.39" y="476.66" width="70" height="30" as="geometry" />
        </mxCell>
        <mxCell id="0Ov8n9n56HKdVS319JqA-1379" value="" style="endArrow=open;html=1;rounded=0;endFill=0;fontStyle=2;fontFamily=Gost Type B;fontSource=https%3A%2F%2Ffonts.googleapis.com%2Fcss%3Ffamily%3DGost%2BType%2BB;" edge="1" parent="1">
          <mxGeometry width="50" height="50" relative="1" as="geometry">
            <mxPoint x="220" y="650" as="sourcePoint" />
            <mxPoint x="220" y="670" as="targetPoint" />
          </mxGeometry>
        </mxCell>
        <mxCell id="0Ov8n9n56HKdVS319JqA-1383" value="&lt;div style=&quot;text-align: center;&quot;&gt;&lt;font&gt;&lt;span style=&quot;font-size: 16px;&quot;&gt;SWCLK&lt;/span&gt;&lt;/font&gt;&lt;/div&gt;" style="text;whiteSpace=wrap;html=1;fontStyle=2;fontFamily=Gost Type B;fontSource=https%3A%2F%2Ffonts.googleapis.com%2Fcss%3Ffamily%3DGost%2BType%2BB;horizontal=0;" vertex="1" parent="1">
          <mxGeometry x="189.107" y="636.927" width="35.08" height="23.83" as="geometry" />
        </mxCell>
        <mxCell id="0Ov8n9n56HKdVS319JqA-1384" value="&lt;div style=&quot;text-align: center;&quot;&gt;&lt;font&gt;&lt;span style=&quot;font-size: 16px;&quot;&gt;SWDIO&lt;/span&gt;&lt;/font&gt;&lt;/div&gt;" style="text;whiteSpace=wrap;html=1;fontStyle=2;fontFamily=Gost Type B;fontSource=https%3A%2F%2Ffonts.googleapis.com%2Fcss%3Ffamily%3DGost%2BType%2BB;horizontal=0;" vertex="1" parent="1">
          <mxGeometry x="156.91400000000002" y="636.924" width="35.08" height="23.83" as="geometry" />
        </mxCell>
        <mxCell id="0Ov8n9n56HKdVS319JqA-1388" value="" style="endArrow=blockThin;html=1;rounded=0;endFill=1;fontFamily=Gost Type B;fontSource=https%3A%2F%2Ffonts.googleapis.com%2Fcss%3Ffamily%3DGost%2BType%2BB;" edge="1" parent="1">
          <mxGeometry width="50" height="50" relative="1" as="geometry">
            <mxPoint x="220" y="560.54" as="sourcePoint" />
            <mxPoint x="220.00000000000003" y="581.1869999999999" as="targetPoint" />
          </mxGeometry>
        </mxCell>
        <mxCell id="0Ov8n9n56HKdVS319JqA-1390" value="&lt;div style=&quot;text-align: center;&quot;&gt;&lt;font&gt;&lt;span style=&quot;font-size: 16px;&quot;&gt;От программатора&lt;/span&gt;&lt;/font&gt;&lt;/div&gt;" style="text;whiteSpace=wrap;html=1;fontStyle=2;container=0;fontFamily=Gost Type B;fontSource=https%3A%2F%2Ffonts.googleapis.com%2Fcss%3Ffamily%3DGost%2BType%2BB;" vertex="1" parent="1">
          <mxGeometry x="156.91000000000005" y="506.65999999999997" width="78.09" height="27.56" as="geometry" />
        </mxCell>
        <mxCell id="0Ov8n9n56HKdVS319JqA-1391" value="&lt;div style=&quot;text-align: center;&quot;&gt;&lt;font&gt;&lt;span style=&quot;font-size: 16px;&quot;&gt;От программатора&lt;/span&gt;&lt;/font&gt;&lt;/div&gt;" style="text;whiteSpace=wrap;html=1;fontStyle=2;container=0;fontFamily=Gost Type B;fontSource=https%3A%2F%2Ffonts.googleapis.com%2Fcss%3Ffamily%3DGost%2BType%2BB;" vertex="1" parent="1">
          <mxGeometry x="290.00000000000006" y="-301.18000000000006" width="78.09" height="27.56" as="geometry" />
        </mxCell>
        <mxCell id="0Ov8n9n56HKdVS319JqA-1392" value="" style="endArrow=none;html=1;rounded=0;" edge="1" parent="1">
          <mxGeometry width="50" height="50" relative="1" as="geometry">
            <mxPoint x="220" y="720" as="sourcePoint" />
            <mxPoint x="220" y="560" as="targetPoint" />
          </mxGeometry>
        </mxCell>
        <mxCell id="0Ov8n9n56HKdVS319JqA-1393" value="" style="endArrow=none;html=1;rounded=0;" edge="1" parent="1">
          <mxGeometry width="50" height="50" relative="1" as="geometry">
            <mxPoint x="219.22" y="718.61" as="sourcePoint" />
            <mxPoint x="229.82999999999998" y="739.46" as="targetPoint" />
          </mxGeometry>
        </mxCell>
        <mxCell id="0Ov8n9n56HKdVS319JqA-1394" value="" style="endArrow=open;html=1;rounded=0;endFill=0;fontStyle=2;fontFamily=Gost Type B;fontSource=https%3A%2F%2Ffonts.googleapis.com%2Fcss%3Ffamily%3DGost%2BType%2BB;" edge="1" parent="1">
          <mxGeometry width="50" height="50" relative="1" as="geometry">
            <mxPoint x="188.64" y="650" as="sourcePoint" />
            <mxPoint x="188.64" y="670" as="targetPoint" />
          </mxGeometry>
        </mxCell>
        <mxCell id="0Ov8n9n56HKdVS319JqA-1395" value="" style="endArrow=blockThin;html=1;rounded=0;endFill=1;fontFamily=Gost Type B;fontSource=https%3A%2F%2Ffonts.googleapis.com%2Fcss%3Ffamily%3DGost%2BType%2BB;" edge="1" parent="1">
          <mxGeometry width="50" height="50" relative="1" as="geometry">
            <mxPoint x="188.64" y="560.54" as="sourcePoint" />
            <mxPoint x="188.64000000000004" y="581.1869999999999" as="targetPoint" />
          </mxGeometry>
        </mxCell>
        <mxCell id="0Ov8n9n56HKdVS319JqA-1396" value="" style="endArrow=none;html=1;rounded=0;" edge="1" parent="1">
          <mxGeometry width="50" height="50" relative="1" as="geometry">
            <mxPoint x="188.64" y="720" as="sourcePoint" />
            <mxPoint x="188.64" y="560" as="targetPoint" />
          </mxGeometry>
        </mxCell>
        <mxCell id="0Ov8n9n56HKdVS319JqA-1397" value="" style="endArrow=none;html=1;rounded=0;" edge="1" parent="1">
          <mxGeometry width="50" height="50" relative="1" as="geometry">
            <mxPoint x="187.86" y="718.61" as="sourcePoint" />
            <mxPoint x="198.46999999999997" y="739.46" as="targetPoint" />
          </mxGeometry>
        </mxCell>
        <mxCell id="0Ov8n9n56HKdVS319JqA-1398" value="&lt;font data-font-src=&quot;https://fonts.googleapis.com/css?family=Gost+Type+B&quot; face=&quot;Gost Type B&quot; style=&quot;font-size: 16px;&quot;&gt;PB1&lt;/font&gt;" style="text;html=1;align=center;verticalAlign=middle;resizable=0;points=[];autosize=1;strokeColor=none;fillColor=none;horizontal=0;" vertex="1" parent="1">
          <mxGeometry x="186.64999999999998" y="681.1600000000001" width="40" height="40" as="geometry" />
        </mxCell>
        <mxCell id="0Ov8n9n56HKdVS319JqA-1399" value="&lt;font data-font-src=&quot;https://fonts.googleapis.com/css?family=Gost+Type+B&quot; face=&quot;Gost Type B&quot; style=&quot;font-size: 16px;&quot;&gt;PB2&lt;/font&gt;" style="text;html=1;align=center;verticalAlign=middle;resizable=0;points=[];autosize=1;strokeColor=none;fillColor=none;horizontal=0;" vertex="1" parent="1">
          <mxGeometry x="155.74999999999997" y="681.1600000000001" width="40" height="40" as="geometry" />
        </mxCell>
        <mxCell id="0Ov8n9n56HKdVS319JqA-1401" value="" style="endArrow=none;html=1;rounded=0;entryX=-0.003;entryY=0.149;entryDx=0;entryDy=0;entryPerimeter=0;startArrow=blockThin;startFill=1;" edge="1" parent="1" target="0Ov8n9n56HKdVS319JqA-1143">
          <mxGeometry width="50" height="50" relative="1" as="geometry">
            <mxPoint x="-10" y="-210" as="sourcePoint" />
            <mxPoint x="-50" y="-230" as="targetPoint" />
          </mxGeometry>
        </mxCell>
        <mxCell id="0Ov8n9n56HKdVS319JqA-1402" value="&lt;font data-font-src=&quot;https://fonts.googleapis.com/css?family=Gost+Type+B&quot; face=&quot;Gost Type B&quot; style=&quot;font-size: 16px;&quot;&gt;VCC&lt;/font&gt;" style="text;html=1;align=center;verticalAlign=middle;resizable=0;points=[];autosize=1;strokeColor=none;fillColor=none;" vertex="1" parent="1">
          <mxGeometry x="-64.39" y="-228.87" width="50" height="30" as="geometry" />
        </mxCell>
        <mxCell id="0Ov8n9n56HKdVS319JqA-1403" value="" style="endArrow=open;html=1;rounded=0;endFill=0;fontStyle=2;fontFamily=Gost Type B;fontSource=https%3A%2F%2Ffonts.googleapis.com%2Fcss%3Ffamily%3DGost%2BType%2BB;" edge="1" parent="1">
          <mxGeometry width="50" height="50" relative="1" as="geometry">
            <mxPoint x="249.75000000000017" y="-126.64000000000001" as="sourcePoint" />
            <mxPoint x="249.75000000000017" y="-75.64000000000001" as="targetPoint" />
          </mxGeometry>
        </mxCell>
        <mxCell id="0Ov8n9n56HKdVS319JqA-1404" value="" style="endArrow=none;html=1;rounded=0;endFill=0;fontStyle=2;fontFamily=Gost Type B;fontSource=https%3A%2F%2Ffonts.googleapis.com%2Fcss%3Ffamily%3DGost%2BType%2BB;startArrow=open;startFill=0;" edge="1" parent="1">
          <mxGeometry width="50" height="50" relative="1" as="geometry">
            <mxPoint x="280.00000000000017" y="-126.45000000000002" as="sourcePoint" />
            <mxPoint x="280.00000000000017" y="-75.45000000000002" as="targetPoint" />
          </mxGeometry>
        </mxCell>
        <mxCell id="0Ov8n9n56HKdVS319JqA-1405" value="RXD" style="text;html=1;align=center;verticalAlign=middle;resizable=0;points=[];autosize=1;strokeColor=none;fillColor=none;fontFamily=Gost Type B;fontSource=https%3A%2F%2Ffonts.googleapis.com%2Fcss%3Ffamily%3DGost%2BType%2BB;fontSize=16;horizontal=0;" vertex="1" parent="1">
          <mxGeometry x="211.50000000000006" y="-114.35000000000004" width="50" height="30" as="geometry" />
        </mxCell>
        <mxCell id="0Ov8n9n56HKdVS319JqA-1406" value="TXD" style="text;html=1;align=center;verticalAlign=middle;resizable=0;points=[];autosize=1;strokeColor=none;fillColor=none;fontFamily=Gost Type B;fontSource=https%3A%2F%2Ffonts.googleapis.com%2Fcss%3Ffamily%3DGost%2BType%2BB;fontSize=16;horizontal=0;" vertex="1" parent="1">
          <mxGeometry x="247.98000000000005" y="-118.71000000000004" width="40" height="40" as="geometry" />
        </mxCell>
        <mxCell id="0Ov8n9n56HKdVS319JqA-1407" value="" style="endArrow=open;html=1;rounded=0;endFill=0;fontStyle=2;fontFamily=Gost Type B;fontSource=https%3A%2F%2Ffonts.googleapis.com%2Fcss%3Ffamily%3DGost%2BType%2BB;" edge="1" parent="1">
          <mxGeometry width="50" height="50" relative="1" as="geometry">
            <mxPoint x="-30" y="150" as="sourcePoint" />
            <mxPoint x="-30" y="202" as="targetPoint" />
          </mxGeometry>
        </mxCell>
        <mxCell id="0Ov8n9n56HKdVS319JqA-1408" value="" style="endArrow=none;html=1;rounded=0;endFill=0;fontStyle=2;fontFamily=Gost Type B;fontSource=https%3A%2F%2Ffonts.googleapis.com%2Fcss%3Ffamily%3DGost%2BType%2BB;startArrow=open;startFill=0;" edge="1" parent="1">
          <mxGeometry width="50" height="50" relative="1" as="geometry">
            <mxPoint y="151" as="sourcePoint" />
            <mxPoint y="200" as="targetPoint" />
          </mxGeometry>
        </mxCell>
        <mxCell id="0Ov8n9n56HKdVS319JqA-1409" value="RXD" style="text;html=1;align=center;verticalAlign=middle;resizable=0;points=[];autosize=1;strokeColor=none;fillColor=none;fontFamily=Gost Type B;fontSource=https%3A%2F%2Ffonts.googleapis.com%2Fcss%3Ffamily%3DGost%2BType%2BB;fontSize=16;horizontal=0;" vertex="1" parent="1">
          <mxGeometry x="-34.999999999999936" y="168.18999999999997" width="50" height="30" as="geometry" />
        </mxCell>
        <mxCell id="0Ov8n9n56HKdVS319JqA-1410" value="TXD" style="text;html=1;align=center;verticalAlign=middle;resizable=0;points=[];autosize=1;strokeColor=none;fillColor=none;fontFamily=Gost Type B;fontSource=https%3A%2F%2Ffonts.googleapis.com%2Fcss%3Ffamily%3DGost%2BType%2BB;fontSize=16;horizontal=0;" vertex="1" parent="1">
          <mxGeometry x="-59.38999999999997" y="160.74999999999994" width="40" height="40" as="geometry" />
        </mxCell>
        <mxCell id="0Ov8n9n56HKdVS319JqA-1412" value="" style="endArrow=none;html=1;rounded=0;fontStyle=2;fontFamily=Gost Type B;fontSource=https%3A%2F%2Ffonts.googleapis.com%2Fcss%3Ffamily%3DGost%2BType%2BB;" edge="1" parent="1">
          <mxGeometry width="50" height="50" relative="1" as="geometry">
            <mxPoint x="26.70399999999985" y="277.11400000000003" as="sourcePoint" />
            <mxPoint x="59.70399999999985" y="277.11400000000003" as="targetPoint" />
          </mxGeometry>
        </mxCell>
        <mxCell id="0Ov8n9n56HKdVS319JqA-1413" value="&lt;div style=&quot;text-align: center;&quot;&gt;&lt;font&gt;&lt;span style=&quot;font-size: 20px;&quot;&gt;&lt;span&gt;GND&lt;/span&gt;&lt;/span&gt;&lt;/font&gt;&lt;/div&gt;" style="text;whiteSpace=wrap;html=1;fontStyle=2;fontFamily=Gost Type B;fontSource=https%3A%2F%2Ffonts.googleapis.com%2Fcss%3Ffamily%3DGost%2BType%2BB;" vertex="1" parent="1">
          <mxGeometry x="26.733999999999753" y="270.834" width="35.42" height="32.26" as="geometry" />
        </mxCell>
        <mxCell id="0Ov8n9n56HKdVS319JqA-1414" value="" style="endArrow=none;html=1;rounded=0;fontStyle=2;fontFamily=Gost Type B;fontSource=https%3A%2F%2Ffonts.googleapis.com%2Fcss%3Ffamily%3DGost%2BType%2BB;" edge="1" parent="1">
          <mxGeometry width="50" height="50" relative="1" as="geometry">
            <mxPoint x="43.65999999999998" y="276.63" as="sourcePoint" />
            <mxPoint x="79.16" y="241.63000000000002" as="targetPoint" />
            <Array as="points">
              <mxPoint x="43.65999999999998" y="241.63000000000002" />
            </Array>
          </mxGeometry>
        </mxCell>
        <mxCell id="0Ov8n9n56HKdVS319JqA-1415" value="" style="endArrow=none;html=1;rounded=0;fontStyle=2;fontFamily=Gost Type B;fontSource=https%3A%2F%2Ffonts.googleapis.com%2Fcss%3Ffamily%3DGost%2BType%2BB;" edge="1" parent="1">
          <mxGeometry width="50" height="50" relative="1" as="geometry">
            <mxPoint x="78.88999999999999" y="241.63000000000002" as="sourcePoint" />
            <mxPoint x="110.66" y="229.63000000000002" as="targetPoint" />
          </mxGeometry>
        </mxCell>
        <mxCell id="0Ov8n9n56HKdVS319JqA-1416" value="" style="endArrow=none;html=1;rounded=0;fontStyle=2;fontFamily=Gost Type B;fontSource=https%3A%2F%2Ffonts.googleapis.com%2Fcss%3Ffamily%3DGost%2BType%2BB;" edge="1" parent="1">
          <mxGeometry width="50" height="50" relative="1" as="geometry">
            <mxPoint x="94.66" y="216.82" as="sourcePoint" />
            <mxPoint x="94.66" y="202.82000000000002" as="targetPoint" />
          </mxGeometry>
        </mxCell>
        <mxCell id="0Ov8n9n56HKdVS319JqA-1417" value="" style="endArrow=none;html=1;rounded=0;fontStyle=2;fontFamily=Gost Type B;fontSource=https%3A%2F%2Ffonts.googleapis.com%2Fcss%3Ffamily%3DGost%2BType%2BB;" edge="1" parent="1">
          <mxGeometry width="50" height="50" relative="1" as="geometry">
            <mxPoint x="94.66" y="235.63000000000002" as="sourcePoint" />
            <mxPoint x="94.66" y="223.63" as="targetPoint" />
          </mxGeometry>
        </mxCell>
        <mxCell id="0Ov8n9n56HKdVS319JqA-1418" value="" style="endArrow=none;html=1;rounded=0;fontStyle=2;fontFamily=Gost Type B;fontSource=https%3A%2F%2Ffonts.googleapis.com%2Fcss%3Ffamily%3DGost%2BType%2BB;" edge="1" parent="1">
          <mxGeometry width="50" height="50" relative="1" as="geometry">
            <mxPoint x="78.66" y="202.82000000000002" as="sourcePoint" />
            <mxPoint x="110.66" y="202.82000000000002" as="targetPoint" />
          </mxGeometry>
        </mxCell>
        <mxCell id="0Ov8n9n56HKdVS319JqA-1419" value="" style="endArrow=none;html=1;rounded=0;fontStyle=2;fontFamily=Gost Type B;fontSource=https%3A%2F%2Ffonts.googleapis.com%2Fcss%3Ffamily%3DGost%2BType%2BB;" edge="1" parent="1">
          <mxGeometry width="50" height="50" relative="1" as="geometry">
            <mxPoint x="110.66" y="210.82000000000002" as="sourcePoint" />
            <mxPoint x="110.66" y="202.32000000000002" as="targetPoint" />
          </mxGeometry>
        </mxCell>
        <mxCell id="0Ov8n9n56HKdVS319JqA-1420" value="" style="endArrow=none;html=1;rounded=0;fontStyle=2;fontFamily=Gost Type B;fontSource=https%3A%2F%2Ffonts.googleapis.com%2Fcss%3Ffamily%3DGost%2BType%2BB;" edge="1" parent="1">
          <mxGeometry width="50" height="50" relative="1" as="geometry">
            <mxPoint x="78.66" y="210.82000000000002" as="sourcePoint" />
            <mxPoint x="78.66" y="202.32000000000002" as="targetPoint" />
          </mxGeometry>
        </mxCell>
        <mxCell id="0Ov8n9n56HKdVS319JqA-1421" value="&lt;div style=&quot;text-align: center;&quot;&gt;&lt;font style=&quot;font-size: 16px;&quot;&gt;SB1&lt;/font&gt;&lt;/div&gt;" style="text;whiteSpace=wrap;html=1;fontStyle=2;fontFamily=Gost Type B;fontSource=https%3A%2F%2Ffonts.googleapis.com%2Fcss%3Ffamily%3DGost%2BType%2BB;" vertex="1" parent="1">
          <mxGeometry x="79.82099999999977" y="172.761" width="35.42" height="32.26" as="geometry" />
        </mxCell>
        <mxCell id="0Ov8n9n56HKdVS319JqA-1422" value="" style="endArrow=none;html=1;rounded=0;fontStyle=2;fontFamily=Gost Type B;fontSource=https%3A%2F%2Ffonts.googleapis.com%2Fcss%3Ffamily%3DGost%2BType%2BB;" edge="1" parent="1">
          <mxGeometry width="50" height="50" relative="1" as="geometry">
            <mxPoint x="125.19099999999989" y="304.68100000000004" as="sourcePoint" />
            <mxPoint x="158.1909999999999" y="304.68100000000004" as="targetPoint" />
          </mxGeometry>
        </mxCell>
        <mxCell id="0Ov8n9n56HKdVS319JqA-1423" value="&lt;div style=&quot;text-align: center;&quot;&gt;&lt;font&gt;&lt;span style=&quot;font-size: 20px;&quot;&gt;&lt;span&gt;GND&lt;/span&gt;&lt;/span&gt;&lt;/font&gt;&lt;/div&gt;" style="text;whiteSpace=wrap;html=1;fontStyle=2;fontFamily=Gost Type B;fontSource=https%3A%2F%2Ffonts.googleapis.com%2Fcss%3Ffamily%3DGost%2BType%2BB;" vertex="1" parent="1">
          <mxGeometry x="123.84099999999978" y="297.341" width="35.42" height="32.26" as="geometry" />
        </mxCell>
        <mxCell id="0Ov8n9n56HKdVS319JqA-1424" value="" style="endArrow=none;html=1;rounded=0;fontStyle=2;fontFamily=Gost Type B;fontSource=https%3A%2F%2Ffonts.googleapis.com%2Fcss%3Ffamily%3DGost%2BType%2BB;" edge="1" parent="1">
          <mxGeometry width="50" height="50" relative="1" as="geometry">
            <mxPoint x="110.66" y="241.63000000000002" as="sourcePoint" />
            <mxPoint x="141.66" y="241.63000000000002" as="targetPoint" />
          </mxGeometry>
        </mxCell>
        <mxCell id="0Ov8n9n56HKdVS319JqA-1425" value="" style="endArrow=none;html=1;rounded=0;fontStyle=2;fontFamily=Gost Type B;fontSource=https%3A%2F%2Ffonts.googleapis.com%2Fcss%3Ffamily%3DGost%2BType%2BB;" edge="1" parent="1">
          <mxGeometry width="50" height="50" relative="1" as="geometry">
            <mxPoint x="129.01000000000002" y="273.37" as="sourcePoint" />
            <mxPoint x="154.01000000000002" y="273.37" as="targetPoint" />
          </mxGeometry>
        </mxCell>
        <mxCell id="0Ov8n9n56HKdVS319JqA-1426" value="" style="endArrow=none;html=1;rounded=0;fontStyle=2;fontFamily=Gost Type B;fontSource=https%3A%2F%2Ffonts.googleapis.com%2Fcss%3Ffamily%3DGost%2BType%2BB;" edge="1" parent="1">
          <mxGeometry width="50" height="50" relative="1" as="geometry">
            <mxPoint x="129.01000000000002" y="277.37" as="sourcePoint" />
            <mxPoint x="154.01000000000002" y="277.37" as="targetPoint" />
          </mxGeometry>
        </mxCell>
        <mxCell id="0Ov8n9n56HKdVS319JqA-1427" value="" style="endArrow=none;html=1;rounded=0;fontStyle=2;fontFamily=Gost Type B;fontSource=https%3A%2F%2Ffonts.googleapis.com%2Fcss%3Ffamily%3DGost%2BType%2BB;" edge="1" parent="1">
          <mxGeometry width="50" height="50" relative="1" as="geometry">
            <mxPoint x="141.66" y="273.63" as="sourcePoint" />
            <mxPoint x="141.66" y="241.13000000000002" as="targetPoint" />
          </mxGeometry>
        </mxCell>
        <mxCell id="0Ov8n9n56HKdVS319JqA-1428" value="" style="endArrow=none;html=1;rounded=0;fontStyle=2;fontFamily=Gost Type B;fontSource=https%3A%2F%2Ffonts.googleapis.com%2Fcss%3Ffamily%3DGost%2BType%2BB;" edge="1" parent="1">
          <mxGeometry width="50" height="50" relative="1" as="geometry">
            <mxPoint x="141.66" y="304.63" as="sourcePoint" />
            <mxPoint x="141.66" y="277.63" as="targetPoint" />
          </mxGeometry>
        </mxCell>
        <mxCell id="0Ov8n9n56HKdVS319JqA-1429" value="&lt;div style=&quot;text-align: center;&quot;&gt;&lt;font&gt;&lt;span style=&quot;font-size: 20px;&quot;&gt;&lt;span&gt;C3&lt;/span&gt;&lt;/span&gt;&lt;/font&gt;&lt;/div&gt;" style="text;whiteSpace=wrap;html=1;fontStyle=2;fontFamily=Gost Type B;fontSource=https%3A%2F%2Ffonts.googleapis.com%2Fcss%3Ffamily%3DGost%2BType%2BB;" vertex="1" parent="1">
          <mxGeometry x="153.69000000000003" y="257.43" width="19.68" height="27.55" as="geometry" />
        </mxCell>
        <mxCell id="0Ov8n9n56HKdVS319JqA-1430" value="" style="rounded=0;whiteSpace=wrap;html=1;rotation=90;fontStyle=2;fontFamily=Gost Type B;fontSource=https%3A%2F%2Ffonts.googleapis.com%2Fcss%3Ffamily%3DGost%2BType%2BB;" vertex="1" parent="1">
          <mxGeometry x="125.79699999999988" y="206.247" width="31.5" height="15.3" as="geometry" />
        </mxCell>
        <mxCell id="0Ov8n9n56HKdVS319JqA-1431" value="" style="endArrow=none;html=1;rounded=0;entryX=1;entryY=0.5;entryDx=0;entryDy=0;fontStyle=2;fontFamily=Gost Type B;fontSource=https%3A%2F%2Ffonts.googleapis.com%2Fcss%3Ffamily%3DGost%2BType%2BB;" edge="1" parent="1" target="0Ov8n9n56HKdVS319JqA-1430">
          <mxGeometry width="50" height="50" relative="1" as="geometry">
            <mxPoint x="141.66" y="241.63000000000002" as="sourcePoint" />
            <mxPoint x="179.66" y="233.63000000000002" as="targetPoint" />
          </mxGeometry>
        </mxCell>
        <mxCell id="0Ov8n9n56HKdVS319JqA-1432" value="" style="endArrow=blockThin;html=1;rounded=0;exitX=0;exitY=0.5;exitDx=0;exitDy=0;endFill=1;fontStyle=2;fontFamily=Gost Type B;fontSource=https%3A%2F%2Ffonts.googleapis.com%2Fcss%3Ffamily%3DGost%2BType%2BB;" edge="1" parent="1" source="0Ov8n9n56HKdVS319JqA-1430">
          <mxGeometry width="50" height="50" relative="1" as="geometry">
            <mxPoint x="118.66" y="204.63000000000002" as="sourcePoint" />
            <mxPoint x="141.66" y="174.63000000000002" as="targetPoint" />
          </mxGeometry>
        </mxCell>
        <mxCell id="0Ov8n9n56HKdVS319JqA-1433" value="" style="ellipse;whiteSpace=wrap;html=1;aspect=fixed;fillColor=#000000;fontStyle=2;fontFamily=Gost Type B;fontSource=https%3A%2F%2Ffonts.googleapis.com%2Fcss%3Ffamily%3DGost%2BType%2BB;" vertex="1" parent="1">
          <mxGeometry x="140.16" y="240.144" width="3" height="3" as="geometry" />
        </mxCell>
        <mxCell id="0Ov8n9n56HKdVS319JqA-1434" value="&lt;div style=&quot;line-height: 100%;&quot;&gt;&lt;font size=&quot;1&quot;&gt;&lt;span style=&quot;font-size: 16px;&quot;&gt;Кнопка сброса&lt;/span&gt;&lt;/font&gt;&lt;/div&gt;" style="text;whiteSpace=wrap;html=1;align=center;fontStyle=2;fontFamily=Gost Type B;fontSource=https%3A%2F%2Ffonts.googleapis.com%2Fcss%3Ffamily%3DGost%2BType%2BB;" vertex="1" parent="1">
          <mxGeometry x="74.95099999999977" y="240.14100000000002" width="35.42" height="32.26" as="geometry" />
        </mxCell>
        <mxCell id="0Ov8n9n56HKdVS319JqA-1435" value="&lt;div style=&quot;text-align: center;&quot;&gt;&lt;font&gt;&lt;span style=&quot;font-size: 20px;&quot;&gt;&lt;span&gt;R1&lt;/span&gt;&lt;/span&gt;&lt;/font&gt;&lt;/div&gt;" style="text;whiteSpace=wrap;html=1;fontStyle=2;fontFamily=Gost Type B;fontSource=https%3A%2F%2Ffonts.googleapis.com%2Fcss%3Ffamily%3DGost%2BType%2BB;" vertex="1" parent="1">
          <mxGeometry x="153.69099999999978" y="197.77100000000002" width="35.42" height="32.26" as="geometry" />
        </mxCell>
        <mxCell id="0Ov8n9n56HKdVS319JqA-1436" value="" style="endArrow=none;html=1;rounded=0;entryX=0.5;entryY=0;entryDx=0;entryDy=0;edgeStyle=orthogonalEdgeStyle;exitX=0;exitY=0;exitDx=0;exitDy=0;" edge="1" parent="1" source="0Ov8n9n56HKdVS319JqA-1433" target="0Ov8n9n56HKdVS319JqA-1025">
          <mxGeometry width="50" height="50" relative="1" as="geometry">
            <mxPoint x="230" y="130" as="sourcePoint" />
            <mxPoint x="280" y="80" as="targetPoint" />
            <Array as="points">
              <mxPoint x="210" y="241" />
              <mxPoint x="210" y="150" />
              <mxPoint x="342" y="150" />
            </Array>
          </mxGeometry>
        </mxCell>
        <mxCell id="0Ov8n9n56HKdVS319JqA-1437" value="&lt;span style=&quot;color: rgb(0, 0, 0); font-size: 16px; font-style: italic; font-variant-ligatures: normal; font-variant-caps: normal; font-weight: 400; letter-spacing: normal; orphans: 2; text-align: center; text-indent: 0px; text-transform: none; widows: 2; word-spacing: 0px; -webkit-text-stroke-width: 0px; background-color: rgb(251, 251, 251); text-decoration-thickness: initial; text-decoration-style: initial; text-decoration-color: initial; float: none; display: inline !important;&quot;&gt;&lt;font data-font-src=&quot;https://fonts.googleapis.com/css?family=Gost+Type+B&quot; face=&quot;Gost Type B&quot;&gt;RESET&lt;/font&gt;&lt;/span&gt;" style="text;whiteSpace=wrap;html=1;horizontal=0;" vertex="1" parent="1">
          <mxGeometry x="310" y="-45.38" width="80" height="40" as="geometry" />
        </mxCell>
      </root>
    </mxGraphModel>
  </diagram>
</mxfile>
